<svg style="position: absolute; width: 0; height: 0; overflow: hidden;" version="1.1" xmlns="http://www.w3.org/2000/svg" xmlns:xlink="http://www.w3.org/1999/xlink">
<defs>
<symbol id="icon-menu" viewBox="0 0 45 32">
<title>menu</title>
<path d="M3.851 2.75h37.1v5.3h-37.1v-5.3z"></path>
<path d="M3.851 13.35h37.1v5.3h-37.1v-5.3z"></path>
<path d="M3.851 23.95h37.1v5.3h-37.1v-5.3z"></path>
</symbol>
<symbol id="icon-download" viewBox="0 0 26 32">
<title>download</title>
<path d="M1.12 28.32h24v2.56h-24v-2.56z"></path>
<path d="M11.531 0v18.255l-6.204-6.264-2.095 2.13 9.785 9.879 9.785-9.879-2.095-2.115-6.204 6.249v-18.255z"></path>
</symbol>
<symbol id="icon-grid" viewBox="0 0 32 32">
<title>grid</title>
<path d="M0.5 0.5h6.889v6.889h-6.889v-6.889z"></path>
<path d="M12.556 0.5h6.889v6.889h-6.889v-6.889z"></path>
<path d="M24.611 0.5h6.889v6.889h-6.889v-6.889z"></path>
<path d="M0.5 12.556h6.889v6.889h-6.889v-6.889z"></path>
<path d="M12.556 12.556h6.889v6.889h-6.889v-6.889z"></path>
<path d="M24.611 12.556h6.889v6.889h-6.889v-6.889z"></path>
<path d="M0.5 24.611h6.889v6.889h-6.889v-6.889z"></path>
<path d="M12.556 24.611h6.889v6.889h-6.889v-6.889z"></path>
<path d="M24.611 24.611h6.889v6.889h-6.889v-6.889z"></path>
</symbol>
<symbol id="icon-search" viewBox="0 0 32 32">
<title>search</title>
<path d="M25.064 22.047l6.311 6.311-3.017 3.017-6.311-6.311c-2.293 1.678-5.121 2.669-8.181 2.669-7.658 0-13.867-6.208-13.867-13.867s6.208-13.867 13.867-13.867c7.658 0 13.867 6.208 13.867 13.867 0 3.059-0.991 5.887-2.669 8.181v0zM13.867 23.467c5.302 0 9.6-4.298 9.6-9.6s-4.298-9.6-9.6-9.6c-5.302 0-9.6 4.298-9.6 9.6s4.298 9.6 9.6 9.6z"></path>
</symbol>
<symbol id="icon-user" viewBox="0 0 30 32">
<title>user</title>
<path d="M14.933 0c4.706 0 8.533 3.686 8.533 8.219v2.055c0 4.533-3.827 8.219-8.533 8.219s-8.533-3.686-8.533-8.219v-2.055c0-4.533 3.827-8.219 8.533-8.219zM23.543 18.492c3.757 1.179 6.323 3.873 6.323 7.344v6.164h-29.867v-6.164c0-3.47 2.566-6.164 6.323-7.344 2.276 2.001 5.293 3.234 8.61 3.234s6.334-1.233 8.61-3.234z"></path>
</symbol>
<symbol id="icon-minus" viewBox="0 0 32 32">
<title>minus</title>
<path d="M4 14.667h24q0.552 0 0.943 0.391t0.391 0.943-0.391 0.943-0.943 0.391h-24q-0.552 0-0.943-0.391t-0.391-0.943 0.391-0.943 0.943-0.391z"></path>
</symbol>
<symbol id="icon-cross" viewBox="0 0 32 32">
<title>cross</title>
<path d="M25.333 5.333q0.573 0 0.953 0.38t0.38 0.953q0 0.563-0.385 0.948l-8.396 8.385 8.396 8.385q0.385 0.385 0.385 0.948 0 0.573-0.38 0.953t-0.953 0.38q-0.563 0-0.948-0.385l-8.385-8.396-8.385 8.396q-0.385 0.385-0.948 0.385-0.573 0-0.953-0.38t-0.38-0.953q0-0.563 0.385-0.948l8.396-8.385-8.396-8.385q-0.385-0.385-0.385-0.948 0-0.573 0.38-0.953t0.953-0.38q0.563 0 0.948 0.385l8.385 8.396 8.385-8.396q0.385-0.385 0.948-0.385z"></path>
</symbol>
<symbol id="icon-plus" viewBox="0 0 32 32">
<title>plus</title>
<path d="M16 2.667q0.552 0 0.943 0.391t0.391 0.943v10.667h10.667q0.552 0 0.943 0.391t0.391 0.943-0.391 0.943-0.943 0.391h-10.667v10.667q0 0.552-0.391 0.943t-0.943 0.391-0.943-0.391-0.391-0.943v-10.667h-10.667q-0.552 0-0.943-0.391t-0.391-0.943 0.391-0.943 0.943-0.391h10.667v-10.667q0-0.552 0.391-0.943t0.943-0.391z"></path>
</symbol>
<symbol id="icon-check" viewBox="0 0 32 32">
<title>check</title>
<path d="M28 6.667q0.573 0 0.953 0.38t0.38 0.953q0 0.563-0.385 0.948l-16 16q-0.385 0.385-0.948 0.385t-0.948-0.385l-8-8q-0.385-0.385-0.385-0.948 0-0.573 0.38-0.953t0.953-0.38q0.563 0 0.948 0.385l7.052 7.063 15.052-15.063q0.385-0.385 0.948-0.385z"></path>
</symbol>
<symbol id="icon-arrow-left" viewBox="0 0 18 32">
<title>arrow-left</title>
<path d="M16 31.6c-0.4 0-0.8-0.2-1-0.4l-14-14c-0.6-0.6-0.6-1.6 0-2.2l14-14c0.6-0.6 1.6-0.6 2.2 0s0.6 1.6 0 2.2l-13.2 12.8 13 13c0.6 0.6 0.6 1.6 0 2.2-0.2 0.4-0.6 0.4-1 0.4z"></path>
</symbol>
<symbol id="icon-arrow-right" viewBox="0 0 18 32">
<title>arrow-right</title>
<path d="M2 0.4c0.4 0 0.8 0.2 1 0.4l14 14c0.6 0.6 0.6 1.6 0 2.2l-14 14c-0.6 0.6-1.6 0.6-2.2 0s-0.6-1.6 0-2.2l13.2-12.8-13-13c-0.6-0.6-0.6-1.6 0-2.2 0.2-0.4 0.6-0.4 1-0.4z"></path>
</symbol>
<symbol id="icon-arrow-down" viewBox="0 0 32 32">
<title>arrow-down</title>
<path d="M31.35 9.1c0 0.4-0.2 0.8-0.4 1l-14 14c-0.6 0.6-1.6 0.6-2.2 0l-14-14c-0.6-0.6-0.6-1.6 0-2.2s1.6-0.6 2.2 0l12.8 13.2 13-13c0.6-0.6 1.6-0.6 2.2 0 0.4 0.2 0.4 0.6 0.4 1z"></path>
</symbol>
<symbol id="icon-arrow-up" viewBox="0 0 32 32">
<title>arrow-up</title>
<path d="M31.35 22.9c0-0.4-0.2-0.8-0.4-1l-14-14c-0.6-0.6-1.6-0.6-2.2 0l-14 14c-0.6 0.6-0.6 1.6 0 2.2s1.6 0.6 2.2 0l12.8-13.2 13 13c0.6 0.6 1.6 0.6 2.2 0 0.4-0.2 0.4-0.6 0.4-1z"></path>
</symbol>
<symbol id="icon-info" viewBox="0 0 32 32">
<title>info</title>
<path d="M14.655 19.655h2.251v-1.649c0-0.691 0.134-1.114 1.025-1.76l0.936-0.691c1.047-0.758 1.649-1.426 1.649-2.808l-0.022-0.98c-0.022-1.604-0.936-3.766-4.747-3.766-3.499 0-4.747 1.783-4.747 4.145v1.27l2.251 0.089v-1.404c0-1.382 0.557-2.318 2.407-2.318 1.872 0 2.496 0.98 2.496 2.184v0.535c0 0.49-0.134 1.025-1.114 1.716l-0.958 0.691c-1.092 0.78-1.426 1.426-1.426 2.696v2.050zM14.61 24h2.318v-2.585h-2.318v2.585z"></path>
<path d="M16 32c-8.837 0-16-7.163-16-16s7.163-16 16-16c8.837 0 16 7.163 16 16s-7.163 16-16 16zM16 29.091c7.23 0 13.091-5.861 13.091-13.091s-5.861-13.091-13.091-13.091c-7.23 0-13.091 5.861-13.091 13.091s5.861 13.091 13.091 13.091z"></path>
</symbol>
<symbol id="icon-list" viewBox="0 0 34 32">
<title>list</title>
<path d="M0 0h7.112v7.112h-7.112v-7.112z"></path>
<path d="M0 12.444h7.112v7.112h-7.112v-7.112z"></path>
<path d="M0 24.889h7.112v7.112h-7.112v-7.112z"></path>
<path d="M12.444 0h20.596v7.112h-20.596v-7.112z"></path>
<path d="M12.444 12.444h20.596v7.112h-20.596v-7.112z"></path>
<path d="M12.444 24.889h20.596v7.112h-20.596v-7.112z"></path>
</symbol>
<symbol id="icon-remove" viewBox="0 0 28 32">
<title>remove</title>
<path d="M3.267 31.007c0 0.549 0.416 0.993 0.928 0.993h19.61c0.513 0 0.928-0.445 0.928-0.993l0.042-24.308h3.225v-1.986h-9.086v-3.719c0-0.548-0.416-0.993-0.928-0.993h-7.972c-0.513 0-0.928 0.445-0.928 0.993v3.719h-9.086v1.986h3.225l0.042 24.308zM22.42 29.413h-16.84l-0.040-22.109h16.919l-0.040 22.109zM10.942 1.986h6.116v2.726h-6.116v-2.726z"></path>
<path d="M10 12h2v12h-2v-12z"></path>
<path d="M16 12h2v12h-2v-12z"></path>
</symbol>
<symbol id="icon-share" viewBox="0 0 32 32">
<title>share</title>
<path d="M17.254 18.877v6.491l10.622-10.622-10.622-10.622v6.491c-4.721 0.147-13.278 2.213-13.278 13.278v3.836l1.918-3.246c2.508-4.131 5.016-5.459 11.36-5.606z"></path>
</symbol>
<symbol id="icon-arrow-up2" viewBox="0 0 32 32">
<title>arrow-up2</title>
<path d="M5.176 14.918v0c0.676 0.676 1.894 0.676 2.571 0l6.494-6.494v20.159c0 0.947 0.812 1.759 1.759 1.759v0c0.947 0 1.759-0.812 1.759-1.759v-20.159l6.494 6.494c0.676 0.676 1.894 0.676 2.571 0v0c0.676-0.676 0.676-1.894 0-2.571l-10.824-10.824-10.824 10.824c-0.676 0.676-0.676 1.894 0 2.571z"></path>
</symbol>
<symbol id="icon-arrow-down2" viewBox="0 0 32 32">
<title>arrow-down2</title>
<path d="M26.824 17.082v0c-0.676-0.676-1.894-0.676-2.571 0l-6.494 6.494v-20.159c0-0.947-0.812-1.759-1.759-1.759v0c-0.947 0-1.759 0.812-1.759 1.759v20.159l-6.494-6.494c-0.676-0.676-1.894-0.676-2.571 0v0c-0.676 0.676-0.676 1.894 0 2.571l10.824 10.824 10.824-10.824c0.676-0.676 0.676-1.894 0-2.571z"></path>
</symbol>
<symbol id="icon-arrow-right2" viewBox="0 0 32 32">
<title>arrow-right2</title>
<path d="M17.082 5.176v0c-0.676 0.676-0.676 1.894 0 2.571l6.494 6.494h-20.159c-0.947 0-1.759 0.812-1.759 1.759v0c0 0.947 0.812 1.759 1.759 1.759h20.159l-6.494 6.494c-0.676 0.676-0.676 1.894 0 2.571v0c0.676 0.676 1.894 0.676 2.571 0l10.824-10.824-10.824-10.824c-0.676-0.676-1.894-0.676-2.571 0z"></path>
</symbol>
<symbol id="icon-arrow-left2" viewBox="0 0 32 32">
<title>arrow-left2</title>
<path d="M14.918 26.824v0c0.676-0.676 0.676-1.894 0-2.571l-6.494-6.494h20.159c0.947 0 1.759-0.812 1.759-1.759v0c0-0.947-0.812-1.759-1.759-1.759h-20.159l6.494-6.494c0.676-0.676 0.676-1.894 0-2.571v0c-0.676-0.676-1.894-0.676-2.571 0l-10.824 10.824 10.824 10.824c0.676 0.676 1.894 0.676 2.571 0z"></path>
</symbol>
<symbol id="icon-eye" viewBox="0 0 32 32">
<title>eye</title>
<path d="M16 6c-8.837 0-16 10-16 10s7.163 10 16 10 16-10 16-10-7.163-10-16-10zM16 22c-3.313 0-6-2.687-6-6s2.687-6 6-6 6 2.687 6 6-2.687 6-6 6zM16 12c-2.209 0-4 1.791-4 4s1.791 4 4 4 4-1.791 4-4-1.791-4-4-4z"></path>
</symbol>
<symbol id="icon-facebook" viewBox="0 0 33 32">
<title>facebook</title>
<path d="M22.155 11.352h-3.983v-2.656c0-0.885 0.443-1.328 0.885-1.328h2.656v-4.426l-3.541-0.443c-4.426 0-5.311 3.541-5.311 5.754v3.098h-2.656v4.869h2.656v13.279h5.311v-13.279h3.541l0.443-4.869z"></path>
</symbol>
<symbol id="icon-twitter" viewBox="0 0 33 32">
<title>twitter</title>
<path d="M26.446 8.727c1.058-0.793 1.851-1.851 2.38-2.909-1.058 0.529-2.116 1.058-3.438 1.322-1.058-1.322-2.38-1.851-3.967-1.851-2.909 0-5.289 2.38-5.289 5.289 0 0.529 0 0.793 0.264 1.322-4.76-0.264-8.727-2.38-11.372-5.554-0.529 0.793-0.793 1.587-0.793 2.645 0 1.851 1.058 3.438 2.38 4.496-0.793 0-1.587-0.264-2.38-0.793 0 0 0 0 0 0 0 2.645 1.851 4.76 4.231 5.289-0.264 0.264-0.793 0.529-1.322 0.529-0.264 0-0.793 0-1.058 0 0.793 2.116 2.645 3.702 5.025 3.702-1.851 1.322-3.967 2.116-6.612 2.116-0.529 0-0.793 0-1.322 0 2.38 1.587 5.289 2.38 8.198 2.38 10.050 0 15.339-8.198 15.339-15.339 0-0.264 0-0.529 0-0.793 1.058-0.793 1.851-1.851 2.645-2.909-0.793 0.529-1.851 0.793-2.909 1.058z"></path>
</symbol>
<symbol id="icon-linkedin" viewBox="0 0 32 32">
<title>linkedin</title>
<path d="M12 9h5.535v2.837h0.079c0.77-1.381 2.655-2.837 5.464-2.837 5.842 0 6.922 3.637 6.922 8.367v9.633h-5.769v-8.54c0-2.037-0.042-4.657-3.001-4.657-3.005 0-3.463 2.218-3.463 4.509v8.688h-5.767v-18z"></path>
<path d="M2 9h6v18h-6v-18z"></path>
<path d="M8 4c0 1.657-1.343 3-3 3s-3-1.343-3-3c0-1.657 1.343-3 3-3s3 1.343 3 3z"></path>
</symbol>
<symbol id="icon-arrow-down-bold" viewBox="0 0 46 32">
<title>arrow-down-bold</title>
<path d="M35.873 2.872l-13.015 12.912-13.015-12.912-5.74 5.694 18.755 18.687 18.755-18.687z"></path>
</symbol>
</defs>
</svg>
