<svg style="position: absolute; width: 0; height: 0; overflow: hidden;" version="1.1" xmlns="http://www.w3.org/2000/svg" xmlns:xlink="http://www.w3.org/1999/xlink">
<defs>
<symbol id="icon-agriculture_circle" viewBox="0 0 32 32">
<title>agriculture_circle</title>
<path d="M16 32c-8.837 0-16-7.163-16-16s7.163-16 16-16c8.837 0 16 7.163 16 16s-7.163 16-16 16zM9.717 17.638c-1.23 0-2.228 0.997-2.228 2.228s0.997 2.228 2.228 2.228 2.228-0.997 2.228-2.228c0-1.23-0.997-2.228-2.228-2.228zM15.53 12.857l-0.451 0.37 0.425 0.488-0.458 0.313-0.204-0.662h-7.353l1.039 3.997h7.358l-0.611-2.571 0.461-0.809 0.608 0.631 0.535-0.407-1.349-1.349zM11.237 17.638l0.915 0.969h4.043l-0.307-0.969h-4.652zM20.173 10.735c0.52 0 0.942-0.422 0.942-0.942s-0.422-0.942-0.942-0.942c-0.52 0-0.942 0.422-0.942 0.942s0.422 0.942 0.942 0.942zM20.962 14.679c0 0 0.34 0.002 0.425-0.609s0-2.495 0-2.495-0.143-0.578-0.552-0.611c-0.539-0.044-0.807 0.080-0.807 0.080s-2.985 1.621-3.215 1.778c-0.23 0.157-0.178 0.662 0 0.815s0.364 0.266 0.662 0.127c0.298-0.139 1.884-0.942 1.884-0.942l0.255 0.977-1.916 0.398c0 0-0.419 0.136-0.528 0.458s-0.764 2.902-0.764 3.055c0 0.153 0.025 0.535 0.331 0.662s0.585-0.331 0.687-0.535c0.102-0.204 0.586-2.648 0.586-2.648l2.953-0.511zM21.387 14.924c-2.038 0-3.689 1.652-3.689 3.689s1.652 3.69 3.689 3.69 3.689-1.652 3.689-3.69c0-2.038-1.652-3.689-3.689-3.689z"></path>
</symbol>
<symbol id="icon-boundaries_circle" viewBox="0 0 32 32">
<title>boundaries_circle</title>
<path d="M23.669 12.305h-1.65v-1.056l-1.255-1.717-1.452 1.783v0.99h-1.65v-1.056l-1.255-1.717-1.452 1.783v0.99h-1.65v-1.056l-1.255-1.717-1.452 1.783v0.99h-1.65v-1.056l-1.255-1.717-1.452 1.783v0.99h-0.792v1.717h0.792v4.622h-0.792v1.717h0.792v1.717h2.708v-1.717h1.65v1.717h2.708v-1.717h1.65v1.717h2.708v-1.717h1.65v1.717h2.708v-1.717h1.65v1.717h2.708v-1.717h0.857v-1.717h-0.857v-4.622h0.857v-1.717h-0.857v-1.056l-1.255-1.717-1.452 1.783v0.99zM23.669 14.021v4.622h-1.65v-4.622h1.65zM8.947 14.021h1.65v4.622h-1.65v-4.622zM19.311 14.021v4.622h-1.65v-4.622h1.65zM14.954 18.643h-1.65v-4.622h1.65v4.622zM16 32c-8.837 0-16-7.163-16-16s7.163-16 16-16c8.837 0 16 7.163 16 16s-7.163 16-16 16z"></path>
</symbol>
<symbol id="icon-climate_circle" viewBox="0 0 32 32">
<title>climate_circle</title>
<path d="M12.726 23.192v0.064h8.894c0.090 0.006 0.182 0.009 0.274 0.009s0.183-0.003 0.274-0.009h0.27v-0.026c2.038-0.266 3.612-2.010 3.612-4.12 0-2.295-1.86-4.155-4.155-4.155-0.29 0-0.573 0.030-0.846 0.086-0.665-1.788-2.387-3.062-4.406-3.062-0.675 0-1.317 0.142-1.897 0.399-0.661-0.816-1.671-1.338-2.802-1.338-1.99 0-3.603 1.613-3.603 3.603 0 1.368 0.763 2.558 1.886 3.168-0.492 0.571-0.789 1.314-0.789 2.126 0 1.799 1.459 3.258 3.258 3.258 0.011 0 0.021-0 0.032-0zM16 32c-8.837 0-16-7.163-16-16s7.163-16 16-16c8.837 0 16 7.163 16 16s-7.163 16-16 16zM11.847 6.809c-0.322 0-0.582 0.261-0.582 0.582v2.716c0 0.322 0.261 0.582 0.582 0.582s0.582-0.261 0.582-0.582v-2.716c0-0.322-0.261-0.582-0.582-0.582zM17.335 9.082c-0.227-0.227-0.596-0.227-0.823 0l-1.921 1.921c-0.227 0.227-0.227 0.596 0 0.823s0.596 0.227 0.823 0l1.921-1.921c0.227-0.227 0.227-0.596 0-0.823zM6.358 20.058c0.227 0.227 0.596 0.227 0.823 0l1.921-1.921c0.227-0.227 0.227-0.596 0-0.823s-0.596-0.227-0.823 0l-1.921 1.921c-0.227 0.227-0.227 0.596 0 0.823zM4.085 14.57c0 0.322 0.261 0.582 0.582 0.582h2.716c0.322 0 0.582-0.261 0.582-0.582s-0.261-0.582-0.582-0.582h-2.716c-0.322 0-0.582 0.261-0.582 0.582zM6.358 9.082c-0.227 0.227-0.227 0.596 0 0.823l1.921 1.921c0.227 0.227 0.596 0.227 0.823 0s0.227-0.596 0-0.823l-1.921-1.921c-0.227-0.227-0.596-0.227-0.823 0z"></path>
</symbol>
<symbol id="icon-forest_circle" viewBox="0 0 32 32">
<title>forest_circle</title>
<path d="M16 32c-8.837 0-16-7.163-16-16s7.163-16 16-16c8.837 0 16 7.163 16 16s-7.163 16-16 16zM24.268 11.868c-0.648-0.159-0.558-0.726-2.166-1.315-1.63-0.59-2.679-0.159-3.238-0.159s-1.295-0.839-2.858-0.862c-2.389 0-3.974 0.816-4.421 1.633 0 0.023-0.022 0.023-0.022 0.045-0.447-0.091-1.161-0.113-1.965 0.181-1.005 0.386-1.273 1.111-1.273 1.111s-1.742 0.454-1.876 1.451c-0.067 0.635 0.447 1.089 1.161 0.907 0.223-0.068 0.447-0.136 0.648-0.249 0.134 0.091 0.313 0.181 0.558 0.249 0.625 0.159 1.809-0.295 1.809-0.295v0c0.357 0.068 0.692 0.068 0.871 0 0.447-0.181 1.764 0.635 1.987 0.771 0.089 0.386 0.29 0.884 0.804 1.179 0.96 0.544 0.781 1.996 1.608 2.767 1.451 1.383 0.447 3.175 0.447 3.175h1.451c0 0 0.201-2.291 0.223-3.334 0-0.703 0.938-1.746 1.25-2.676 0.29-0.884 0.201-1.746 0.826-2.109 0.246 0.091 0.759 0.249 1.139 0.249 0.692 0 0.871-0.227 1.675-0.295 0.514-0.045 0.938-0.386 1.183-0.612 0.893 0.204 1.987 0.363 2.344 0.023 0.648-0.59-1.518-1.678-2.166-1.837zM15.917 13.455c0.201 0.023 0.447 0.045 0.67 0.045 0.067 0.113 0.134 0.227 0.201 0.318-0.089 0.091-0.246 0.227-0.469 0.476-0.335 0.363-0.826 0.34-1.072 0.318 0.067-0.363 0.223-0.794 0.67-1.157zM9.263 14.68c-0.201 0.023-0.536-0.068-0.804-0.159 0.313-0.159 0.603-0.34 0.826-0.544 0.223 0.204 0.558 0.363 0.915 0.476-0.179 0.068-0.603 0.181-0.938 0.227zM10.514 14.295c-0.357-0.023-0.848-0.227-1.139-0.363 0.089-0.068 0.156-0.136 0.223-0.204 0 0 0.893 0.454 1.876 0 0.759 0.249 1.451 0.227 1.987 0.113-0.067 0.272-0.089 0.612-0.022 0.93 0 0 0 0.023 0 0.091-0.179-0.068-0.603-0.272-1.027-0.544-0.558-0.363-1.362 0-1.898-0.023zM13.975 13.66c0.558-0.204 0.893-0.476 0.893-0.476 0.134 0.091 0.335 0.159 0.581 0.204-0.134 0.113-0.268 0.249-0.357 0.386-0.201 0.386-0.424 1.633-0.67 2.132-0.045-0.023-0.089-0.068-0.134-0.091-0.581-0.454-0.424-1.656-0.313-2.155zM17.659 17.606c-0.514 0.499-0.558 1.406-0.558 1.406s-0.558-0.068-1.273-1.134c-0.514-0.748-0.692-1.179-1.027-1.588v0c0 0 0.246-0.794 0.357-1.315h0.246c0.648 0 1.049-0.522 1.161-0.68 0.089-0.091 0.223-0.272 0.335-0.386 0 0 0.022 0 0.022 0 0.402 0.159 1.094 0.748 1.094 1.429 0 0.272 0.246 0.885 0.402 1.225-0.223 0.408-0.514 0.794-0.759 1.043zM19.423 14.295c-0.112 0.136-0.357 0.794-0.469 1.225-0.022 0.136-0.112 0.318-0.223 0.544 0 0-0.134-0.839-0.424-1.429-0.268-0.544-1.027-0.907-1.295-1.111 1.206 0 2.434-0.159 2.434-0.159 0.313 0.068 0.759 0.091 1.206 0.113-0.402 0.204-1.161 0.703-1.228 0.816zM23.107 13.909c-0.38 0.023-2.121 0.476-2.545 0.136 0.29-0.227 0.469-0.454 0.536-0.59 0.893-0.023 1.742-0.091 1.742-0.091s0.38 0.136 0.893 0.249c-0.156 0.136-0.402 0.295-0.625 0.295z"></path>
</symbol>
<symbol id="icon-forest" viewBox="0 0 50 32">
<title>forest</title>
<path d="M44.028 5.959c-1.6-0.386-1.379-1.766-5.352-3.2-4.028-1.434-6.621-0.386-8-0.386s-3.2-2.041-7.062-2.097c-5.903 0-9.821 1.986-10.924 3.972 0 0.055-0.055 0.055-0.055 0.11-1.103-0.221-2.869-0.276-4.855 0.441-2.483 0.938-3.145 2.703-3.145 2.703s-4.303 1.103-4.634 3.531c-0.166 1.545 1.103 2.648 2.869 2.207 0.552-0.166 1.103-0.331 1.6-0.607 0.331 0.221 0.772 0.441 1.379 0.607 1.545 0.386 4.469-0.717 4.469-0.717v0c0.883 0.166 1.71 0.166 2.152 0 1.103-0.441 4.359 1.545 4.91 1.876 0.221 0.938 0.717 2.152 1.986 2.869 2.372 1.324 1.931 4.855 3.972 6.731 3.586 3.366 1.103 7.724 1.103 7.724h3.586c0 0 0.497-5.572 0.552-8.11 0-1.71 2.317-4.248 3.090-6.51 0.717-2.152 0.497-4.248 2.041-5.131 0.607 0.221 1.876 0.607 2.814 0.607 1.71 0 2.152-0.552 4.138-0.717 1.269-0.11 2.317-0.938 2.924-1.49 2.207 0.497 4.91 0.883 5.793 0.055 1.6-1.434-3.752-4.083-5.352-4.469zM23.393 9.821c0.497 0.055 1.103 0.11 1.655 0.11 0.166 0.276 0.331 0.552 0.497 0.772-0.221 0.221-0.607 0.552-1.159 1.159-0.828 0.883-2.041 0.828-2.648 0.772 0.166-0.883 0.552-1.931 1.655-2.814zM6.952 12.8c-0.497 0.055-1.324-0.166-1.986-0.386 0.772-0.386 1.49-0.828 2.041-1.324 0.552 0.497 1.379 0.883 2.262 1.159-0.441 0.166-1.49 0.441-2.317 0.552zM10.041 11.862c-0.883-0.055-2.097-0.552-2.814-0.883 0.221-0.166 0.386-0.331 0.552-0.497 0 0 2.207 1.103 4.634 0 1.876 0.607 3.586 0.552 4.91 0.276-0.166 0.662-0.221 1.49-0.055 2.262 0 0 0 0.055 0 0.221-0.441-0.166-1.49-0.662-2.538-1.324-1.379-0.883-3.366 0-4.69-0.055zM18.593 10.317c1.379-0.497 2.207-1.159 2.207-1.159 0.331 0.221 0.828 0.386 1.434 0.497-0.331 0.276-0.662 0.607-0.883 0.938-0.497 0.938-1.048 3.972-1.655 5.186-0.11-0.055-0.221-0.166-0.331-0.221-1.434-1.103-1.048-4.028-0.772-5.241zM27.697 19.917c-1.269 1.214-1.379 3.421-1.379 3.421s-1.379-0.166-3.145-2.759c-1.269-1.821-1.71-2.869-2.538-3.862v0c0 0 0.607-1.931 0.883-3.2h0.607c1.6 0 2.593-1.269 2.869-1.655 0.221-0.221 0.552-0.662 0.828-0.938 0 0 0.055 0 0.055 0 0.993 0.386 2.703 1.821 2.703 3.476 0 0.662 0.607 2.152 0.993 2.979-0.552 0.993-1.269 1.931-1.876 2.538zM32.055 11.862c-0.276 0.331-0.883 1.931-1.159 2.979-0.055 0.331-0.276 0.772-0.552 1.324 0 0-0.331-2.041-1.048-3.476-0.662-1.324-2.538-2.207-3.2-2.703 2.979 0 6.014-0.386 6.014-0.386 0.772 0.166 1.876 0.221 2.979 0.276-0.993 0.497-2.869 1.71-3.034 1.986zM41.159 10.924c-0.938 0.055-5.241 1.159-6.29 0.331 0.717-0.552 1.159-1.103 1.324-1.434 2.207-0.055 4.303-0.221 4.303-0.221s0.938 0.331 2.207 0.607c-0.386 0.331-0.993 0.717-1.545 0.717z"></path>
</symbol>
<symbol id="icon-infrastructure_circle" viewBox="0 0 32 32">
<title>infrastructure_circle</title>
<path d="M18.031 11.327c2.233-0.759 3.474-1.069 6.452-1.546 3.235-0.518 3.432-0.42 3.432-0.42l-0.444-0.494c0 0-10.691-0.222-14.123 0.987s-5.975 3.457-6.79 6.271c-0.815 2.815-0.222 6.296-0.222 6.296h6.148c0 0-1.827-2.988-1.876-4.568s-0.173-4.79 2.494-6.222c1.042-0.559 2.064-0.945 2.963-1.217v0.226c-1.321 0.542-2.756 1.348-3.556 2.472-1.855 2.609-0.691 5.432-0.518 5.901s1.654 3.407 1.654 3.407h7.358c0 0-4.839-4.741-5.555-6.197-0.372-0.758-0.533-1.749-0.231-2.655h0.716v0.699h-0.741v0.938h3.827v-0.938h-0.741v-0.699h0.363v-0.744h0.012v-0.787h-0.375v-0.67c-0.081 0.025-0.163 0.050-0.246 0.075v-0.117zM18.031 9.934c0.231-0.045 0.433-0.081 0.598-0.111-0.161 0.037-0.364 0.088-0.598 0.152v-0.041zM16 32c-8.837 0-16-7.163-16-16s7.163-16 16-16c8.837 0 16 7.163 16 16s-7.163 16-16 16z"></path>
</symbol>
<symbol id="icon-livestock_circle" viewBox="0 0 32 32">
<title>livestock_circle</title>
<path d="M16 32c-8.837 0-16-7.163-16-16s7.163-16 16-16c8.837 0 16 7.163 16 16s-7.163 16-16 16zM20.414 11.086c-1.587-0.511-1.937-0.484-3.685-0.538s-5.299-0.336-6.133-0.336-0.968 0.201-1.453 0.336c-0.484 0.134-1.748 0.148-2.152 0.531s-0.864 2.562-0.864 3.288c0 0.726 0.488 1.748 0.407 2.34s-0.457 1.829-0.269 1.991 0.242 0.242 0.43 0.242c0.188 0 0.323 0.296 0.43-0.511s0.027-2.421-0.215-3.228c-0.242-0.807-0.296-1.21-0.269-1.614l0.027-0.403c0 0 0.673 1.425 0.78 2.152s0.377 1.91 0.323 2.152c-0.054 0.242-0.43 1.103-0.511 1.237s0.242 0.861 0.242 1.049 0.296 2.394 0.108 2.475c-0.188 0.081 0.188 0.915 0.188 1.076s0.135 0.548 0.699 0.548 1.157 0.124 1.022-0.171c-0.134-0.296-0.323-0.161-0.377-0.404s0 0.161-0.242-0.349c-0.242-0.511-0.673-2.152-0.35-3.066s1.237-2.394 1.399-2.367c0.161 0.027 0.188 0.484 0.269 0.484s0.188-0.538 0.188-0.538c0 0 0.135 0.619 0.269 0.619s0.188-0.619 0.673-0.753c0.484-0.135 1.453 0.43 1.963 0.672s0.861 0.403 1.13 0.188c0.269-0.215 3.030-0.645 3.182-0.35s0.153 2.367 0.341 2.636c0.188 0.269 0.188 2.259 0.296 2.448s-0.054 0.323 0.107 0.457 0.081 0.161 0.457 0.269c0.377 0.108 0.484 0.225 0.968 0.225s1.157 0.044 0.645-0.333c-0.511-0.377-0.726-0.457-0.753-0.888s-0.161-1.883-0.161-1.883 0.403-1.453 0.43-1.856c0.027-0.403 1.264-0.188 2.071-1.076s1.264-1.587 1.91-1.883c0.645-0.296 1.13-0.323 1.372-0.35s0.35 0.054 0.807 0.081c0.457 0.027 0.941 0.027 1.049 0.135s0.188 0.134 0.457 0.134c0.269 0 0.692-0.457 0.817-0.645s0.279-0.403 0-0.538c-0.279-0.135-1.059-0.753-1.086-1.022s0.242-0.484-0.107-0.861-0.592-0.511-0.646-0.753l-0.054-0.242c0 0 0.35-0.242 0.35-0.538s-0.215-0.43-0.215-0.43-0.081 0.565-0.242 0.645c-0.161 0.081-0.78-0.108-0.78-0.108s0.135-0.349 0.027-0.484c-0.107-0.135-0.134-0.269-0.134-0.269s-0.081 0.565-0.296 0.699c-0.215 0.135-0.377 0.377-0.403 0.484s-0.403 0.323-0.592 0.188c-0.188-0.135-0.188-0.296-0.511-0.242s-0.16 0.215-0.565 0.108c-0.104-0.028-1.183-0.35-2.77-0.861z"></path>
</symbol>
<symbol id="icon-population_circle" viewBox="0 0 32 32">
<title>population_circle</title>
<path d="M16 32c-8.837 0-16-7.163-16-16s7.163-16 16-16c8.837 0 16 7.163 16 16s-7.163 16-16 16zM11.016 10.585c-0.932 0-1.688 0.764-1.688 1.706s0.756 1.706 1.688 1.706c0.932 0 1.688-0.764 1.688-1.706s-0.756-1.706-1.688-1.706zM8.090 17.556v4.935h2.853v-5.143c0-0.993 0.344-1.905 0.917-2.622-0.268-0.082-0.551-0.126-0.845-0.126-1.616 0-2.925 1.323-2.925 2.956zM7.464 13.071c-0.643 0-1.164 0.527-1.164 1.176s0.521 1.176 1.164 1.176 1.164-0.527 1.164-1.176c0-0.65-0.521-1.176-1.164-1.176zM5.447 17.878v3.403h1.967v-3.546c0-0.685 0.238-1.313 0.633-1.808-0.185-0.056-0.38-0.087-0.583-0.087-1.114 0-2.017 0.913-2.017 2.038zM20.19 10.585c-0.932 0-1.688 0.764-1.688 1.706s0.756 1.706 1.688 1.706c0.932 0 1.688-0.764 1.688-1.706s-0.756-1.706-1.688-1.706zM23.116 17.556c0-1.633-1.31-2.956-2.925-2.956-0.294 0-0.577 0.045-0.845 0.126 0.573 0.717 0.917 1.628 0.917 2.622v5.143h2.853v-4.935zM23.742 13.071c-0.643 0-1.164 0.527-1.164 1.176s0.521 1.176 1.164 1.176 1.164-0.527 1.164-1.176c0-0.65-0.521-1.176-1.164-1.176zM25.76 17.878c0-1.126-0.903-2.038-2.017-2.038-0.203 0-0.398 0.031-0.583 0.087 0.395 0.495 0.633 1.123 0.633 1.808v3.546h1.967v-3.403zM18.1 9.902c0-1.332-1.069-2.412-2.387-2.412s-2.387 1.080-2.387 2.412c0 1.332 1.069 2.412 2.387 2.412s2.387-1.080 2.387-2.412zM15.712 13.168c-2.285 0-4.137 1.872-4.137 4.18v6.98h8.275v-6.98c0-2.309-1.852-4.18-4.137-4.18z"></path>
</symbol>
<symbol id="icon-poverty_circle" viewBox="0 0 32 32">
<title>poverty_circle</title>
<path d="M16 32c8.837 0 16-7.163 16-16s-7.163-16-16-16c-8.837 0-16 7.163-16 16s7.163 16 16 16zM22.427 17.799c0.749-0.024 1.162-0.121 1.162-0.121s0.056 0.004 0.145 0.080c0.35-0.036 0.536-0.080 0.536-0.080s0.297 0.021 0.609 0.889c0.407 1.134 0.062 2.217 0.062 2.217s0.804 0.344 0.914 0.857c0.077 0.362-0.121 0.968-0.121 0.968s-0.395 0.016-1.044 0.016c-0.035 0-0.069-0.002-0.104-0.004-0.158 0.002-0.352 0.004-0.577 0.004-0.411 0-0.81-0.213-1.049-0.369-0.79 0.255-2.592 0.733-5.347 0.879-0.275 0.015-0.557 0.016-0.842 0.007-3.203 0.111-7.19-1.438-8.403-1.877-0.391 0.109-1.045 0.238-1.367 0.145-0.475 0.067-0.928 0.049-0.867-0.256 0.122-0.606 1.096-1.496 1.096-1.496s0.081-1.779 0.162-2.951c0.081-1.172 3.126-5.134 3.126-5.134 0.205 0.020 0.397 0.067 0.578 0.136 0.066-0.088 0.103-0.136 0.103-0.136 1.259 0.121 2.030 1.294 2.679 1.9s1.981 3.235 6.414 4.083c0.827 0.158 1.546 0.224 2.135 0.242zM14.175 9.574c0 0 1.18-0.006 2.461 1.372 1.29 1.388 3.085 2.741 5.642 2.741s3.166-0.282 3.815 0.040c0.649 0.323 0.141 1.177-1.34 1.652-0.886 0.285-4.018-0.040-4.018-0.040s0.856 0.452 1.502 0.645c1.367 0.408 3.653-0.443 3.653-0.443s0.649 0.403 0.663 0.766c0.013 0.363-0.704 0.484-1.881 0.645s-1.786 0.081-4.749-0.645c-2.963-0.725-5.073-3.103-5.52-3.748s-1.104-1.319-2.679-1.733c-0.555-0.146-1.095-0.366-0.69-0.685 0.483-0.381 1.154-0.732 3.14-0.566z"></path>
</symbol>
<symbol id="icon-tourism_circle2" viewBox="0 0 32 32">
<title>tourism_circle2</title>
<path d="M16 32c-8.837 0-16-7.163-16-16s7.163-16 16-16c8.837 0 16 7.163 16 16s-7.163 16-16 16zM25.095 19.058c0.608 0.028 1.295-0.028 1.454-0.39 0.026-0.167-0.079-0.418-0.132-0.557-0.264-0.473-0.846-1.949-3.304-2.59-2.458-0.613-11.63-2.423-12.053-2.534s-0.634-0.111-1.189-1.225l-1.507-2.84c0 0-0.159-0.418-0.529-0.501l-1.004-0.251c-0.079 0-0.132 0.028-0.132 0.111l0.159 3.62c0 0.084-0.053 0.139-0.132 0.139l-1.031-0.028c-0.053 0-0.106 0.028-0.132 0.111l-0.106 0.473c-0.026 0.084 0 0.167 0.079 0.195l3.648 2.033c0.37 0.195 0.74 0.39 1.137 0.529 0.661 0.251 1.85 0.696 2.062 0.752s1.11 0.306 1.163 0.306c0.053 0 0.053 0.139 0.106 0.139 0.053 0.028 1.295 0.362 1.348 0.362 0.026 0 0.053-0.028 0.079-0.056 0-0.028 0.026-0.028 0.053-0.028l3.013 0.78c0.053 0 0.079 0.028 0.079 0.056 0.026 0.139 0.159 0.473 0.37 0.529l1.48 0.39c0.211 0.056 0.396 0.028 0.555-0.111 0.053-0.056 0.106-0.111 0.132-0.195 0.026-0.028 0.053-0.056 0.106-0.056l2.855 0.64c0.449 0.111 0.925 0.167 1.374 0.195zM7.44 23.149h17.8c0.342 0 0.632-0.312 0.632-0.681s-0.29-0.681-0.632-0.681h-17.8c-0.342 0-0.632 0.312-0.632 0.681s0.29 0.681 0.632 0.681z"></path>
</symbol>
<symbol id="icon-urban_circle" viewBox="0 0 32 32">
<title>urban_circle</title>
<path d="M13.211 21.343v-7.878h-4.397v7.878h-3.060v1.588h21.173v-1.588h-2.586v-6.865h-3.129v6.865h-1.757v-12.492h-5.023v12.492h-1.221zM16 32c-8.837 0-16-7.163-16-16s7.163-16 16-16c8.837 0 16 7.163 16 16s-7.163 16-16 16zM9.547 14.477h0.977v1.519h-0.977v-1.519zM11.501 14.477h0.977v1.519h-0.977v-1.519zM14.894 11.168v-0.977h1.519v0.977h-1.519zM17.337 11.168v-0.977h1.519v0.977h-1.519zM14.894 12.687v-0.977h1.519v0.977h-1.519zM17.337 12.687v-0.977h1.519v0.977h-1.519z"></path>
</symbol>
<symbol id="icon-wildlife_circle" viewBox="0 0 32 32">
<title>wildlife_circle</title>
<path d="M16 32c-8.837 0-16-7.163-16-16s7.163-16 16-16c8.837 0 16 7.163 16 16s-7.163 16-16 16zM6.33 10.684c0 0-0.587 0.271-0.654 0.632s-0.226 0.722-0.271 0.948c-0.045 0.226 0.090 0.745 0.462 0.903 0 0 0.214 0.113 1.117-0.384s0.971-0.023 0.497 0.18-0.847 0.767-0.897 1.016c-0.050 0.248 0.604 0.97 0.897 0.767s0.451-0.722 0.587-0.519c0.135 0.203 0.090 0.338 0.429 0.406s1.038-0.384 1.061-0.677c0.022-0.293 3.611-0.023 4.762 0.248s1.422 0.090 2.708 1.264c1.286 1.174 1.151 1.963 2.46 2.663s1.805 0.587 3.566 2.595c1.76 2.009 1.083 1.941 1.828 2.347s1.218-0.384 0.925-0.925c-0.294-0.542-0.745-0.519-1.038-1.016s-0.677-2.076-1.399-2.618c-0.722-0.542-1.444-1.445-1.67-2.573s-0.451-1.467-0.632-1.602c-0.181-0.136 2.302 0.226 3.611 0.542s2.369 0.564 3.137-0.113c0.767-0.677 0.97-1.061 0.97-1.286s-0.451-0.045-0.88 0.248c-0.429 0.293-0.632 0.79-1.512 0.813s-3.769-0.813-5.416-1.174c-1.647-0.361-1.896-0.271-3.069-0.993s-4.288-3.272-6.612-3.182c-2.325 0.090-3.634 0.903-3.634 0.903s-0.271-0.203-0.429-0.293c-0.158-0.090-0.316 0.023-0.429 0.113s-0.316-0.045-0.451 0.090c-0.135 0.136-0.022 0.677-0.022 0.677z"></path>
</symbol>
<symbol id="icon-print" viewBox="0 0 34 32">
<title>print</title>
<path d="M29.143 8.889h-24c-2.846 0-5.143 2.382-5.143 5.333v10.667h6.857v7.111h20.571v-7.111h6.857v-10.667c0-2.951-2.297-5.333-5.143-5.333zM25.714 30.222h-17.143v-10.667h17.143v10.667zM25.714 5.333h-17.143v-3.556h17.143v3.556zM29.143 16c-0.943 0-1.714-0.8-1.714-1.778s0.771-1.778 1.714-1.778c0.943 0 1.714 0.8 1.714 1.778s-0.771 1.778-1.714 1.778zM27.429 0h-20.571v7.111h20.571v-7.111z"></path>
</symbol>
<symbol id="icon-info" viewBox="0 0 6 32">
<title>info</title>
<path d="M0 4.497h4.713v-4.497h-4.713v4.497zM0 32h4.713v-23.308h-4.713v23.308z"></path>
</symbol>
<symbol id="icon-agriculture" viewBox="0 0 42 32">
<title>agriculture</title>
<path d="M5.254 20.546c2.902 0 5.254 2.352 5.254 5.254s-2.352 5.254-5.254 5.254-5.254-2.352-5.254-5.254c0-2.902 2.352-5.254 5.254-5.254zM5.254 28.412c1.443 0 2.612-1.169 2.612-2.612s-1.169-2.612-2.612-2.612c-1.443 0-2.612 1.169-2.612 2.612s1.169 2.612 2.612 2.612zM32.756 14.335c4.806 0 8.702 3.896 8.702 8.702s-3.896 8.702-8.702 8.702-8.702-3.896-8.702-8.702c0-4.806 3.896-8.702 8.702-8.702zM32.756 26.703c2.025 0 3.666-1.641 3.666-3.666s-1.641-3.666-3.666-3.666c-2.025 0-3.666 1.641-3.666 3.666s1.641 3.666 3.666 3.666zM18.965 9.367l3.183 3.183-1.261 0.961-1.434-1.489-1.088 1.909 1.441 6.065h-17.354l-2.451-9.428h17.343l0.48 1.561 1.080-0.739-1.003-1.15 1.065-0.873zM29.893 4.444c-1.227 0-2.222-0.995-2.222-2.222s0.995-2.222 2.222-2.222c1.227 0 2.222 0.995 2.222 2.222s-0.995 2.222-2.222 2.222zM31.755 13.747l-6.966 1.205c0 0-1.141 5.765-1.381 6.245s-0.901 1.561-1.621 1.261c-0.721-0.3-0.781-1.201-0.781-1.561s1.543-6.445 1.801-7.206c0.258-0.76 1.246-1.081 1.246-1.081l4.518-0.938-0.6-2.305c0 0-3.74 1.894-4.443 2.222s-1.141 0.060-1.561-0.3c-0.421-0.36-0.544-1.551 0-1.922s7.583-4.194 7.583-4.194c0 0 0.632-0.292 1.904-0.19 0.965 0.078 1.302 1.441 1.302 1.441s0.2 4.444 0 5.885c-0.2 1.441-1.001 1.437-1.001 1.437zM8.914 20.545h10.971l0.724 2.286h-9.536l-2.159-2.286z"></path>
</symbol>
<symbol id="icon-boundarie" viewBox="0 0 55 32">
<title>boundarie</title>
<path d="M46.064 7.010v-2.503l3.672-4.506 3.173 4.339v2.67h2.168v4.339h-2.168v11.683h2.168v4.339h-2.168v4.339h-6.845v-4.339h-4.17v4.339h-6.845v-4.339h-4.17v4.339h-6.845v-4.339h-4.17v4.339h-6.845v-4.339h-4.17v4.339h-6.845v-4.339h-2.003v-4.339h2.003v-11.683h-2.003v-4.339h2.003v-2.503l3.672-4.506 3.173 4.339v2.67h4.17v-2.503l3.672-4.506 3.173 4.339v2.67h4.17v-2.503l3.672-4.506 3.173 4.339v2.67h4.17v-2.503l3.672-4.506 3.173 4.339v2.67h4.17zM46.064 11.349h-4.17v11.683h4.17v-11.683zM8.848 11.349v11.683h4.17v-11.683h-4.17zM35.049 11.349h-4.17v11.683h4.17v-11.683zM24.033 23.032v-11.683h-4.17v11.683h4.17z"></path>
</symbol>
<symbol id="icon-climate" viewBox="0 0 42 32">
<title>climate</title>
<path d="M17.501 31.591c-0.020 0-0.039 0-0.059 0-3.341 0-6.050-2.709-6.050-6.050 0-2.862 1.987-5.259 4.656-5.889-0.001-0.054-0.001-0.107-0.001-0.161 0-4.82 3.907-8.727 8.727-8.727 3.751 0 6.949 2.366 8.183 5.687 0.507-0.105 1.032-0.16 1.571-0.16 4.262 0 7.717 3.455 7.717 7.717 0 3.92-2.922 7.157-6.707 7.652v0.049h-0.502c-0.168 0.011-0.337 0.016-0.508 0.016s-0.34-0.006-0.508-0.016h-16.518v-0.118zM11.403 20.429c-2.086-1.133-3.502-3.343-3.502-5.884 0-3.695 2.996-6.691 6.691-6.691 2.102 0 3.978 0.969 5.204 2.486-3.065 1.354-5.204 4.421-5.204 7.987 0 0.054 0.001 0.108 0.001 0.161-1.262 0.298-2.371 0.99-3.19 1.94zM14.414 0c0.597 0 1.081 0.484 1.081 1.081v5.045c0 0.597-0.484 1.081-1.081 1.081v0c-0.597 0-1.081-0.484-1.081-1.081v-5.045c0-0.597 0.484-1.081 1.081-1.081zM24.607 4.222c0.422 0.422 0.422 1.107 0 1.529l-3.567 3.567c-0.422 0.422-1.107 0.422-1.529 0v0 0c-0.422-0.422-0.422-1.107 0-1.529l3.567-3.567c0.422-0.422 1.107-0.422 1.529 0zM4.222 24.607c-0.422-0.422-0.422-1.107 0-1.529l3.567-3.567c0.422-0.422 1.107-0.422 1.529 0s0.422 1.107 0 1.529l-3.567 3.567c-0.422 0.422-1.107 0.422-1.529 0zM0 14.414c0-0.597 0.484-1.081 1.081-1.081h5.045c0.597 0 1.081 0.484 1.081 1.081s-0.484 1.081-1.081 1.081h-5.045c-0.597 0-1.081-0.484-1.081-1.081zM4.222 4.222v0c0.422-0.422 1.107-0.422 1.529 0l3.567 3.567c0.422 0.422 0.422 1.107 0 1.529v0 0c-0.422 0.422-1.107 0.422-1.529 0l-3.567-3.567c-0.422-0.422-0.422-1.107 0-1.529v0z"></path>
</symbol>
<symbol id="icon-infrastructure" viewBox="0 0 52 32">
<title>infrastructure</title>
<path d="M28.019 5.828v0.275c0.195-0.060 0.387-0.12 0.579-0.177v1.578h0.884v1.852h-0.028v1.751h-0.855v1.646h1.743v2.209h-9.008v-2.209h1.743v-1.646h-1.685c-0.711 2.132-0.333 4.465 0.543 6.249 1.685 3.429 13.076 14.587 13.076 14.587h-17.319c0 0-3.487-6.916-3.894-8.020s-3.145-7.749 1.22-13.89c1.882-2.646 5.26-4.544 8.37-5.819v-0.532c-2.116 0.639-4.523 1.548-6.975 2.865-6.277 3.371-5.986 10.926-5.87 14.645s4.417 10.751 4.417 10.751h-14.471c0 0-1.394-8.194 0.523-14.82s7.904-11.914 15.982-14.762c8.078-2.847 33.243-2.324 33.243-2.324l1.046 1.162c0 0-0.465-0.232-8.078 0.988-7.009 1.124-9.93 1.854-15.186 3.64zM28.019 2.548v0.097c0.551-0.151 1.029-0.27 1.407-0.358-0.389 0.070-0.863 0.155-1.407 0.261z"></path>
</symbol>
<symbol id="icon-landcover" viewBox="0 0 39 32">
<title>landcover</title>
<path d="M14.432 0l8.247 11.826h-3.436l6.872 10.435h-4.811l6.881 9.739h-28.185l6.185-9.739h-4.123l6.872-10.435h-3.436l8.934-11.826zM30.406 31.928l-5.898-8.348h4.811l-5.415-8.222 1.672-2.213h0.307l-0.147-0.211 2.781-3.681 5.844 8.38h-2.435l4.87 7.394h-3.409l4.876 6.901h-7.855z"></path>
</symbol>
<symbol id="icon-livestock" viewBox="0 0 52 32">
<title>livestock</title>
<path d="M39.302 3.996c-0.24-0.063-2.727-0.806-6.384-1.983s-4.462-1.115-8.491-1.239c-4.029-0.124-12.21-0.774-14.131-0.774s-2.231 0.464-3.347 0.774c-1.115 0.31-4.028 0.342-4.958 1.224s-1.992 5.903-1.992 7.576c0 1.673 1.124 4.028 0.938 5.392s-1.053 4.215-0.62 4.587 0.558 0.558 0.991 0.558c0.434 0 0.744 0.682 0.991-1.177s0.062-5.578-0.496-7.438c-0.558-1.859-0.681-2.789-0.62-3.718l0.062-0.93c0 0 1.55 3.284 1.797 4.958s0.868 4.4 0.744 4.958c-0.124 0.558-0.991 2.541-1.178 2.851s0.558 1.983 0.558 2.417 0.682 5.516 0.248 5.702c-0.434 0.186 0.434 2.107 0.434 2.479s0.31 1.263 1.612 1.263 2.665 0.286 2.355-0.395c-0.309-0.682-0.743-0.372-0.868-0.93s0 0.372-0.558-0.805c-0.558-1.178-1.55-4.958-0.806-7.066s2.851-5.516 3.223-5.454c0.371 0.062 0.434 1.115 0.62 1.115s0.434-1.24 0.434-1.24c0 0 0.31 1.426 0.62 1.426s0.434-1.426 1.55-1.735c1.116-0.31 3.347 0.991 4.524 1.549s1.983 0.93 2.603 0.434c0.62-0.496 6.981-1.487 7.333-0.806s0.353 5.454 0.786 6.074c0.434 0.62 0.434 5.206 0.682 5.64s-0.124 0.744 0.248 1.054 0.186 0.372 1.054 0.62c0.868 0.248 1.115 0.519 2.231 0.519s2.665 0.101 1.487-0.767c-1.177-0.868-1.673-1.054-1.735-2.045s-0.371-4.338-0.371-4.338 0.93-3.347 0.991-4.276c0.062-0.93 2.913-0.434 4.772-2.479s2.913-3.656 4.4-4.338c1.487-0.681 2.603-0.743 3.161-0.806s0.806 0.124 1.86 0.186c1.053 0.062 2.169 0.062 2.417 0.31s0.434 0.309 1.054 0.309c0.62 0 1.595-1.053 1.882-1.487s0.643-0.93 0-1.24c-0.642-0.31-2.44-1.735-2.502-2.355s0.558-1.116-0.248-1.983-1.364-1.178-1.488-1.735l-0.124-0.558c0 0 0.806-0.558 0.806-1.24s-0.496-0.991-0.496-0.991-0.186 1.301-0.558 1.487c-0.372 0.186-1.797-0.248-1.797-0.248s0.31-0.805 0.062-1.115c-0.248-0.31-0.309-0.62-0.309-0.62s-0.186 1.302-0.682 1.612c-0.496 0.31-0.868 0.868-0.93 1.116s-0.93 0.743-1.363 0.434c-0.434-0.31-0.434-0.682-1.178-0.558s-0.369 0.495-1.301 0.248z"></path>
</symbol>
<symbol id="icon-population" viewBox="0 0 39 32">
<title>population</title>
<path d="M10.579 5.819c1.771 0 3.207 1.436 3.207 3.207s-1.436 3.207-3.207 3.207c-1.771 0-3.207-1.436-3.207-3.207s1.436-3.207 3.207-3.207zM5.022 18.926c0-3.069 2.488-5.557 5.557-5.557 0.558 0 1.096 0.084 1.605 0.238-1.088 1.348-1.742 3.062-1.742 4.929v9.668h-5.42v-9.278zM3.832 10.494c1.221 0 2.211 0.99 2.211 2.211s-0.99 2.212-2.211 2.212-2.211-0.99-2.211-2.212c0-1.221 0.99-2.211 2.211-2.211zM0 19.531c0-2.116 1.716-3.832 3.832-3.832 0.385 0 0.756 0.058 1.107 0.164-0.75 0.93-1.202 2.112-1.202 3.399v6.667h-3.737v-6.398zM28.007 5.819c1.771 0 3.207 1.436 3.207 3.207s-1.436 3.207-3.207 3.207c-1.771 0-3.207-1.436-3.207-3.207s1.436-3.207 3.207-3.207zM33.564 18.926v9.278h-5.42v-9.668c0-1.868-0.654-3.581-1.742-4.929 0.508-0.153 1.047-0.238 1.605-0.238 3.069 0 5.557 2.488 5.557 5.557zM34.754 10.494c1.221 0 2.211 0.99 2.211 2.211s-0.99 2.212-2.211 2.212-2.211-0.99-2.211-2.212c0-1.221 0.99-2.211 2.211-2.211zM38.586 19.531v6.398h-3.737v-6.667c0-1.288-0.451-2.469-1.202-3.399 0.351-0.106 0.722-0.164 1.107-0.164 2.116 0 3.832 1.716 3.832 3.832zM24.036 4.535c0 2.505-2.030 4.535-4.535 4.535s-4.535-2.030-4.535-4.535c0-2.505 2.030-4.535 4.535-4.535s4.535 2.030 4.535 4.535zM19.5 10.676c4.34 0 7.859 3.519 7.859 7.859v13.122h-15.718v-13.122c0-4.34 3.519-7.859 7.859-7.859z"></path>
</symbol>
<symbol id="icon-poverty" viewBox="0 0 48 32">
<title>poverty</title>
<path d="M34.497 18.71c4.068 0.418 6.443-0.141 6.443-0.141s0.258 0.018 0.625 0.494c0.959-0.087 1.473-0.209 1.473-0.209s0.697 0.050 1.428 2.094c0.954 2.67 0.146 5.221 0.146 5.221s1.884 0.809 2.142 2.018c0.181 0.852-0.284 2.28-0.284 2.28s-0.925 0.037-2.448 0.037c-0.474 0-0.942-0.121-1.361-0.288-0.227 0.002-0.473 0.003-0.737 0.003-0.722 0-1.43-0.281-1.974-0.578-1.86 0.601-6.081 1.72-12.52 2.063-2 0.106-4.143-0.077-6.266-0.425-6.071-0.647-12.423-2.98-15.255-4.021-1.115 0.33-3.454 0.803-3.773 0.087-1.146 0.173-2.269 0.147-2.122-0.591 0.285-1.427 2.57-3.522 2.57-3.522s0.19-4.188 0.38-6.948c0.19-2.76 7.329-12.088 7.329-12.088 0.69 0.067 1.317 0.269 1.893 0.557 0.132-0.175 0.206-0.272 0.206-0.272 2.951 0.285 4.759 3.046 6.282 4.473s4.644 7.618 15.038 9.613c0.267 0.051 0.529 0.098 0.786 0.142zM18.232 0.1c0 0 2.766-0.014 5.771 3.24 3.026 3.277 7.234 6.472 13.23 6.472s7.424-0.666 8.947 0.095c1.523 0.762 0.33 2.78-3.141 3.902-2.077 0.672-9.423-0.095-9.423-0.095s2.008 1.068 3.522 1.523c3.206 0.963 8.566-1.047 8.566-1.047s1.523 0.952 1.555 1.808c0.031 0.857-1.65 1.143-4.41 1.523s-4.188 0.19-11.136-1.523c-6.948-1.713-11.897-7.329-12.944-8.851s-2.588-3.116-6.281-4.093c-1.302-0.344-2.567-0.865-1.618-1.618 1.133-0.899 2.705-1.729 7.364-1.337z"></path>
</symbol>
<symbol id="icon-urban" viewBox="0 0 48 32">
<title>urban</title>
<path d="M16.571 28.127h2.857v-28.127h11.751v28.127h4.11v-15.429h7.319v15.429h5.177v3.714h-47.785v-3.714h6.286v-17.714h10.286v17.714zM8 12.698v3.429h2.286v-3.429h-2.286zM12.571 12.698v3.429h2.286v-3.429h-2.286zM20.571 5.27h3.429v-2.286h-3.429v2.286zM26.286 5.27h3.429v-2.286h-3.429v2.286zM20.571 8.698h3.429v-2.286h-3.429v2.286zM26.286 8.698h3.429v-2.286h-3.429v2.286z"></path>
</symbol>
<symbol id="icon-wildlife" viewBox="0 0 53 32">
<title>wildlife</title>
<path d="M2.118 3.385c0 0-1.331 0.614-1.485 1.434s-0.512 1.639-0.614 2.151c-0.102 0.512 0.204 1.69 1.049 2.048 0 0 0.486 0.256 2.534-0.87s2.202-0.052 1.127 0.409-1.921 1.741-2.036 2.304c-0.114 0.563 1.37 2.202 2.036 1.741s1.024-1.639 1.331-1.178c0.307 0.461 0.204 0.768 0.973 0.921s2.355-0.87 2.406-1.536c0.051-0.666 8.192-0.052 10.804 0.563s3.225 0.205 6.144 2.867c2.918 2.662 2.611 4.455 5.581 6.042s4.096 1.331 8.090 5.888c3.994 4.557 2.457 4.404 4.148 5.325s2.764-0.87 2.099-2.099c-0.666-1.229-1.69-1.178-2.356-2.304s-1.536-4.71-3.174-5.939c-1.639-1.229-3.277-3.277-3.789-5.837s-1.024-3.328-1.434-3.635c-0.41-0.307 5.222 0.512 8.192 1.229s5.376 1.28 7.117-0.256c1.741-1.536 2.202-2.406 2.202-2.918s-1.024-0.102-1.997 0.563c-0.973 0.666-1.433 1.792-3.43 1.844s-8.551-1.844-12.288-2.662c-3.738-0.819-4.301-0.615-6.964-2.253s-9.728-7.424-15.002-7.22c-5.274 0.205-8.244 2.048-8.244 2.048s-0.614-0.461-0.973-0.666c-0.358-0.204-0.717 0.052-0.973 0.256s-0.717-0.102-1.024 0.204c-0.307 0.307-0.051 1.536-0.051 1.536z"></path>
</symbol>
<symbol id="icon-arrow-left2" viewBox="0 0 32 32">
<title>arrow-left2</title>
<path d="M14.918 26.824v0c0.676-0.676 0.676-1.894 0-2.571l-6.494-6.494h20.159c0.947 0 1.759-0.812 1.759-1.759v0c0-0.947-0.812-1.759-1.759-1.759h-20.159l6.494-6.494c0.676-0.676 0.676-1.894 0-2.571v0c-0.676-0.676-1.894-0.676-2.571 0l-10.824 10.824 10.824 10.824c0.676 0.676 1.894 0.676 2.571 0z"></path>
</symbol>
<symbol id="icon-check" viewBox="0 0 32 32">
<title>check</title>
<path d="M28 6.667q0.573 0 0.953 0.38t0.38 0.953q0 0.563-0.385 0.948l-16 16q-0.385 0.385-0.948 0.385t-0.948-0.385l-8-8q-0.385-0.385-0.385-0.948 0-0.573 0.38-0.953t0.953-0.38q0.563 0 0.948 0.385l7.052 7.063 15.052-15.063q0.385-0.385 0.948-0.385z"></path>
</symbol>
<symbol id="icon-collapse" viewBox="0 0 58 32">
<title>collapse</title>
<path d="M22.596 30.347v-28.622h2.987v28.622h-2.987z"></path>
<path d="M32 30.756v-28.622h2.987v28.622h-2.987z"></path>
<path d="M1.414 18.039h14.611l-5.013 4.966 1.705 1.677 7.907-7.831-7.907-7.831-1.693 1.677 5.001 4.966h-14.611v2.378zM56.659 18.032v-2.378h-14.611l5.001-4.966-1.693-1.677-7.907 7.831 7.907 7.831 1.705-1.677-5.013-4.966h14.611z"></path>
</symbol>
<symbol id="icon-cross" viewBox="0 0 32 32">
<title>cross</title>
<path d="M25.333 5.333q0.573 0 0.953 0.38t0.38 0.953q0 0.563-0.385 0.948l-8.396 8.385 8.396 8.385q0.385 0.385 0.385 0.948 0 0.573-0.38 0.953t-0.953 0.38q-0.563 0-0.948-0.385l-8.385-8.396-8.385 8.396q-0.385 0.385-0.948 0.385-0.573 0-0.953-0.38t-0.38-0.953q0-0.563 0.385-0.948l8.396-8.385-8.396-8.385q-0.385-0.385-0.385-0.948 0-0.573 0.38-0.953t0.953-0.38q0.563 0 0.948 0.385l8.385 8.396 8.385-8.396q0.385-0.385 0.948-0.385z"></path>
</symbol>
<symbol id="icon-download" viewBox="0 0 26 32">
<title>download</title>
<path d="M1.12 28.32h24v2.56h-24v-2.56z"></path>
<path d="M11.531 0v18.255l-6.204-6.264-2.095 2.13 9.785 9.879 9.785-9.879-2.095-2.115-6.204 6.249v-18.255z"></path>
</symbol>
<symbol id="icon-drag" viewBox="0 0 32 32">
<title>drag</title>
<path d="M16.796 17.616v10.398l4.138-4.178 1.397 1.421-6.526 6.589-6.526-6.589 1.397-1.411 4.138 4.168v-10.398h1.982zM16.79 14.262h-1.982v-10.398l-4.138 4.168-1.397-1.411 6.526-6.589 6.526 6.589-1.397 1.421-4.138-4.178v10.398zM14.125 16.933h-10.398l4.178 4.138-1.421 1.397-6.589-6.526 6.589-6.526 1.411 1.397-4.168 4.138h10.398v1.982zM17.48 16.927v-1.982h10.398l-4.168-4.138 1.411-1.397 6.589 6.526-6.589 6.526-1.421-1.397 4.178-4.138h-10.398z"></path>
</symbol>
<symbol id="icon-enlarge" viewBox="0 0 32 32">
<title>enlarge</title>
<path d="M16.511 16.227l0.005 0.005-10.687 10.687 7.299-0.035-0.021 2.473-11.511 0.055 0.055-11.511 2.465-0.012-0.026 7.29 21.192-21.203-7.29 0.026 0.012-2.465 11.511-0.055-0.055 11.511-2.473 0.021 0.035-7.299-10.511 10.511z"></path>
</symbol>
<symbol id="icon-expand" viewBox="0 0 45 32">
<title>expand</title>
<path d="M0 32v-32h3.2v32h-3.2z"></path>
<path d="M41.6 32v-32h3.2v32h-3.2z"></path>
<path d="M27.022 15.548v-0.11h-16.369l5.603-5.456-1.896-1.842-8.858 8.604 8.858 8.604 1.91-1.842-5.617-5.456h8.725v0.11h16.369l-5.617 5.456 1.91 1.842 8.858-8.604-8.858-8.604-1.896 1.842 5.603 5.456h-8.725z"></path>
</symbol>
<symbol id="icon-eye" viewBox="0 0 32 32">
<title>eye</title>
<path d="M16 6c-8.837 0-16 10-16 10s7.163 10 16 10 16-10 16-10-7.163-10-16-10zM16 22c-3.313 0-6-2.687-6-6s2.687-6 6-6 6 2.687 6 6-2.687 6-6 6zM16 12c-2.209 0-4 1.791-4 4s1.791 4 4 4 4-1.791 4-4-1.791-4-4-4z"></path>
</symbol>
<symbol id="icon-facebook" viewBox="0 0 33 32">
<title>facebook</title>
<path d="M22.155 11.352h-3.983v-2.656c0-0.885 0.443-1.328 0.885-1.328h2.656v-4.426l-3.541-0.443c-4.426 0-5.311 3.541-5.311 5.754v3.098h-2.656v4.869h2.656v13.279h5.311v-13.279h3.541l0.443-4.869z"></path>
</symbol>
<symbol id="icon-grid" viewBox="0 0 32 32">
<title>grid</title>
<path d="M0.5 0.5h6.889v6.889h-6.889v-6.889z"></path>
<path d="M12.556 0.5h6.889v6.889h-6.889v-6.889z"></path>
<path d="M24.611 0.5h6.889v6.889h-6.889v-6.889z"></path>
<path d="M0.5 12.556h6.889v6.889h-6.889v-6.889z"></path>
<path d="M12.556 12.556h6.889v6.889h-6.889v-6.889z"></path>
<path d="M24.611 12.556h6.889v6.889h-6.889v-6.889z"></path>
<path d="M0.5 24.611h6.889v6.889h-6.889v-6.889z"></path>
<path d="M12.556 24.611h6.889v6.889h-6.889v-6.889z"></path>
<path d="M24.611 24.611h6.889v6.889h-6.889v-6.889z"></path>
</symbol>
<symbol id="icon-linkedin" viewBox="0 0 32 32">
<title>linkedin</title>
<path d="M12 9h5.535v2.837h0.079c0.77-1.381 2.655-2.837 5.464-2.837 5.842 0 6.922 3.637 6.922 8.367v9.633h-5.769v-8.54c0-2.037-0.042-4.657-3.001-4.657-3.005 0-3.463 2.218-3.463 4.509v8.688h-5.767v-18z"></path>
<path d="M2 9h6v18h-6v-18z"></path>
<path d="M8 4c0 1.657-1.343 3-3 3s-3-1.343-3-3c0-1.657 1.343-3 3-3s3 1.343 3 3z"></path>
</symbol>
<symbol id="icon-list" viewBox="0 0 34 32">
<title>list</title>
<path d="M0 0h7.112v7.112h-7.112v-7.112z"></path>
<path d="M0 12.444h7.112v7.112h-7.112v-7.112z"></path>
<path d="M0 24.889h7.112v7.112h-7.112v-7.112z"></path>
<path d="M12.444 0h20.596v7.112h-20.596v-7.112z"></path>
<path d="M12.444 12.444h20.596v7.112h-20.596v-7.112z"></path>
<path d="M12.444 24.889h20.596v7.112h-20.596v-7.112z"></path>
</symbol>
<symbol id="icon-location" viewBox="0 0 30 32">
<title>location</title>
<path d="M16.705 4.501c4.392 0.763 7.857 4.228 8.62 8.62h4.428v3.657h-4.428c-0.763 4.392-4.228 7.857-8.62 8.62v4.501h-3.657v-4.501c-4.392-0.763-7.857-4.228-8.62-8.62h-4.428v-3.657h4.428c0.763-4.392 4.228-7.857 8.62-8.62v-4.501h3.657v4.501zM14.877 22.629c4.242 0 7.68-3.438 7.68-7.68s-3.438-7.68-7.68-7.68c-4.242 0-7.68 3.438-7.68 7.68s3.438 7.68 7.68 7.68z"></path>
</symbol>
<symbol id="icon-menu" viewBox="0 0 45 32">
<title>menu</title>
<path d="M3.851 2.75h37.1v5.3h-37.1v-5.3z"></path>
<path d="M3.851 13.35h37.1v5.3h-37.1v-5.3z"></path>
<path d="M3.851 23.95h37.1v5.3h-37.1v-5.3z"></path>
</symbol>
<symbol id="icon-minus" viewBox="0 0 32 32">
<title>minus</title>
<path d="M4 14.667h24q0.552 0 0.943 0.391t0.391 0.943-0.391 0.943-0.943 0.391h-24q-0.552 0-0.943-0.391t-0.391-0.943 0.391-0.943 0.943-0.391z"></path>
</symbol>
<symbol id="icon-retract" viewBox="0 0 30 32">
<title>retract</title>
<path d="M29.237 2.425l-1.577-1.577-9.686 9.686 0.024-6.607-2.234 0.011-0.050 10.433 10.433-0.050 0.019-2.242-6.615 0.032 9.686-9.686zM1.675 31.050l9.686-9.686-0.032 6.615 2.242-0.019 0.050-10.433-10.433 0.050-0.011 2.234 6.607-0.024-9.686 9.686 1.577 1.577z"></path>
</symbol>
<symbol id="icon-search" viewBox="0 0 32 32">
<title>search</title>
<path d="M25.064 22.047l6.311 6.311-3.017 3.017-6.311-6.311c-2.293 1.678-5.121 2.669-8.181 2.669-7.658 0-13.867-6.208-13.867-13.867s6.208-13.867 13.867-13.867c7.658 0 13.867 6.208 13.867 13.867 0 3.059-0.991 5.887-2.669 8.181v0zM13.867 23.467c5.302 0 9.6-4.298 9.6-9.6s-4.298-9.6-9.6-9.6c-5.302 0-9.6 4.298-9.6 9.6s4.298 9.6 9.6 9.6z"></path>
</symbol>
<symbol id="icon-share" viewBox="0 0 32 32">
<title>share</title>
<path d="M17.254 18.877v6.491l10.622-10.622-10.622-10.622v6.491c-4.721 0.147-13.278 2.213-13.278 13.278v3.836l1.918-3.246c2.508-4.131 5.016-5.459 11.36-5.606z"></path>
</symbol>
<symbol id="icon-twitter" viewBox="0 0 33 32">
<title>twitter</title>
<path d="M26.446 8.727c1.058-0.793 1.851-1.851 2.38-2.909-1.058 0.529-2.116 1.058-3.438 1.322-1.058-1.322-2.38-1.851-3.967-1.851-2.909 0-5.289 2.38-5.289 5.289 0 0.529 0 0.793 0.264 1.322-4.76-0.264-8.727-2.38-11.372-5.554-0.529 0.793-0.793 1.587-0.793 2.645 0 1.851 1.058 3.438 2.38 4.496-0.793 0-1.587-0.264-2.38-0.793 0 0 0 0 0 0 0 2.645 1.851 4.76 4.231 5.289-0.264 0.264-0.793 0.529-1.322 0.529-0.264 0-0.793 0-1.058 0 0.793 2.116 2.645 3.702 5.025 3.702-1.851 1.322-3.967 2.116-6.612 2.116-0.529 0-0.793 0-1.322 0 2.38 1.587 5.289 2.38 8.198 2.38 10.050 0 15.339-8.198 15.339-15.339 0-0.264 0-0.529 0-0.793 1.058-0.793 1.851-1.851 2.645-2.909-0.793 0.529-1.851 0.793-2.909 1.058z"></path>
</symbol>
<symbol id="icon-user" viewBox="0 0 30 32">
<title>user</title>
<path d="M14.933 0c4.706 0 8.533 3.686 8.533 8.219v2.055c0 4.533-3.827 8.219-8.533 8.219s-8.533-3.686-8.533-8.219v-2.055c0-4.533 3.827-8.219 8.533-8.219zM23.543 18.492c3.757 1.179 6.323 3.873 6.323 7.344v6.164h-29.867v-6.164c0-3.47 2.566-6.164 6.323-7.344 2.276 2.001 5.293 3.234 8.61 3.234s6.334-1.233 8.61-3.234z"></path>
</symbol>
<symbol id="icon-plus-bold" viewBox="0 0 32 32">
<title>plus-bold</title>
<path d="M18.133 13.867v-13.867h-4.267v13.867h-13.867v4.267h13.867v13.867h4.267v-13.867h13.867v-4.267h-13.867z"></path>
</symbol>
<symbol id="icon-hide-eye" viewBox="0 0 32 32">
<title>hide-eye</title>
<path d="M32 16c-3.065-4.967-9.078-10-16-10-6.905 0-12.935 5.033-16 10 3.065 4.967 9.095 10 16 10 6.922 0 12.935-5.033 16-10v0zM19.583 10.217l-1.843 2.178c-0.514-0.328-1.107-0.515-1.74-0.515-1.985 0-3.58 1.84-3.58 4.12 0 0.767 0.18 1.484 0.495 2.098l-2.013 2.38c-1.035-1.198-1.662-2.764-1.662-4.477 0-3.767 3.031-6.82 6.76-6.82 1.315 0 2.544 0.38 3.583 1.037zM21.098 11.523c1.035 1.198 1.662 2.764 1.662 4.477 0 3.767-3.031 6.82-6.76 6.82-1.315 0-2.544-0.38-3.583-1.037l1.843-2.178c0.514 0.328 1.107 0.515 1.74 0.515 1.985 0 3.58-1.84 3.58-4.12 0-0.767-0.18-1.484-0.495-2.098l2.013-2.38z"></path>
<path d="M26.883 1.591l-23.292 27.527 1.527 1.292 23.292-27.527z"></path>
</symbol>
<symbol id="icon-arrow-down" viewBox="0 0 46 32">
<title>arrow-down</title>
<path d="M38.719 0l-15.862 15.737-15.862-15.737-6.995 6.94 22.857 22.774 22.857-22.774z"></path>
</symbol>
<symbol id="icon-arrow-left" viewBox="0 0 22 32">
<title>arrow-left</title>
<path d="M20.8 27.103l-11.016-11.103 11.016-11.103-4.858-4.897-15.942 16 15.942 16z"></path>
</symbol>
<symbol id="icon-arrow-right" viewBox="0 0 22 32">
<title>arrow-right</title>
<path d="M0 27.103l11.016-11.103-11.016-11.103 4.858-4.897 15.942 16-15.942 16z"></path>
</symbol>
<symbol id="icon-arrow-up" viewBox="0 0 46 32">
<title>arrow-up</title>
<path d="M38.719 29.714l-15.862-15.737-15.862 15.737-6.995-6.94 22.857-22.774 22.857 22.774z"></path>
</symbol>
<symbol id="icon-ascendent" viewBox="0 0 51 32">
<title>ascendent</title>
<path d="M45.839 3.845l-5.804-1.562 0.612-2.283 9.714 2.603-2.603 9.714-2.283-0.612 1.549-5.808-45.246 26.123-1.185-2.053 45.246-26.123z"></path>
</symbol>
<symbol id="icon-descendent" viewBox="0 0 49 32">
<title>descendent</title>
<path d="M44.62 27.371l-5.597 1.506 0.59 2.201 9.367-2.51-2.51-9.367-2.201 0.59 1.494 5.6-43.63-25.19-1.143 1.979 43.63 25.19z"></path>
</symbol>
<symbol id="icon-arrow-down2" viewBox="0 0 27 32">
<title>arrow-down2</title>
<path d="M16 22.718l8.206-8.188 3.223 3.223-13.714 13.714-13.714-13.714 3.223-3.223 8.206 8.188v-22.718h4.571v22.718z"></path>
</symbol>
<symbol id="icon-arrow-right2" viewBox="0 0 34 32">
<title>arrow-right2</title>
<path d="M24.752 14.482l-8.818-8.837 3.471-3.471 14.769 14.769-14.769 14.769-3.471-3.471 8.818-8.837h-24.466v-4.923h24.466z"></path>
</symbol>
<symbol id="icon-intermediate" viewBox="0 0 121 32">
<title>intermediate</title>
<path d="M110.456 12.735l-8.818-8.837 3.471-3.471 14.769 14.769-14.769 14.769-3.471-3.471 8.818-8.837h-108.51v-4.923h108.51z"></path>
</symbol>
<symbol id="icon-remove" viewBox="0 0 32 32">
<title>remove</title>
<path d="M7.783 27.255l-0.031-18.231h-2.419v-1.49h6.814v-2.79c0-0.411 0.312-0.745 0.696-0.745h5.979c0.384 0 0.696 0.333 0.696 0.745v2.79h6.814v1.49h-2.419l-0.031 18.231c0 0.411-0.312 0.745-0.696 0.745h-14.708c-0.384 0-0.696-0.334-0.696-0.745zM13.54 5.49v2.045h4.587v-2.045h-4.587zM11.5 13v11.667h2.833v-11.667h-2.833zM17.333 13v11.667h2.833v-11.667h-2.833z"></path>
</symbol>
<symbol id="icon-arrow-up2" viewBox="0 0 27 32">
<title>arrow-up2</title>
<path d="M16 8.749l8.206 8.188 3.223-3.223-13.714-13.714-13.714 13.714 3.223 3.223 8.206-8.188v22.718h4.571v-22.718z"></path>
</symbol>
<symbol id="icon-plus" viewBox="0 0 32 32">
<title>plus</title>
<path d="M16 2.667q0.552 0 0.943 0.391t0.391 0.943v10.667h10.667q0.552 0 0.943 0.391t0.391 0.943-0.391 0.943-0.943 0.391h-10.667v10.667q0 0.552-0.391 0.943t-0.943 0.391-0.943-0.391-0.391-0.943v-10.667h-10.667q-0.552 0-0.943-0.391t-0.391-0.943 0.391-0.943 0.943-0.391h10.667v-10.667q0-0.552 0.391-0.943t0.943-0.391z"></path>
</symbol>
<symbol id="icon-water-(1)" viewBox="0 0 30 32">
<title>water-(1)</title>
<path d="M5.606 22.467c0.873 0.8 3.491 3.433 3.491 5.7 0 2.667-1.947 3.7-3.759 3.7s-3.759-1.033-3.759-3.7c0-2.233 2.652-4.9 3.491-5.7 0.168-0.133 0.403-0.133 0.537 0zM5.438 30.7c0.235 0 0.47-0.2 0.47-0.467s-0.201-0.467-0.47-0.467c-0.839 0-1.712-0.567-1.712-1.833 0-0.267-0.201-0.467-0.47-0.467s-0.47 0.2-0.47 0.467c0 1.8 1.343 2.767 2.652 2.767z"></path>
<path d="M28.464 7.933h-4.666c-0.738-1.1-1.88-1.933-3.189-2.3v-2.267h1.947c0.873 0 1.611-0.733 1.611-1.6s-0.738-1.6-1.611-1.6h-7.116c-0.873 0-1.611 0.733-1.611 1.6s0.738 1.6 1.611 1.6h1.947v2.267c-1.309 0.367-2.45 1.2-3.189 2.3h-0.94c-5.606 0-10.238 4.133-11.010 9.467h-1.175c-0.503 0-0.906 0.4-0.906 0.9v1.433c0 0.5 0.403 0.9 0.906 0.9h8.559c0.504 0 0.906-0.4 0.906-0.9v-1.433c0-0.5-0.403-0.9-0.906-0.9h-0.772c0.638-1.767 2.316-3 4.296-3.033h1.007c1.041 1.533 2.82 2.533 4.8 2.533s3.759-1 4.8-2.533h4.666c0.503 0 0.906-0.4 0.906-0.9v-4.633c0.034-0.5-0.369-0.9-0.873-0.9z"></path>
</symbol>
<symbol id="icon-water_circle" viewBox="0 0 32 32">
<title>water_circle</title>
<path d="M16 32c-8.837 0-16-7.163-16-16s7.163-16 16-16c8.837 0 16 7.163 16 16s-7.163 16-16 16zM11.271 19.918c-0.074-0.074-0.204-0.074-0.297 0-0.464 0.443-1.931 1.918-1.931 3.153 0 1.475 1.077 2.047 2.080 2.047s2.080-0.572 2.080-2.047c0-1.254-1.448-2.711-1.931-3.153zM11.178 24.472c-0.724 0-1.467-0.535-1.467-1.53 0-0.148 0.111-0.258 0.26-0.258s0.26 0.111 0.26 0.258c0 0.701 0.483 1.014 0.947 1.014 0.149 0 0.26 0.111 0.26 0.258s-0.13 0.258-0.26 0.258zM23.916 11.878h-2.581c-0.409-0.608-1.040-1.069-1.764-1.272v-1.254h1.077c0.483 0 0.891-0.406 0.891-0.885s-0.409-0.885-0.891-0.885h-3.937c-0.483 0-0.891 0.406-0.891 0.885s0.408 0.885 0.891 0.885h1.077v1.254c-0.724 0.203-1.355 0.664-1.764 1.272h-0.52c-3.101 0-5.663 2.287-6.091 5.237h-0.65c-0.279 0-0.501 0.221-0.501 0.498v0.793c0 0.277 0.223 0.498 0.501 0.498h4.735c0.279 0 0.501-0.221 0.501-0.498v-0.793c0-0.277-0.223-0.498-0.501-0.498h-0.427c0.353-0.977 1.281-1.66 2.377-1.678h0.557c0.576 0.848 1.56 1.401 2.655 1.401s2.080-0.553 2.655-1.401h2.581c0.279 0 0.501-0.221 0.501-0.498v-2.563c0.019-0.277-0.204-0.498-0.483-0.498z"></path>
</symbol>
<symbol id="icon-conservancies_circle" viewBox="0 0 32 32">
<title>conservancies_circle</title>
<path d="M16 32c-8.837 0-16-7.163-16-16s7.163-16 16-16c8.837 0 16 7.163 16 16s-7.163 16-16 16zM4.766 15.028v4.169h6.21c0 0 5.046 3.784 5.32 4.004s0.823 0.439 1.536 0.384c0.713-0.055 6.527 0 7.020 0s1.71 0.069 1.7-1.097c-0.008-0.934-0.063-1.425-1.667-1.426-1.511-0.001-4.064-0.003-4.064-0.003s-0.412 1.319-1.399 1.429c-0.987 0.11-1.459-0.321-1.897-0.76-0.131-0.131-1.423-1.414-1.688-1.669-0.454-0.437 0.195-0.876 0.513-0.546 0.803 0.832 1.949 1.978 1.949 1.978s0.655 0.494 1.376-0.021c0.721-0.515 0.464-1.236 0.155-1.545s-4.101-4.146-4.481-4.429c-0.628-0.468-1.13-0.473-1.957-0.468-0.436 0.002-8.626 0-8.626 0zM23.673 11.681c-0.418 0.409-0.652 0.94-0.704 1.592-0.017 0.207-0.003 0.586 0.044 1.135 0.122-0.128 0.238-0.244 0.348-0.347 0.464-0.421 0.989-0.757 1.574-1.007 0.36-0.141 0.681-0.266 0.965-0.375 0.122-0.049 0.241-0.094 0.357-0.137-0.006 0.006-0.012 0.009-0.017 0.009-0.070 0.067-0.151 0.14-0.244 0.219-0.238 0.189-0.563 0.4-0.974 0.631-0.597 0.348-1.052 0.674-1.365 0.98-0.232 0.226-0.421 0.436-0.565 0.631-0.023 0.018-0.041 0.043-0.052 0.073l-0.009 0.009c-0.023 0.019-0.041 0.040-0.052 0.064-0.017 0.018-0.038 0.040-0.061 0.064-0.139 0.219-0.267 0.46-0.383 0.723-0.023 0.061-0.026 0.119-0.009 0.174 0.029 0.055 0.069 0.098 0.122 0.128 0.052 0.024 0.104 0.028 0.157 0.009 0.052-0.025 0.096-0.064 0.13-0.119 0.104-0.256 0.226-0.479 0.365-0.668 0.017-0.018 0.026-0.030 0.026-0.036l0.009-0.009c0.939 0.488 1.774 0.662 2.505 0.522 0.696-0.14 1.348-0.509 1.957-1.107 0.701-0.677 1.154-1.547 1.357-2.608 0.22-1.092 0.148-2.184-0.217-3.276-0.058 0.098-0.142 0.226-0.252 0.384-0.203 0.281-0.365 0.482-0.487 0.604-0.481 0.47-1.273 0.793-2.374 0.97-0.568 0.098-0.957 0.177-1.165 0.238-0.412 0.122-0.739 0.299-0.983 0.531zM21.508 14.042c0.052-0.683 0.061-1.156 0.026-1.419-0.087-0.793-0.4-1.44-0.939-1.94-0.301-0.281-0.707-0.491-1.218-0.631-0.261-0.067-0.751-0.147-1.47-0.238-1.369-0.189-2.36-0.564-2.974-1.126-0.162-0.146-0.371-0.387-0.626-0.723-0.145-0.201-0.253-0.36-0.322-0.476-0.423 1.373-0.481 2.73-0.174 4.073 0.296 1.312 0.884 2.376 1.765 3.194 0.783 0.72 1.612 1.153 2.487 1.3 0.899 0.165 1.931-0.082 3.096-0.741l0.009 0.009c0 0.006 0.011 0.021 0.035 0.046 0.174 0.238 0.336 0.506 0.487 0.805 0.029 0.073 0.078 0.125 0.148 0.156 0.064 0.018 0.128 0.012 0.191-0.018 0.070-0.036 0.119-0.092 0.148-0.165 0.023-0.073 0.020-0.14-0.009-0.201-0.157-0.329-0.33-0.625-0.522-0.888-0.012-0.036-0.029-0.064-0.052-0.082-0.023-0.031-0.046-0.058-0.069-0.083-0.006-0.006-0.012-0.009-0.018-0.009-0.023-0.037-0.044-0.067-0.061-0.092-0.197-0.232-0.441-0.485-0.73-0.76-0.4-0.36-0.974-0.748-1.722-1.162-0.516-0.281-0.928-0.534-1.235-0.76-0.122-0.092-0.226-0.177-0.313-0.256-0.006 0-0.012-0.003-0.017-0.009 0.139 0.043 0.284 0.095 0.435 0.156 0.371 0.122 0.78 0.262 1.226 0.421 0.736 0.299 1.394 0.696 1.974 1.19 0.15 0.135 0.299 0.278 0.443 0.43z"></path>
</symbol>
<symbol id="icon-conservancies" viewBox="0 0 48 32">
<title>conservancies</title>
<path d="M0 14.762v8.163h12.162c0 0 9.882 7.411 10.419 7.841s1.611 0.859 3.008 0.752c1.396-0.108 12.782 0 13.748 0s3.35 0.135 3.33-2.149c-0.016-1.829-0.123-2.79-3.265-2.792-2.958-0.003-7.958-0.006-7.958-0.006s-0.807 2.584-2.741 2.798c-1.934 0.215-2.857-0.628-3.716-1.487-0.256-0.256-2.787-2.769-3.305-3.268-0.888-0.856 0.381-1.715 1.005-1.069 1.572 1.63 3.816 3.874 3.816 3.874s1.283 0.967 2.694-0.041c1.412-1.009 0.908-2.421 0.303-3.026s-8.031-8.12-8.775-8.674c-1.23-0.917-2.214-0.925-3.832-0.917-0.854 0.004-16.893 0-16.893 0z"></path>
<path d="M37.027 8.209c0.477-0.455 1.118-0.801 1.925-1.040 0.408-0.12 1.169-0.275 2.282-0.466 2.158-0.347 3.707-0.979 4.65-1.899 0.238-0.239 0.556-0.634 0.953-1.183 0.216-0.311 0.38-0.561 0.494-0.753 0.715 2.139 0.857 4.278 0.426 6.416-0.398 2.079-1.283 3.781-2.657 5.108-1.192 1.171-2.47 1.894-3.832 2.168-1.43 0.275-3.066-0.066-4.905-1.022l-0.017 0.018c0 0.012-0.017 0.036-0.051 0.071-0.273 0.37-0.511 0.807-0.715 1.308-0.068 0.107-0.154 0.185-0.255 0.233-0.103 0.036-0.204 0.029-0.307-0.018-0.103-0.059-0.182-0.143-0.238-0.251-0.035-0.108-0.029-0.221 0.017-0.341 0.227-0.514 0.477-0.986 0.75-1.416 0.045-0.048 0.085-0.090 0.119-0.125 0.022-0.048 0.057-0.090 0.102-0.126l0.017-0.018c0.022-0.059 0.057-0.108 0.103-0.143 0.283-0.382 0.653-0.795 1.107-1.236 0.613-0.598 1.504-1.237 2.674-1.918 0.806-0.454 1.442-0.866 1.908-1.236 0.182-0.156 0.341-0.299 0.477-0.43 0.011 0 0.022-0.006 0.034-0.018-0.227 0.084-0.46 0.174-0.699 0.269-0.556 0.215-1.186 0.46-1.89 0.735-1.147 0.489-2.175 1.147-3.083 1.972-0.216 0.203-0.442 0.43-0.681 0.68-0.091-1.075-0.119-1.816-0.085-2.222 0.102-1.278 0.562-2.317 1.38-3.118zM32.786 12.832c-0.283-0.298-0.574-0.579-0.868-0.842-1.136-0.967-2.424-1.744-3.866-2.33-0.875-0.31-1.675-0.585-2.402-0.824-0.295-0.12-0.579-0.221-0.852-0.305 0.011 0.013 0.022 0.018 0.034 0.018 0.17 0.156 0.375 0.323 0.613 0.502 0.602 0.442 1.408 0.938 2.418 1.488 1.465 0.812 2.589 1.571 3.372 2.276 0.567 0.538 1.044 1.033 1.43 1.488 0.034 0.048 0.074 0.107 0.119 0.179 0.011 0 0.022 0.006 0.035 0.018 0.045 0.048 0.091 0.101 0.136 0.162 0.046 0.036 0.080 0.090 0.103 0.161 0.375 0.514 0.715 1.094 1.022 1.739 0.057 0.12 0.063 0.251 0.017 0.394-0.057 0.143-0.154 0.251-0.29 0.323-0.124 0.060-0.249 0.072-0.375 0.036-0.136-0.059-0.233-0.161-0.29-0.305-0.295-0.585-0.613-1.111-0.954-1.577-0.045-0.048-0.068-0.077-0.068-0.090l-0.017-0.018c-2.282 1.29-4.303 1.774-6.063 1.451-1.714-0.286-3.339-1.135-4.871-2.545-1.725-1.601-2.878-3.686-3.457-6.254-0.602-2.629-0.488-5.287 0.341-7.976 0.136 0.227 0.347 0.538 0.631 0.932 0.499 0.657 0.908 1.129 1.226 1.416 1.203 1.1 3.145 1.834 5.825 2.205 1.408 0.179 2.367 0.335 2.878 0.466 0.999 0.275 1.794 0.687 2.384 1.236 1.057 0.98 1.669 2.247 1.839 3.8 0.068 0.514 0.051 1.44-0.051 2.778z"></path>
</symbol>
<symbol id="icon-integration_circle" viewBox="0 0 32 32">
<title>integration_circle</title>
<path d="M16 32c-8.837 0-16-7.163-16-16s7.163-16 16-16c8.837 0 16 7.163 16 16s-7.163 16-16 16zM26.338 14.746l-2.63-4.133c-0.147-0.232-0.457-0.3-0.69-0.152l-1.157 0.735c-0.23 0.146-0.298 0.45-0.152 0.68l2.63 4.133c0.148 0.232 0.457 0.3 0.69 0.152l1.157-0.735c0.23-0.146 0.298-0.45 0.152-0.68zM13.119 19.159l0.196-0.285c0.086-0.125 0.117-0.276 0.087-0.425s-0.117-0.276-0.245-0.359c-0.094-0.061-0.2-0.089-0.305-0.089-0.181 0-0.359 0.085-0.467 0.243l-0.569 0.827c-0.005 0.009-0.009 0.018-0.014 0.027-0.211 0.308-0.459 0.671-0.67 0.976-0.009 0.013-0.021 0.024-0.031 0.036l-0.146 0.212c-0.173 0.251-0.109 0.598 0.141 0.773 0.126 0.088 0.277 0.122 0.426 0.094s0.279-0.11 0.365-0.235l0.099-0.144c0.016-0.029 0.029-0.060 0.048-0.088l1.072-1.546c0.004-0.006 0.010-0.011 0.014-0.016zM21.605 12.594c-0.086-0.135-0.258-0.19-0.407-0.13l-0.448 0.179c-0.157 0.063-0.329 0.078-0.495 0.043l-1.529-0.319c-0.802-0.167-1.629-0.177-2.435-0.028l-1.438 0.265c-0.364 0.067-0.691 0.265-0.916 0.557l-1.226 1.583c-0.062 0.080-0.089 0.179-0.075 0.279s0.066 0.189 0.147 0.25c0.116 0.087 0.275 0.1 0.404 0.033l2.606-1.352c0.273-0.142 0.601-0.126 0.86 0.040l5.606 3.605c0.062 0.040 0.119 0.085 0.171 0.135l1.334-1.251c0.116-0.109 0.138-0.284 0.053-0.418l-2.21-3.473zM15.135 20.749c-0.084-0.068-0.184-0.104-0.29-0.104-0.021 0-0.043 0.001-0.064 0.004-0.115 0.016-0.215 0.074-0.288 0.162l-0.59 0.851c-0.043 0.097-0.051 0.206-0.021 0.309 0.039 0.133 0.136 0.239 0.265 0.292 0.2 0.082 0.427 0.016 0.551-0.16l0.522-0.743c0.136-0.193 0.098-0.462-0.085-0.611zM14.102 20.542l0.323-0.466c0.166-0.239 0.117-0.569-0.11-0.751-0.102-0.082-0.225-0.125-0.353-0.125-0.027 0-0.055 0.002-0.083 0.006-0.15 0.021-0.279 0.1-0.369 0.22l-1.136 1.652c-0.051 0.112-0.064 0.236-0.034 0.358 0.038 0.157 0.138 0.285 0.281 0.361 0.254 0.135 0.569 0.060 0.732-0.175l0.16-0.23c0.015-0.026 0.025-0.054 0.043-0.078l0.522-0.743c0.007-0.010 0.017-0.018 0.024-0.028zM21.999 17.996l-5.606-3.605c-0.114-0.074-0.261-0.081-0.382-0.018l-2.568 1.332c-0.284 0.147-0.634 0.152-0.901-0.023-0.256-0.168-0.401-0.451-0.384-0.763 0.010-0.176 0.084-0.343 0.192-0.482l1.038-1.34-1.12-0.177c-0.091-0.014-0.178-0.043-0.259-0.085l-0.242-0.125c-0.293-0.151-0.653-0.054-0.829 0.223l-1.849 2.906c-0.141 0.222-0.129 0.507 0.031 0.716l0.969 1.268c0.028 0.037 0.081 0.037 0.113 0.003 0.328-0.346 0.863-0.427 1.282-0.171 0.15 0.092 0.27 0.214 0.354 0.356 0.028 0.048 0.095 0.054 0.127 0.008l0.005-0.007c0.3-0.435 0.883-0.613 1.355-0.371 0.287 0.147 0.483 0.406 0.545 0.715 0.020 0.099 0.024 0.199 0.014 0.297-0.004 0.045 0.029 0.081 0.074 0.080 0.238-0.002 0.471 0.075 0.658 0.225 0.343 0.275 0.464 0.733 0.329 1.132-0.015 0.044 0.011 0.088 0.058 0.096 0.326 0.056 0.619 0.283 0.734 0.637 0.091 0.28 0.027 0.588-0.143 0.83l-0.122 0.174c-0.031 0.044-0.005 0.106 0.049 0.114l1.451 0.22c0.319 0.049 0.636 0.005 0.92-0.118 0.182-0.078 0.18-0.337 0.004-0.426l-1.318-0.664c-0.117-0.059-0.164-0.201-0.104-0.317s0.203-0.162 0.319-0.103l1.835 0.925c0.323 0.163 0.714 0.057 0.909-0.246 0.085-0.115 0.113-0.238 0.089-0.361s-0.097-0.227-0.205-0.293l-0.424-0.257-1.714-0.927c-0.115-0.062-0.158-0.205-0.095-0.32s0.207-0.157 0.322-0.094l2.37 1.282c0.346 0.187 0.787 0.078 1.004-0.249 0.071-0.107 0.094-0.234 0.065-0.359s-0.105-0.229-0.216-0.295l-2.718-1.614c-0.113-0.067-0.149-0.212-0.082-0.323s0.213-0.148 0.326-0.081l2.426 1.44c0 0 0 0 0 0l0.571 0.339c0.315 0.187 0.761 0.106 0.951-0.206 0.088-0.144 0.117-0.313 0.082-0.479-0.037-0.175-0.14-0.324-0.291-0.421zM11.49 18.413c-0.032-0.147-0.12-0.272-0.25-0.351-0.094-0.057-0.197-0.085-0.298-0.085-0.175 0-0.344 0.082-0.45 0.232l-0.678 0.963c-0.172 0.245-0.113 0.585 0.132 0.758l0.022 0.016c0.119 0.084 0.266 0.117 0.413 0.091 0.13-0.023 0.243-0.092 0.326-0.192l0.715-1.038c0.072-0.119 0.098-0.257 0.068-0.394zM10.794 11.348l-1.135-0.711c-0.232-0.146-0.54-0.077-0.687 0.154l-2.63 4.134c-0.147 0.231-0.077 0.536 0.155 0.681l1.135 0.711c0.232 0.146 0.54 0.077 0.687-0.154l2.63-4.134c0.147-0.231 0.077-0.536-0.155-0.681z"></path>
</symbol>
<symbol id="icon-integration" viewBox="0 0 53 32">
<title>integration</title>
<path d="M52.366 11.838l-6.814-10.793c-0.382-0.605-1.184-0.784-1.787-0.397l-2.997 1.92c-0.597 0.383-0.773 1.175-0.395 1.775l6.814 10.793c0.382 0.605 1.184 0.784 1.787 0.397l2.997-1.92c0.597-0.383 0.773-1.175 0.395-1.775z"></path>
<path d="M18.115 23.36l0.508-0.745c0.223-0.327 0.303-0.721 0.225-1.109s-0.303-0.721-0.635-0.937c-0.243-0.158-0.518-0.233-0.791-0.233-0.468 0-0.931 0.223-1.211 0.634l-1.475 2.159c-0.014 0.022-0.023 0.047-0.038 0.069-0.546 0.804-1.191 1.752-1.736 2.549-0.024 0.035-0.054 0.062-0.079 0.095l-0.378 0.553c-0.447 0.656-0.284 1.56 0.365 2.017 0.327 0.23 0.718 0.318 1.105 0.245 0.388-0.070 0.723-0.288 0.945-0.614l0.256-0.376c0.042-0.076 0.074-0.157 0.124-0.229l2.777-4.035c0.011-0.016 0.025-0.027 0.037-0.043z"></path>
<path d="M40.102 6.218c-0.223-0.354-0.668-0.497-1.055-0.341l-1.162 0.469c-0.407 0.164-0.853 0.203-1.282 0.113l-3.962-0.832c-2.078-0.436-4.222-0.461-6.309-0.073l-3.727 0.692c-0.944 0.175-1.789 0.693-2.374 1.454l-3.177 4.133c-0.161 0.209-0.23 0.468-0.195 0.729s0.17 0.493 0.381 0.652c0.301 0.228 0.712 0.262 1.047 0.087l6.752-3.529c0.707-0.37 1.558-0.33 2.228 0.104l14.526 9.414c0.161 0.104 0.307 0.223 0.442 0.352l3.456-3.266c0.301-0.284 0.358-0.741 0.137-1.091l-5.725-9.068z"></path>
<path d="M23.339 27.51c-0.216-0.178-0.478-0.271-0.751-0.271-0.055 0-0.111 0.004-0.166 0.011-0.298 0.041-0.558 0.193-0.747 0.422l-1.528 2.222c-0.111 0.253-0.133 0.537-0.054 0.808 0.102 0.347 0.352 0.625 0.686 0.763 0.519 0.214 1.106 0.042 1.427-0.419l1.352-1.94c0.352-0.505 0.255-1.206-0.22-1.596z"></path>
<path d="M20.663 26.972l0.836-1.216c0.429-0.624 0.304-1.486-0.285-1.962-0.264-0.213-0.582-0.326-0.913-0.326-0.071 0-0.143 0.005-0.215 0.016-0.388 0.056-0.723 0.261-0.956 0.573l-2.942 4.314c-0.132 0.292-0.166 0.615-0.088 0.936 0.099 0.409 0.357 0.743 0.727 0.943 0.659 0.353 1.474 0.157 1.896-0.457l0.414-0.602c0.038-0.068 0.066-0.14 0.111-0.204l1.352-1.941c0.019-0.027 0.044-0.047 0.063-0.073z"></path>
<path d="M41.122 20.324l-14.526-9.414c-0.296-0.193-0.675-0.21-0.989-0.046l-6.655 3.479c-0.736 0.385-1.642 0.397-2.336-0.061-0.664-0.438-1.039-1.178-0.996-1.993 0.025-0.459 0.217-0.895 0.498-1.26l2.691-3.5-2.903-0.461c-0.234-0.037-0.461-0.112-0.672-0.221l-0.628-0.326c-0.758-0.394-1.691-0.141-2.147 0.581l-4.791 7.589c-0.366 0.579-0.334 1.325 0.080 1.871l2.511 3.311c0.073 0.096 0.21 0.096 0.292 0.009 0.85-0.904 2.235-1.116 3.321-0.446 0.39 0.24 0.699 0.558 0.917 0.929 0.074 0.125 0.246 0.142 0.329 0.021l0.013-0.019c0.776-1.136 2.288-1.601 3.51-0.969 0.744 0.385 1.251 1.061 1.413 1.867 0.052 0.259 0.062 0.519 0.037 0.775-0.011 0.116 0.075 0.211 0.192 0.21 0.616-0.004 1.221 0.197 1.704 0.588 0.888 0.719 1.203 1.915 0.853 2.956-0.039 0.116 0.030 0.23 0.15 0.251 0.845 0.145 1.604 0.738 1.902 1.662 0.236 0.732 0.070 1.536-0.369 2.167l-0.317 0.455c-0.081 0.116-0.012 0.277 0.128 0.298l3.758 0.575c0.827 0.127 1.647 0.013 2.384-0.307 0.47-0.205 0.468-0.88 0.010-1.112l-3.415-1.734c-0.303-0.154-0.424-0.524-0.27-0.827s0.525-0.424 0.827-0.27l4.755 2.414c0.838 0.426 1.85 0.149 2.356-0.642 0.221-0.299 0.294-0.621 0.231-0.943s-0.251-0.593-0.531-0.764l-1.098-0.67-4.44-2.42c-0.298-0.163-0.409-0.536-0.246-0.835s0.536-0.41 0.835-0.246l6.141 3.347c0.897 0.489 2.040 0.203 2.602-0.651 0.183-0.279 0.243-0.611 0.169-0.937s-0.273-0.599-0.559-0.77l-7.042-4.214c-0.291-0.174-0.386-0.552-0.212-0.844s0.552-0.387 0.844-0.212l6.285 3.761c0 0 0 0 0 0l1.481 0.886c0.817 0.489 1.972 0.276 2.464-0.539 0.227-0.376 0.303-0.817 0.212-1.249-0.096-0.456-0.363-0.846-0.754-1.099z"></path>
<path d="M13.895 21.411c-0.082-0.384-0.312-0.709-0.647-0.916-0.243-0.15-0.51-0.221-0.773-0.221-0.453 0-0.892 0.214-1.166 0.605l-1.758 2.514c-0.447 0.639-0.293 1.527 0.342 1.979l0.057 0.041c0.308 0.219 0.69 0.304 1.071 0.238 0.337-0.060 0.629-0.239 0.844-0.501l1.851-2.711c0.187-0.31 0.254-0.671 0.177-1.028z"></path>
<path d="M12.091 2.965l-2.94-1.856c-0.602-0.38-1.399-0.2-1.779 0.402l-6.814 10.793c-0.38 0.602-0.2 1.399 0.402 1.779l2.94 1.856c0.602 0.38 1.399 0.2 1.779-0.402l6.814-10.793c0.38-0.602 0.2-1.399-0.402-1.779z"></path>
</symbol>
<symbol id="icon-portectedarea" viewBox="0 0 47 32">
<title>portectedarea</title>
<path d="M0 14.013v8.518h12.691c0 0 10.311 7.733 10.872 8.182s1.681 0.896 3.138 0.785c1.457-0.112 13.337 0 14.346 0s3.495 0.141 3.475-2.242c-0.017-1.908-0.128-2.911-3.407-2.914-3.087-0.003-8.304-0.006-8.304-0.006s-0.843 2.696-2.86 2.92c-2.018 0.224-2.981-0.656-3.877-1.552-0.267-0.267-2.909-2.889-3.449-3.41-0.927-0.893 0.398-1.789 1.048-1.115 1.64 1.701 3.982 4.042 3.982 4.042s1.338 1.009 2.811-0.043c1.473-1.053 0.947-2.526 0.316-3.158s-8.38-8.473-9.156-9.051c-1.284-0.956-2.31-0.966-3.999-0.956-0.891 0.005-17.627 0-17.627 0z"></path>
<path d="M35.478 22.962c-6.047 0-10.949-4.902-10.949-10.949s4.902-10.949 10.949-10.949c6.047 0 10.949 4.902 10.949 10.949s-4.902 10.949-10.949 10.949zM34.833 8.295l-4.664 3.611 1.166 3.611h3.498l1.944 7.222 5.053-7.222v-1.806l-3.498-3.611h-2.332l-1.166-1.806zM33.278 8.746l3.11-1.806-0.389 0.903h2.269v-1.354h1.229v3.16l2.721 3.16v-2.257c1.296 1.204 1.944 1.806 1.944 1.806s0-1.053 0-3.16l-5.442-5.868h-3.887v0.903h2.332l-1.166 1.806-0.777-0.903-3.11 3.611h1.166z"></path>
</symbol>
<symbol id="icon-protected_areas_circle" viewBox="0 0 32 32">
<title>protected_areas_circle</title>
<path d="M16 32c-8.837 0-16-7.163-16-16s7.163-16 16-16c8.837 0 16 7.163 16 16s-7.163 16-16 16zM4.766 15.028v4.169h6.21c0 0 5.046 3.784 5.32 4.004s0.823 0.439 1.536 0.384c0.713-0.055 6.527 0 7.020 0s1.71 0.069 1.7-1.097c-0.008-0.934-0.063-1.425-1.667-1.426-1.511-0.001-4.064-0.003-4.064-0.003s-0.412 1.319-1.399 1.429c-0.987 0.11-1.459-0.321-1.897-0.76-0.131-0.131-1.423-1.414-1.688-1.669-0.454-0.437 0.195-0.876 0.513-0.546 0.803 0.832 1.949 1.978 1.949 1.978s0.655 0.494 1.376-0.021c0.721-0.515 0.464-1.236 0.155-1.545s-4.101-4.146-4.481-4.429c-0.628-0.468-1.13-0.473-1.957-0.468-0.436 0.002-8.626 0-8.626 0zM22.128 19.407c2.959 0 5.358-2.399 5.358-5.358s-2.399-5.358-5.358-5.358c-2.959 0-5.358 2.399-5.358 5.358s2.399 5.358 5.358 5.358zM21.943 11.832l-2.217 1.478 0.554 1.478h1.663l0.924 2.956 2.402-2.956v-0.739l-1.663-1.478h-1.109l-0.554-0.739zM21.204 12.017h-0.554l1.478-1.478 0.369 0.37 0.554-0.739h-1.109v-0.37h1.848l2.587 2.402c0 0.862 0 1.293 0 1.293s-0.308-0.246-0.924-0.739v0.924l-1.293-1.293v-1.293h-0.584v0.554h-1.079l0.185-0.37-1.478 0.739z"></path>
</symbol>
<symbol id="icon-filters" viewBox="0 0 37 32">
<title>filters</title>
<path d="M19.395 0h-1.989v5.859h-3.481v8.951h3.481v16.8h1.989v-16.8h3.481v-8.951h-3.481z"></path>
<path d="M31.33 31.611h1.989v-7.351h3.481v-8.951h-3.481v-15.308h-1.989v15.308h-3.481v8.951h3.481z"></path>
<path d="M5.47 31.611v-7.351h3.481v-8.951h-3.481v-15.308h-1.989v15.308h-3.481v8.951h3.481v7.351z"></path>
</symbol>
<symbol id="icon-tourism_circle" viewBox="0 0 32 32">
<title>tourism_circle</title>
<path d="M16 32c-8.837 0-16-7.163-16-16s7.163-16 16-16c8.837 0 16 7.163 16 16s-7.163 16-16 16zM25.095 19.058c0.608 0.028 1.295-0.028 1.454-0.39 0.026-0.167-0.079-0.418-0.132-0.557-0.264-0.473-0.846-1.949-3.304-2.59-2.458-0.613-11.63-2.423-12.053-2.534s-0.634-0.111-1.189-1.225l-1.507-2.84c0 0-0.159-0.418-0.529-0.501l-1.004-0.251c-0.079 0-0.132 0.028-0.132 0.111l0.159 3.62c0 0.084-0.053 0.139-0.132 0.139l-1.031-0.028c-0.053 0-0.106 0.028-0.132 0.111l-0.106 0.473c-0.026 0.084 0 0.167 0.079 0.195l3.648 2.033c0.37 0.195 0.74 0.39 1.137 0.529 0.661 0.251 1.85 0.696 2.062 0.752s1.11 0.306 1.163 0.306c0.053 0 0.053 0.139 0.106 0.139 0.053 0.028 1.295 0.362 1.348 0.362 0.026 0 0.053-0.028 0.079-0.056 0-0.028 0.026-0.028 0.053-0.028l3.013 0.78c0.053 0 0.079 0.028 0.079 0.056 0.026 0.139 0.159 0.473 0.37 0.529l1.48 0.39c0.211 0.056 0.396 0.028 0.555-0.111 0.053-0.056 0.106-0.111 0.132-0.195 0.026-0.028 0.053-0.056 0.106-0.056l2.855 0.64c0.449 0.111 0.925 0.167 1.374 0.195zM7.44 23.149h17.8c0.342 0 0.632-0.312 0.632-0.681s-0.29-0.681-0.632-0.681h-17.8c-0.342 0-0.632 0.312-0.632 0.681s0.29 0.681 0.632 0.681z"></path>
</symbol>
<symbol id="icon-tourism" viewBox="0 0 45 32">
<title>tourism</title>
<path d="M42.105 22.232c-0.954-0.056-1.965-0.168-2.919-0.393l-6.063-1.291c-0.112 0-0.168 0.056-0.225 0.112-0.056 0.168-0.168 0.281-0.281 0.393-0.337 0.281-0.73 0.337-1.179 0.225l-3.144-0.786c-0.449-0.112-0.73-0.786-0.786-1.067 0-0.056-0.056-0.112-0.168-0.112l-6.4-1.572c-0.056 0-0.112 0-0.112 0.056-0.056 0.056-0.112 0.112-0.168 0.112-0.112 0-2.751-0.674-2.863-0.73-0.112 0-0.112-0.281-0.225-0.281s-2.021-0.505-2.47-0.618c-0.449-0.112-2.975-1.011-4.379-1.516-0.842-0.281-1.628-0.674-2.414-1.067l-7.747-4.098c-0.168-0.056-0.225-0.225-0.168-0.393l0.225-0.954c0.056-0.168 0.168-0.225 0.281-0.225l2.189 0.056c0.168 0 0.281-0.112 0.281-0.281l-0.337-7.298c0-0.168 0.112-0.225 0.281-0.225l2.133 0.505c0.786 0.168 1.123 1.011 1.123 1.011l3.2 5.726c1.179 2.246 1.628 2.246 2.526 2.47s20.379 3.874 25.6 5.109c5.221 1.291 6.456 4.267 7.018 5.221 0.112 0.281 0.337 0.786 0.281 1.123-0.337 0.73-1.797 0.842-3.088 0.786z"></path>
<path d="M3.705 31.607h37.951c0.73 0 1.347-0.618 1.347-1.347v0c0-0.73-0.618-1.347-1.347-1.347h-37.951c-0.73 0-1.347 0.618-1.347 1.347v0c0 0.73 0.618 1.347 1.347 1.347z"></path>
</symbol>
<symbol id="icon-globe" viewBox="0 0 32 32">
<title>globe</title>
<path d="M16 0c-8.837 0-16 7.163-16 16s7.163 16 16 16 16-7.163 16-16-7.163-16-16-16zM16 30c-1.967 0-3.84-0.407-5.538-1.139l7.286-8.197c0.163-0.183 0.253-0.419 0.253-0.664v-3c0-0.552-0.448-1-1-1-3.531 0-7.256-3.671-7.293-3.707-0.188-0.188-0.442-0.293-0.707-0.293h-4c-0.552 0-1 0.448-1 1v6c0 0.379 0.214 0.725 0.553 0.894l3.447 1.724v5.871c-3.627-2.53-6-6.732-6-11.489 0-2.147 0.484-4.181 1.348-6h3.652c0.265 0 0.52-0.105 0.707-0.293l4-4c0.188-0.188 0.293-0.442 0.293-0.707v-2.419c1.268-0.377 2.61-0.581 4-0.581 2.2 0 4.281 0.508 6.134 1.412-0.13 0.109-0.256 0.224-0.376 0.345-1.133 1.133-1.757 2.64-1.757 4.243s0.624 3.109 1.757 4.243c1.139 1.139 2.663 1.758 4.239 1.758 0.099 0 0.198-0.002 0.297-0.007 0.432 1.619 1.211 5.833-0.263 11.635-0.014 0.055-0.022 0.109-0.026 0.163-2.541 2.596-6.084 4.208-10.004 4.208z"></path>
</symbol>
</defs>
</svg>
