<svg style="position: absolute; width: 0; height: 0; overflow: hidden;" version="1.1" xmlns="http://www.w3.org/2000/svg" xmlns:xlink="http://www.w3.org/1999/xlink">
<defs>
<symbol id="icon-info" viewBox="0 0 6 32">
<title>info</title>
<path d="M0 4.497h4.713v-4.497h-4.713v4.497zM0 32h4.713v-23.308h-4.713v23.308z"></path>
</symbol>
<symbol id="icon-agriculture" viewBox="0 0 42 32">
<title>agriculture</title>
<path d="M5.254 20.546c2.902 0 5.254 2.352 5.254 5.254s-2.352 5.254-5.254 5.254-5.254-2.352-5.254-5.254c0-2.902 2.352-5.254 5.254-5.254zM5.254 28.412c1.443 0 2.612-1.169 2.612-2.612s-1.169-2.612-2.612-2.612c-1.443 0-2.612 1.169-2.612 2.612s1.169 2.612 2.612 2.612zM32.756 14.335c4.806 0 8.702 3.896 8.702 8.702s-3.896 8.702-8.702 8.702-8.702-3.896-8.702-8.702c0-4.806 3.896-8.702 8.702-8.702zM32.756 26.703c2.025 0 3.666-1.641 3.666-3.666s-1.641-3.666-3.666-3.666c-2.025 0-3.666 1.641-3.666 3.666s1.641 3.666 3.666 3.666zM18.965 9.367l3.183 3.183-1.261 0.961-1.434-1.489-1.088 1.909 1.441 6.065h-17.354l-2.451-9.428h17.343l0.48 1.561 1.080-0.739-1.003-1.15 1.065-0.873zM29.893 4.444c-1.227 0-2.222-0.995-2.222-2.222s0.995-2.222 2.222-2.222c1.227 0 2.222 0.995 2.222 2.222s-0.995 2.222-2.222 2.222zM31.755 13.747l-6.966 1.205c0 0-1.141 5.765-1.381 6.245s-0.901 1.561-1.621 1.261c-0.721-0.3-0.781-1.201-0.781-1.561s1.543-6.445 1.801-7.206c0.258-0.76 1.246-1.081 1.246-1.081l4.518-0.938-0.6-2.305c0 0-3.74 1.894-4.443 2.222s-1.141 0.060-1.561-0.3c-0.421-0.36-0.544-1.551 0-1.922s7.583-4.194 7.583-4.194c0 0 0.632-0.292 1.904-0.19 0.965 0.078 1.302 1.441 1.302 1.441s0.2 4.444 0 5.885c-0.2 1.441-1.001 1.437-1.001 1.437zM8.914 20.545h10.971l0.724 2.286h-9.536l-2.159-2.286z"></path>
</symbol>
<symbol id="icon-boundarie" viewBox="0 0 55 32">
<title>boundarie</title>
<path d="M46.064 7.010v-2.503l3.672-4.506 3.173 4.339v2.67h2.168v4.339h-2.168v11.683h2.168v4.339h-2.168v4.339h-6.845v-4.339h-4.17v4.339h-6.845v-4.339h-4.17v4.339h-6.845v-4.339h-4.17v4.339h-6.845v-4.339h-4.17v4.339h-6.845v-4.339h-2.003v-4.339h2.003v-11.683h-2.003v-4.339h2.003v-2.503l3.672-4.506 3.173 4.339v2.67h4.17v-2.503l3.672-4.506 3.173 4.339v2.67h4.17v-2.503l3.672-4.506 3.173 4.339v2.67h4.17v-2.503l3.672-4.506 3.173 4.339v2.67h4.17zM46.064 11.349h-4.17v11.683h4.17v-11.683zM8.848 11.349v11.683h4.17v-11.683h-4.17zM35.049 11.349h-4.17v11.683h4.17v-11.683zM24.033 23.032v-11.683h-4.17v11.683h4.17z"></path>
</symbol>
<symbol id="icon-climate" viewBox="0 0 42 32">
<title>climate</title>
<path d="M17.501 31.591c-0.020 0-0.039 0-0.059 0-3.341 0-6.050-2.709-6.050-6.050 0-2.862 1.987-5.259 4.656-5.889-0.001-0.054-0.001-0.107-0.001-0.161 0-4.82 3.907-8.727 8.727-8.727 3.751 0 6.949 2.366 8.183 5.687 0.507-0.105 1.032-0.16 1.571-0.16 4.262 0 7.717 3.455 7.717 7.717 0 3.92-2.922 7.157-6.707 7.652v0.049h-0.502c-0.168 0.011-0.337 0.016-0.508 0.016s-0.34-0.006-0.508-0.016h-16.518v-0.118zM11.403 20.429c-2.086-1.133-3.502-3.343-3.502-5.884 0-3.695 2.996-6.691 6.691-6.691 2.102 0 3.978 0.969 5.204 2.486-3.065 1.354-5.204 4.421-5.204 7.987 0 0.054 0.001 0.108 0.001 0.161-1.262 0.298-2.371 0.99-3.19 1.94zM14.414 0c0.597 0 1.081 0.484 1.081 1.081v5.045c0 0.597-0.484 1.081-1.081 1.081v0c-0.597 0-1.081-0.484-1.081-1.081v-5.045c0-0.597 0.484-1.081 1.081-1.081zM24.607 4.222c0.422 0.422 0.422 1.107 0 1.529l-3.567 3.567c-0.422 0.422-1.107 0.422-1.529 0v0 0c-0.422-0.422-0.422-1.107 0-1.529l3.567-3.567c0.422-0.422 1.107-0.422 1.529 0zM4.222 24.607c-0.422-0.422-0.422-1.107 0-1.529l3.567-3.567c0.422-0.422 1.107-0.422 1.529 0s0.422 1.107 0 1.529l-3.567 3.567c-0.422 0.422-1.107 0.422-1.529 0zM0 14.414c0-0.597 0.484-1.081 1.081-1.081h5.045c0.597 0 1.081 0.484 1.081 1.081s-0.484 1.081-1.081 1.081h-5.045c-0.597 0-1.081-0.484-1.081-1.081zM4.222 4.222v0c0.422-0.422 1.107-0.422 1.529 0l3.567 3.567c0.422 0.422 0.422 1.107 0 1.529v0 0c-0.422 0.422-1.107 0.422-1.529 0l-3.567-3.567c-0.422-0.422-0.422-1.107 0-1.529v0z"></path>
</symbol>
<symbol id="icon-infrastructure" viewBox="0 0 52 32">
<title>infrastructure</title>
<path d="M28.019 5.828v0.275c0.195-0.060 0.387-0.12 0.579-0.177v1.578h0.884v1.852h-0.028v1.751h-0.855v1.646h1.743v2.209h-9.008v-2.209h1.743v-1.646h-1.685c-0.711 2.132-0.333 4.465 0.543 6.249 1.685 3.429 13.076 14.587 13.076 14.587h-17.319c0 0-3.487-6.916-3.894-8.020s-3.145-7.749 1.22-13.89c1.882-2.646 5.26-4.544 8.37-5.819v-0.532c-2.116 0.639-4.523 1.548-6.975 2.865-6.277 3.371-5.986 10.926-5.87 14.645s4.417 10.751 4.417 10.751h-14.471c0 0-1.394-8.194 0.523-14.82s7.904-11.914 15.982-14.762c8.078-2.847 33.243-2.324 33.243-2.324l1.046 1.162c0 0-0.465-0.232-8.078 0.988-7.009 1.124-9.93 1.854-15.186 3.64zM28.019 2.548v0.097c0.551-0.151 1.029-0.27 1.407-0.358-0.389 0.070-0.863 0.155-1.407 0.261z"></path>
</symbol>
<symbol id="icon-landcover" viewBox="0 0 39 32">
<title>landcover</title>
<path d="M14.432 0l8.247 11.826h-3.436l6.872 10.435h-4.811l6.881 9.739h-28.185l6.185-9.739h-4.123l6.872-10.435h-3.436l8.934-11.826zM30.406 31.928l-5.898-8.348h4.811l-5.415-8.222 1.672-2.213h0.307l-0.147-0.211 2.781-3.681 5.844 8.38h-2.435l4.87 7.394h-3.409l4.876 6.901h-7.855z"></path>
</symbol>
<symbol id="icon-livestock" viewBox="0 0 52 32">
<title>livestock</title>
<path d="M39.302 3.996c-0.24-0.063-2.727-0.806-6.384-1.983s-4.462-1.115-8.491-1.239c-4.029-0.124-12.21-0.774-14.131-0.774s-2.231 0.464-3.347 0.774c-1.115 0.31-4.028 0.342-4.958 1.224s-1.992 5.903-1.992 7.576c0 1.673 1.124 4.028 0.938 5.392s-1.053 4.215-0.62 4.587 0.558 0.558 0.991 0.558c0.434 0 0.744 0.682 0.991-1.177s0.062-5.578-0.496-7.438c-0.558-1.859-0.681-2.789-0.62-3.718l0.062-0.93c0 0 1.55 3.284 1.797 4.958s0.868 4.4 0.744 4.958c-0.124 0.558-0.991 2.541-1.178 2.851s0.558 1.983 0.558 2.417 0.682 5.516 0.248 5.702c-0.434 0.186 0.434 2.107 0.434 2.479s0.31 1.263 1.612 1.263 2.665 0.286 2.355-0.395c-0.309-0.682-0.743-0.372-0.868-0.93s0 0.372-0.558-0.805c-0.558-1.178-1.55-4.958-0.806-7.066s2.851-5.516 3.223-5.454c0.371 0.062 0.434 1.115 0.62 1.115s0.434-1.24 0.434-1.24c0 0 0.31 1.426 0.62 1.426s0.434-1.426 1.55-1.735c1.116-0.31 3.347 0.991 4.524 1.549s1.983 0.93 2.603 0.434c0.62-0.496 6.981-1.487 7.333-0.806s0.353 5.454 0.786 6.074c0.434 0.62 0.434 5.206 0.682 5.64s-0.124 0.744 0.248 1.054 0.186 0.372 1.054 0.62c0.868 0.248 1.115 0.519 2.231 0.519s2.665 0.101 1.487-0.767c-1.177-0.868-1.673-1.054-1.735-2.045s-0.371-4.338-0.371-4.338 0.93-3.347 0.991-4.276c0.062-0.93 2.913-0.434 4.772-2.479s2.913-3.656 4.4-4.338c1.487-0.681 2.603-0.743 3.161-0.806s0.806 0.124 1.86 0.186c1.053 0.062 2.169 0.062 2.417 0.31s0.434 0.309 1.054 0.309c0.62 0 1.595-1.053 1.882-1.487s0.643-0.93 0-1.24c-0.642-0.31-2.44-1.735-2.502-2.355s0.558-1.116-0.248-1.983-1.364-1.178-1.488-1.735l-0.124-0.558c0 0 0.806-0.558 0.806-1.24s-0.496-0.991-0.496-0.991-0.186 1.301-0.558 1.487c-0.372 0.186-1.797-0.248-1.797-0.248s0.31-0.805 0.062-1.115c-0.248-0.31-0.309-0.62-0.309-0.62s-0.186 1.302-0.682 1.612c-0.496 0.31-0.868 0.868-0.93 1.116s-0.93 0.743-1.363 0.434c-0.434-0.31-0.434-0.682-1.178-0.558s-0.369 0.495-1.301 0.248z"></path>
</symbol>
<symbol id="icon-population" viewBox="0 0 39 32">
<title>population</title>
<path d="M10.579 5.819c1.771 0 3.207 1.436 3.207 3.207s-1.436 3.207-3.207 3.207c-1.771 0-3.207-1.436-3.207-3.207s1.436-3.207 3.207-3.207zM5.022 18.926c0-3.069 2.488-5.557 5.557-5.557 0.558 0 1.096 0.084 1.605 0.238-1.088 1.348-1.742 3.062-1.742 4.929v9.668h-5.42v-9.278zM3.832 10.494c1.221 0 2.211 0.99 2.211 2.211s-0.99 2.212-2.211 2.212-2.211-0.99-2.211-2.212c0-1.221 0.99-2.211 2.211-2.211zM0 19.531c0-2.116 1.716-3.832 3.832-3.832 0.385 0 0.756 0.058 1.107 0.164-0.75 0.93-1.202 2.112-1.202 3.399v6.667h-3.737v-6.398zM28.007 5.819c1.771 0 3.207 1.436 3.207 3.207s-1.436 3.207-3.207 3.207c-1.771 0-3.207-1.436-3.207-3.207s1.436-3.207 3.207-3.207zM33.564 18.926v9.278h-5.42v-9.668c0-1.868-0.654-3.581-1.742-4.929 0.508-0.153 1.047-0.238 1.605-0.238 3.069 0 5.557 2.488 5.557 5.557zM34.754 10.494c1.221 0 2.211 0.99 2.211 2.211s-0.99 2.212-2.211 2.212-2.211-0.99-2.211-2.212c0-1.221 0.99-2.211 2.211-2.211zM38.586 19.531v6.398h-3.737v-6.667c0-1.288-0.451-2.469-1.202-3.399 0.351-0.106 0.722-0.164 1.107-0.164 2.116 0 3.832 1.716 3.832 3.832zM24.036 4.535c0 2.505-2.030 4.535-4.535 4.535s-4.535-2.030-4.535-4.535c0-2.505 2.030-4.535 4.535-4.535s4.535 2.030 4.535 4.535zM19.5 10.676c4.34 0 7.859 3.519 7.859 7.859v13.122h-15.718v-13.122c0-4.34 3.519-7.859 7.859-7.859z"></path>
</symbol>
<symbol id="icon-poverty" viewBox="0 0 48 32">
<title>poverty</title>
<path d="M34.497 18.71c4.068 0.418 6.443-0.141 6.443-0.141s0.258 0.018 0.625 0.494c0.959-0.087 1.473-0.209 1.473-0.209s0.697 0.050 1.428 2.094c0.954 2.67 0.146 5.221 0.146 5.221s1.884 0.809 2.142 2.018c0.181 0.852-0.284 2.28-0.284 2.28s-0.925 0.037-2.448 0.037c-0.474 0-0.942-0.121-1.361-0.288-0.227 0.002-0.473 0.003-0.737 0.003-0.722 0-1.43-0.281-1.974-0.578-1.86 0.601-6.081 1.72-12.52 2.063-2 0.106-4.143-0.077-6.266-0.425-6.071-0.647-12.423-2.98-15.255-4.021-1.115 0.33-3.454 0.803-3.773 0.087-1.146 0.173-2.269 0.147-2.122-0.591 0.285-1.427 2.57-3.522 2.57-3.522s0.19-4.188 0.38-6.948c0.19-2.76 7.329-12.088 7.329-12.088 0.69 0.067 1.317 0.269 1.893 0.557 0.132-0.175 0.206-0.272 0.206-0.272 2.951 0.285 4.759 3.046 6.282 4.473s4.644 7.618 15.038 9.613c0.267 0.051 0.529 0.098 0.786 0.142zM18.232 0.1c0 0 2.766-0.014 5.771 3.24 3.026 3.277 7.234 6.472 13.23 6.472s7.424-0.666 8.947 0.095c1.523 0.762 0.33 2.78-3.141 3.902-2.077 0.672-9.423-0.095-9.423-0.095s2.008 1.068 3.522 1.523c3.206 0.963 8.566-1.047 8.566-1.047s1.523 0.952 1.555 1.808c0.031 0.857-1.65 1.143-4.41 1.523s-4.188 0.19-11.136-1.523c-6.948-1.713-11.897-7.329-12.944-8.851s-2.588-3.116-6.281-4.093c-1.302-0.344-2.567-0.865-1.618-1.618 1.133-0.899 2.705-1.729 7.364-1.337z"></path>
</symbol>
<symbol id="icon-protectedareas" viewBox="0 0 71 32">
<title>protectedareas</title>
<path d="M0 4.002c0 0 26.569 0.007 27.984 0 2.682-0.014 4.31 0 6.349 1.518 1.232 0.918 13.534 13.366 14.536 14.369s1.838 3.342-0.502 5.013c-2.338 1.67-4.463 0.068-4.463 0.068s-3.718-3.718-6.322-6.418c-1.033-1.070-3.135 0.352-1.664 1.77 0.858 0.827 5.051 4.99 5.475 5.414 1.423 1.423 2.952 2.82 6.155 2.464s4.54-4.635 4.54-4.635 8.282 0.005 13.182 0.010c5.206 0.004 5.382 1.596 5.409 4.626 0.033 3.782-3.914 3.559-5.516 3.559s-20.462-0.178-22.775 0c-2.314 0.178-4.093-0.534-4.982-1.246s-17.259-12.989-17.259-12.989h-20.147v-13.523zM58 23.2c-6.407 0-11.6-5.194-11.6-11.6s5.194-11.6 11.6-11.6c6.406 0 11.6 5.194 11.6 11.6s-5.194 11.6-11.6 11.6zM57.6 7.6l-4.8 3.2 1.2 3.2h3.6l2 6.4 5.2-6.4v-1.6l-3.6-3.2h-2.4l-1.2-1.6zM56 7.2l3.2-1.6-0.4 0.8h2.335v-1.2h1.265v2.8l2.8 2.8v-2c1.333 1.067 2 1.6 2 1.6s0-0.933 0-2.8l-5.6-5.2h-4v0.8h2.4l-1.2 1.6-0.8-0.8-3.2 3.2h1.2z"></path>
</symbol>
<symbol id="icon-urban" viewBox="0 0 48 32">
<title>urban</title>
<path d="M16.571 28.127h2.857v-28.127h11.751v28.127h4.11v-15.429h7.319v15.429h5.177v3.714h-47.785v-3.714h6.286v-17.714h10.286v17.714zM8 12.698v3.429h2.286v-3.429h-2.286zM12.571 12.698v3.429h2.286v-3.429h-2.286zM20.571 5.27h3.429v-2.286h-3.429v2.286zM26.286 5.27h3.429v-2.286h-3.429v2.286zM20.571 8.698h3.429v-2.286h-3.429v2.286zM26.286 8.698h3.429v-2.286h-3.429v2.286z"></path>
</symbol>
<symbol id="icon-water" viewBox="0 0 28 32">
<title>water</title>
<path d="M17.153 5.548c0.855 3.001 3.98 7.377 5.521 9.751 3.077 4.74 3.901 7.501 2.475 10.952s-3.525 5.476-8.476 5.401-7.426-3.826-7.876-6.751c-0.45-2.925 0.713-5.777 3.001-9.376 2.061-3.243 5.356-9.977 5.356-9.977zM4.713 0.67c0.477 1.673 2.219 4.113 3.078 5.438 1.716 2.643 2.175 4.183 1.38 6.107s-1.966 3.053-4.726 3.012c-2.761-0.042-4.141-2.133-4.392-3.764s0.398-3.221 1.673-5.228c1.149-1.808 2.986-5.563 2.986-5.563zM24.912 0c0.312 1.095 1.452 2.692 2.015 3.558 1.122 1.73 1.423 2.737 0.903 3.996s-1.286 1.998-3.093 1.971c-1.806-0.027-2.71-1.396-2.874-2.463s0.26-2.108 1.095-3.421c0.752-1.183 1.954-3.64 1.954-3.64z"></path>
</symbol>
<symbol id="icon-wildlife" viewBox="0 0 53 32">
<title>wildlife</title>
<path d="M2.118 3.385c0 0-1.331 0.614-1.485 1.434s-0.512 1.639-0.614 2.151c-0.102 0.512 0.204 1.69 1.049 2.048 0 0 0.486 0.256 2.534-0.87s2.202-0.052 1.127 0.409-1.921 1.741-2.036 2.304c-0.114 0.563 1.37 2.202 2.036 1.741s1.024-1.639 1.331-1.178c0.307 0.461 0.204 0.768 0.973 0.921s2.355-0.87 2.406-1.536c0.051-0.666 8.192-0.052 10.804 0.563s3.225 0.205 6.144 2.867c2.918 2.662 2.611 4.455 5.581 6.042s4.096 1.331 8.090 5.888c3.994 4.557 2.457 4.404 4.148 5.325s2.764-0.87 2.099-2.099c-0.666-1.229-1.69-1.178-2.356-2.304s-1.536-4.71-3.174-5.939c-1.639-1.229-3.277-3.277-3.789-5.837s-1.024-3.328-1.434-3.635c-0.41-0.307 5.222 0.512 8.192 1.229s5.376 1.28 7.117-0.256c1.741-1.536 2.202-2.406 2.202-2.918s-1.024-0.102-1.997 0.563c-0.973 0.666-1.433 1.792-3.43 1.844s-8.551-1.844-12.288-2.662c-3.738-0.819-4.301-0.615-6.964-2.253s-9.728-7.424-15.002-7.22c-5.274 0.205-8.244 2.048-8.244 2.048s-0.614-0.461-0.973-0.666c-0.358-0.204-0.717 0.052-0.973 0.256s-0.717-0.102-1.024 0.204c-0.307 0.307-0.051 1.536-0.051 1.536z"></path>
</symbol>
<symbol id="icon-plus" viewBox="0 0 32 32">
<title>plus</title>
<path d="M16 2.667q0.552 0 0.943 0.391t0.391 0.943v10.667h10.667q0.552 0 0.943 0.391t0.391 0.943-0.391 0.943-0.943 0.391h-10.667v10.667q0 0.552-0.391 0.943t-0.943 0.391-0.943-0.391-0.391-0.943v-10.667h-10.667q-0.552 0-0.943-0.391t-0.391-0.943 0.391-0.943 0.943-0.391h10.667v-10.667q0-0.552 0.391-0.943t0.943-0.391z"></path>
</symbol>
<symbol id="icon-arrow_next2" viewBox="0 0 19 32">
<title>arrow_next2</title>
<path d="M0 3.76l11.867 12.24-11.867 12.24 3.653 3.76 15.547-16-15.547-16z"></path>
</symbol>
<symbol id="icon-arrow-down-bold" viewBox="0 0 46 32">
<title>arrow-down-bold</title>
<path d="M35.873 2.872l-13.015 12.912-13.015-12.912-5.74 5.694 18.755 18.687 18.755-18.687z"></path>
</symbol>
<symbol id="icon-arrow-down" viewBox="0 0 32 32">
<title>arrow-down</title>
<path d="M31.35 9.1c0 0.4-0.2 0.8-0.4 1l-14 14c-0.6 0.6-1.6 0.6-2.2 0l-14-14c-0.6-0.6-0.6-1.6 0-2.2s1.6-0.6 2.2 0l12.8 13.2 13-13c0.6-0.6 1.6-0.6 2.2 0 0.4 0.2 0.4 0.6 0.4 1z"></path>
</symbol>
<symbol id="icon-arrow-down2" viewBox="0 0 32 32">
<title>arrow-down2</title>
<path d="M26.824 17.082v0c-0.676-0.676-1.894-0.676-2.571 0l-6.494 6.494v-20.159c0-0.947-0.812-1.759-1.759-1.759v0c-0.947 0-1.759 0.812-1.759 1.759v20.159l-6.494-6.494c-0.676-0.676-1.894-0.676-2.571 0v0c-0.676 0.676-0.676 1.894 0 2.571l10.824 10.824 10.824-10.824c0.676-0.676 0.676-1.894 0-2.571z"></path>
</symbol>
<symbol id="icon-arrow-left" viewBox="0 0 18 32">
<title>arrow-left</title>
<path d="M16 31.6c-0.4 0-0.8-0.2-1-0.4l-14-14c-0.6-0.6-0.6-1.6 0-2.2l14-14c0.6-0.6 1.6-0.6 2.2 0s0.6 1.6 0 2.2l-13.2 12.8 13 13c0.6 0.6 0.6 1.6 0 2.2-0.2 0.4-0.6 0.4-1 0.4z"></path>
</symbol>
<symbol id="icon-arrow-left2" viewBox="0 0 32 32">
<title>arrow-left2</title>
<path d="M14.918 26.824v0c0.676-0.676 0.676-1.894 0-2.571l-6.494-6.494h20.159c0.947 0 1.759-0.812 1.759-1.759v0c0-0.947-0.812-1.759-1.759-1.759h-20.159l6.494-6.494c0.676-0.676 0.676-1.894 0-2.571v0c-0.676-0.676-1.894-0.676-2.571 0l-10.824 10.824 10.824 10.824c0.676 0.676 1.894 0.676 2.571 0z"></path>
</symbol>
<symbol id="icon-arrow-right" viewBox="0 0 18 32">
<title>arrow-right</title>
<path d="M2 0.4c0.4 0 0.8 0.2 1 0.4l14 14c0.6 0.6 0.6 1.6 0 2.2l-14 14c-0.6 0.6-1.6 0.6-2.2 0s-0.6-1.6 0-2.2l13.2-12.8-13-13c-0.6-0.6-0.6-1.6 0-2.2 0.2-0.4 0.6-0.4 1-0.4z"></path>
</symbol>
<symbol id="icon-arrow-right2" viewBox="0 0 32 32">
<title>arrow-right2</title>
<path d="M17.082 5.176v0c-0.676 0.676-0.676 1.894 0 2.571l6.494 6.494h-20.159c-0.947 0-1.759 0.812-1.759 1.759v0c0 0.947 0.812 1.759 1.759 1.759h20.159l-6.494 6.494c-0.676 0.676-0.676 1.894 0 2.571v0c0.676 0.676 1.894 0.676 2.571 0l10.824-10.824-10.824-10.824c-0.676-0.676-1.894-0.676-2.571 0z"></path>
</symbol>
<symbol id="icon-arrow-up" viewBox="0 0 32 32">
<title>arrow-up</title>
<path d="M31.35 22.9c0-0.4-0.2-0.8-0.4-1l-14-14c-0.6-0.6-1.6-0.6-2.2 0l-14 14c-0.6 0.6-0.6 1.6 0 2.2s1.6 0.6 2.2 0l12.8-13.2 13 13c0.6 0.6 1.6 0.6 2.2 0 0.4-0.2 0.4-0.6 0.4-1z"></path>
</symbol>
<symbol id="icon-arrow-up2" viewBox="0 0 32 32">
<title>arrow-up2</title>
<path d="M5.176 14.918v0c0.676 0.676 1.894 0.676 2.571 0l6.494-6.494v20.159c0 0.947 0.812 1.759 1.759 1.759v0c0.947 0 1.759-0.812 1.759-1.759v-20.159l6.494 6.494c0.676 0.676 1.894 0.676 2.571 0v0c0.676-0.676 0.676-1.894 0-2.571l-10.824-10.824-10.824 10.824c-0.676 0.676-0.676 1.894 0 2.571z"></path>
</symbol>
<symbol id="icon-check" viewBox="0 0 32 32">
<title>check</title>
<path d="M28 6.667q0.573 0 0.953 0.38t0.38 0.953q0 0.563-0.385 0.948l-16 16q-0.385 0.385-0.948 0.385t-0.948-0.385l-8-8q-0.385-0.385-0.385-0.948 0-0.573 0.38-0.953t0.953-0.38q0.563 0 0.948 0.385l7.052 7.063 15.052-15.063q0.385-0.385 0.948-0.385z"></path>
</symbol>
<symbol id="icon-collapse" viewBox="0 0 58 32">
<title>collapse</title>
<path d="M22.596 30.347v-28.622h2.987v28.622h-2.987z"></path>
<path d="M32 30.756v-28.622h2.987v28.622h-2.987z"></path>
<path d="M1.414 18.039h14.611l-5.013 4.966 1.705 1.677 7.907-7.831-7.907-7.831-1.693 1.677 5.001 4.966h-14.611v2.378zM56.659 18.032v-2.378h-14.611l5.001-4.966-1.693-1.677-7.907 7.831 7.907 7.831 1.705-1.677-5.013-4.966h14.611z"></path>
</symbol>
<symbol id="icon-cross" viewBox="0 0 32 32">
<title>cross</title>
<path d="M25.333 5.333q0.573 0 0.953 0.38t0.38 0.953q0 0.563-0.385 0.948l-8.396 8.385 8.396 8.385q0.385 0.385 0.385 0.948 0 0.573-0.38 0.953t-0.953 0.38q-0.563 0-0.948-0.385l-8.385-8.396-8.385 8.396q-0.385 0.385-0.948 0.385-0.573 0-0.953-0.38t-0.38-0.953q0-0.563 0.385-0.948l8.396-8.385-8.396-8.385q-0.385-0.385-0.385-0.948 0-0.573 0.38-0.953t0.953-0.38q0.563 0 0.948 0.385l8.385 8.396 8.385-8.396q0.385-0.385 0.948-0.385z"></path>
</symbol>
<symbol id="icon-download" viewBox="0 0 26 32">
<title>download</title>
<path d="M1.12 28.32h24v2.56h-24v-2.56z"></path>
<path d="M11.531 0v18.255l-6.204-6.264-2.095 2.13 9.785 9.879 9.785-9.879-2.095-2.115-6.204 6.249v-18.255z"></path>
</symbol>
<symbol id="icon-drag" viewBox="0 0 32 32">
<title>drag</title>
<path d="M16.796 17.616v10.398l4.138-4.178 1.397 1.421-6.526 6.589-6.526-6.589 1.397-1.411 4.138 4.168v-10.398h1.982zM16.79 14.262h-1.982v-10.398l-4.138 4.168-1.397-1.411 6.526-6.589 6.526 6.589-1.397 1.421-4.138-4.178v10.398zM14.125 16.933h-10.398l4.178 4.138-1.421 1.397-6.589-6.526 6.589-6.526 1.411 1.397-4.168 4.138h10.398v1.982zM17.48 16.927v-1.982h10.398l-4.168-4.138 1.411-1.397 6.589 6.526-6.589 6.526-1.421-1.397 4.178-4.138h-10.398z"></path>
</symbol>
<symbol id="icon-enlarge" viewBox="0 0 32 32">
<title>enlarge</title>
<path d="M16.511 16.227l0.005 0.005-10.687 10.687 7.299-0.035-0.021 2.473-11.511 0.055 0.055-11.511 2.465-0.012-0.026 7.29 21.192-21.203-7.29 0.026 0.012-2.465 11.511-0.055-0.055 11.511-2.473 0.021 0.035-7.299-10.511 10.511z"></path>
</symbol>
<symbol id="icon-expand" viewBox="0 0 45 32">
<title>expand</title>
<path d="M0 32v-32h3.2v32h-3.2z"></path>
<path d="M41.6 32v-32h3.2v32h-3.2z"></path>
<path d="M27.022 15.548v-0.11h-16.369l5.603-5.456-1.896-1.842-8.858 8.604 8.858 8.604 1.91-1.842-5.617-5.456h8.725v0.11h16.369l-5.617 5.456 1.91 1.842 8.858-8.604-8.858-8.604-1.896 1.842 5.603 5.456h-8.725z"></path>
</symbol>
<symbol id="icon-eye" viewBox="0 0 32 32">
<title>eye</title>
<path d="M16 6c-8.837 0-16 10-16 10s7.163 10 16 10 16-10 16-10-7.163-10-16-10zM16 22c-3.313 0-6-2.687-6-6s2.687-6 6-6 6 2.687 6 6-2.687 6-6 6zM16 12c-2.209 0-4 1.791-4 4s1.791 4 4 4 4-1.791 4-4-1.791-4-4-4z"></path>
</symbol>
<symbol id="icon-facebook" viewBox="0 0 33 32">
<title>facebook</title>
<path d="M22.155 11.352h-3.983v-2.656c0-0.885 0.443-1.328 0.885-1.328h2.656v-4.426l-3.541-0.443c-4.426 0-5.311 3.541-5.311 5.754v3.098h-2.656v4.869h2.656v13.279h5.311v-13.279h3.541l0.443-4.869z"></path>
</symbol>
<symbol id="icon-grid" viewBox="0 0 32 32">
<title>grid</title>
<path d="M0.5 0.5h6.889v6.889h-6.889v-6.889z"></path>
<path d="M12.556 0.5h6.889v6.889h-6.889v-6.889z"></path>
<path d="M24.611 0.5h6.889v6.889h-6.889v-6.889z"></path>
<path d="M0.5 12.556h6.889v6.889h-6.889v-6.889z"></path>
<path d="M12.556 12.556h6.889v6.889h-6.889v-6.889z"></path>
<path d="M24.611 12.556h6.889v6.889h-6.889v-6.889z"></path>
<path d="M0.5 24.611h6.889v6.889h-6.889v-6.889z"></path>
<path d="M12.556 24.611h6.889v6.889h-6.889v-6.889z"></path>
<path d="M24.611 24.611h6.889v6.889h-6.889v-6.889z"></path>
</symbol>
<symbol id="icon-linkedin" viewBox="0 0 32 32">
<title>linkedin</title>
<path d="M12 9h5.535v2.837h0.079c0.77-1.381 2.655-2.837 5.464-2.837 5.842 0 6.922 3.637 6.922 8.367v9.633h-5.769v-8.54c0-2.037-0.042-4.657-3.001-4.657-3.005 0-3.463 2.218-3.463 4.509v8.688h-5.767v-18z"></path>
<path d="M2 9h6v18h-6v-18z"></path>
<path d="M8 4c0 1.657-1.343 3-3 3s-3-1.343-3-3c0-1.657 1.343-3 3-3s3 1.343 3 3z"></path>
</symbol>
<symbol id="icon-list" viewBox="0 0 34 32">
<title>list</title>
<path d="M0 0h7.112v7.112h-7.112v-7.112z"></path>
<path d="M0 12.444h7.112v7.112h-7.112v-7.112z"></path>
<path d="M0 24.889h7.112v7.112h-7.112v-7.112z"></path>
<path d="M12.444 0h20.596v7.112h-20.596v-7.112z"></path>
<path d="M12.444 12.444h20.596v7.112h-20.596v-7.112z"></path>
<path d="M12.444 24.889h20.596v7.112h-20.596v-7.112z"></path>
</symbol>
<symbol id="icon-location" viewBox="0 0 30 32">
<title>location</title>
<path d="M16.705 4.501c4.392 0.763 7.857 4.228 8.62 8.62h4.428v3.657h-4.428c-0.763 4.392-4.228 7.857-8.62 8.62v4.501h-3.657v-4.501c-4.392-0.763-7.857-4.228-8.62-8.62h-4.428v-3.657h4.428c0.763-4.392 4.228-7.857 8.62-8.62v-4.501h3.657v4.501zM14.877 22.629c4.242 0 7.68-3.438 7.68-7.68s-3.438-7.68-7.68-7.68c-4.242 0-7.68 3.438-7.68 7.68s3.438 7.68 7.68 7.68z"></path>
</symbol>
<symbol id="icon-menu" viewBox="0 0 45 32">
<title>menu</title>
<path d="M3.851 2.75h37.1v5.3h-37.1v-5.3z"></path>
<path d="M3.851 13.35h37.1v5.3h-37.1v-5.3z"></path>
<path d="M3.851 23.95h37.1v5.3h-37.1v-5.3z"></path>
</symbol>
<symbol id="icon-minus" viewBox="0 0 32 32">
<title>minus</title>
<path d="M4 14.667h24q0.552 0 0.943 0.391t0.391 0.943-0.391 0.943-0.943 0.391h-24q-0.552 0-0.943-0.391t-0.391-0.943 0.391-0.943 0.943-0.391z"></path>
</symbol>
<symbol id="icon-plus2" viewBox="0 0 32 32">
<title>plus2</title>
<path d="M16 2.667q0.552 0 0.943 0.391t0.391 0.943v10.667h10.667q0.552 0 0.943 0.391t0.391 0.943-0.391 0.943-0.943 0.391h-10.667v10.667q0 0.552-0.391 0.943t-0.943 0.391-0.943-0.391-0.391-0.943v-10.667h-10.667q-0.552 0-0.943-0.391t-0.391-0.943 0.391-0.943 0.943-0.391h10.667v-10.667q0-0.552 0.391-0.943t0.943-0.391z"></path>
</symbol>
<symbol id="icon-remove" viewBox="0 0 28 32">
<title>remove</title>
<path d="M3.267 31.007c0 0.549 0.416 0.993 0.928 0.993h19.61c0.513 0 0.928-0.445 0.928-0.993l0.042-24.308h3.225v-1.986h-9.086v-3.719c0-0.548-0.416-0.993-0.928-0.993h-7.972c-0.513 0-0.928 0.445-0.928 0.993v3.719h-9.086v1.986h3.225l0.042 24.308zM22.42 29.413h-16.84l-0.040-22.109h16.919l-0.040 22.109zM10.942 1.986h6.116v2.726h-6.116v-2.726z"></path>
<path d="M10 12h2v12h-2v-12z"></path>
<path d="M16 12h2v12h-2v-12z"></path>
</symbol>
<symbol id="icon-retract" viewBox="0 0 30 32">
<title>retract</title>
<path d="M29.237 2.425l-1.577-1.577-9.686 9.686 0.024-6.607-2.234 0.011-0.050 10.433 10.433-0.050 0.019-2.242-6.615 0.032 9.686-9.686zM1.675 31.050l9.686-9.686-0.032 6.615 2.242-0.019 0.050-10.433-10.433 0.050-0.011 2.234 6.607-0.024-9.686 9.686 1.577 1.577z"></path>
</symbol>
<symbol id="icon-search" viewBox="0 0 32 32">
<title>search</title>
<path d="M25.064 22.047l6.311 6.311-3.017 3.017-6.311-6.311c-2.293 1.678-5.121 2.669-8.181 2.669-7.658 0-13.867-6.208-13.867-13.867s6.208-13.867 13.867-13.867c7.658 0 13.867 6.208 13.867 13.867 0 3.059-0.991 5.887-2.669 8.181v0zM13.867 23.467c5.302 0 9.6-4.298 9.6-9.6s-4.298-9.6-9.6-9.6c-5.302 0-9.6 4.298-9.6 9.6s4.298 9.6 9.6 9.6z"></path>
</symbol>
<symbol id="icon-share" viewBox="0 0 32 32">
<title>share</title>
<path d="M17.254 18.877v6.491l10.622-10.622-10.622-10.622v6.491c-4.721 0.147-13.278 2.213-13.278 13.278v3.836l1.918-3.246c2.508-4.131 5.016-5.459 11.36-5.606z"></path>
</symbol>
<symbol id="icon-twitter" viewBox="0 0 33 32">
<title>twitter</title>
<path d="M26.446 8.727c1.058-0.793 1.851-1.851 2.38-2.909-1.058 0.529-2.116 1.058-3.438 1.322-1.058-1.322-2.38-1.851-3.967-1.851-2.909 0-5.289 2.38-5.289 5.289 0 0.529 0 0.793 0.264 1.322-4.76-0.264-8.727-2.38-11.372-5.554-0.529 0.793-0.793 1.587-0.793 2.645 0 1.851 1.058 3.438 2.38 4.496-0.793 0-1.587-0.264-2.38-0.793 0 0 0 0 0 0 0 2.645 1.851 4.76 4.231 5.289-0.264 0.264-0.793 0.529-1.322 0.529-0.264 0-0.793 0-1.058 0 0.793 2.116 2.645 3.702 5.025 3.702-1.851 1.322-3.967 2.116-6.612 2.116-0.529 0-0.793 0-1.322 0 2.38 1.587 5.289 2.38 8.198 2.38 10.050 0 15.339-8.198 15.339-15.339 0-0.264 0-0.529 0-0.793 1.058-0.793 1.851-1.851 2.645-2.909-0.793 0.529-1.851 0.793-2.909 1.058z"></path>
</symbol>
<symbol id="icon-user" viewBox="0 0 30 32">
<title>user</title>
<path d="M14.933 0c4.706 0 8.533 3.686 8.533 8.219v2.055c0 4.533-3.827 8.219-8.533 8.219s-8.533-3.686-8.533-8.219v-2.055c0-4.533 3.827-8.219 8.533-8.219zM23.543 18.492c3.757 1.179 6.323 3.873 6.323 7.344v6.164h-29.867v-6.164c0-3.47 2.566-6.164 6.323-7.344 2.276 2.001 5.293 3.234 8.61 3.234s6.334-1.233 8.61-3.234z"></path>
</symbol>
<symbol id="icon-zoom-in" viewBox="0 0 32 32">
<title>zoom-in</title>
<path d="M18.133 13.867v-13.867h-4.267v13.867h-13.867v4.267h13.867v13.867h4.267v-13.867h13.867v-4.267h-13.867z"></path>
</symbol>
</defs>
</svg>
