<?xml version="1.0" encoding="UTF-8"?>
<svg width="70px" height="70px" viewBox="0 0 70 70" version="1.1" xmlns="http://www.w3.org/2000/svg" xmlns:xlink="http://www.w3.org/1999/xlink">
    <!-- Generator: Sketch 46.2 (44496) - http://www.bohemiancoding.com/sketch -->
    <title>favicon</title>
    <desc>Created with Sketch.</desc>
    <defs></defs>
    <g id="descartes" stroke="none" stroke-width="1" fill="none" fill-rule="evenodd">
        <g id="favicon" stroke="#73A575" stroke-width="2" fill="#2E3D3D" fill-rule="nonzero">
            <g id="Range_of_Senecio_keniodendron-Kenya" transform="translate(9.000000, 5.000000)">
                <path d="M0.0148310768,37.8497271 C0.0148310768,36.7913388 -0.0236664826,35.732181 0.0233874509,34.67381 C0.0618837855,33.7823791 0.511079972,32.6455738 0.291183475,31.7782172 C-0.0878316674,30.2857704 0.730129903,28.3336328 1.79877477,27.0671484 C2.76732305,25.9179208 3.48518276,23.6419783 5.0363968,23.0867772 C5.78079353,22.8204341 5.65843405,22.686877 5.61822211,22.1013902 C5.55661787,21.1975367 6.71683518,20.7626926 6.970952,19.9582319 C7.27296762,19.0023523 7.35965506,18.0658863 7.46403416,17.1068996 C7.55729331,16.244198 6.60131686,15.633646 6.40196156,14.6663385 C5.95465191,12.4961346 4.48282593,12.0246631 4.2629287,11.0687836 C4.09010983,10.3101357 3.62465067,9.66641125 3.34402153,8.94426009 C3.15662975,8.62666937 3.05138298,8.28888724 3.02743339,7.92936637 C3.02743339,7.44560256 3.62465067,7.17071848 3.46379436,6.65123636 C3.32091763,6.193097 2.76819285,6.07273899 2.3421011,5.92830872 C1.37524693,5.6013981 2.08283489,4.93515607 1.05952694,5.0298908 C1.3923575,4.159426 0.203913888,3.3223518 0.437514083,2.71434564 C0.66253473,2.13041446 1.3324713,1.62724038 1.78937496,1.19239369 C3.3833662,-0.325674689 5.33672239,0.109943817 7.42783158,0.109943817 C8.62741436,0.109943817 9.82953616,0.0198689445 11.0290993,0.00822173392 C11.6169131,0.00278598018 12.2286823,-0.0236151414 12.8121914,0.0602463299 C13.3169981,0.132462535 13.4718619,0.935369633 14.0776318,1.1481339 C15.9437198,1.80583483 18.0262741,1.00292773 19.930857,1.80505913 C21.9218632,2.64446218 24.0523365,4.18970894 25.6052532,5.57033926 C26.3967211,6.27385488 27.0255869,6.76771313 28.1669669,6.88108107 C28.9087781,6.95484926 30.5986054,6.53708981 31.1812673,6.87486961 C32.8103623,7.82065519 35.3095959,6.9804741 36.728211,8.21745141 C36.9241314,7.33766669 38.2580257,6.05720802 38.8586668,5.29933836 C39.9264891,3.95132178 42.2101122,3.41164883 43.7878339,2.74385501 C45.471685,2.03179732 45.766876,3.70827476 47.0246095,4.37529502 C47.8879378,4.83343516 48.8231013,4.5344792 49.720652,4.38694242 C50.4479037,4.26658422 51.3163645,4.70220428 52,4.3597656 C50.9518619,5.99120599 49.986759,7.77406401 48.7101734,9.2688403 C47.3617234,10.846701 46.1527679,11.724931 46.157043,13.8447947 C46.1664311,18.8524851 46.2152149,23.8594001 46.2100824,28.8678704 C46.2049363,32.6207268 45.3818512,36.1794567 48.1582888,39.2458824 C49.0994888,40.2856281 50.5172154,41.6282018 49.5067368,42.990976 C48.9120856,43.7946588 47.140129,45.2622481 46.0286826,44.3343362 C45.9396945,44.5362289 45.8558699,44.7404449 45.7805626,44.9477754 C45.6026078,44.7536474 45.440029,44.5486441 45.2928651,44.3343362 C45.5837809,44.9446628 46.3281331,46.0698133 45.6607622,46.686367 C45.5452699,45.1659618 44.8530686,46.9076718 44.6845292,47.2578716 C44.3397165,47.9769114 43.6757419,48.1151362 42.9193828,48.2122099 C41.2407012,48.4265139 40.5638857,49.7721973 41.09866,51.0557779 C41.3433545,51.6435917 40.159202,53.3441388 39.6714966,53.7036646 C38.8398555,54.3163281 38.1416683,58.4388107 37.2159046,58.0862702 C37.6197562,59.6827584 35.8606075,60.8172271 35.5560089,62.2786128 C34.8398503,61.8057275 34.922001,62.6327047 34.3239417,62.5045873 C33.5693051,62.3430797 32.5844908,61.1736656 32.0240541,60.7457963 C30.1365702,59.3061556 28.1241865,58.004728 26.2598066,56.5402512 C25.5813172,56.0083367 25.4521248,55.4539073 24.9045192,54.9017992 C24.4365059,54.4304789 23.4465707,54.5228692 24.3235604,53.6438635 C25.5633419,52.4014672 23.6904234,50.9338506 22.5473482,50.3406108 C18.4558075,48.2168602 14.5636348,45.7770778 10.5080298,43.5795635 C8.48279862,42.4823539 6.37801159,41.3742844 4.49225063,40.0860629 C3.3833662,39.3297528 1.55408342,37.6175481 0.0148310768,37.8497271" id="ke"></path>
            </g>
        </g>
    </g>
</svg>