<!-- Generated by IcoMoon.io -->
<svg version="1.1" xmlns="http://www.w3.org/2000/svg" width="42" height="32" viewBox="0 0 42 32">
<title>agriculture</title>
<path d="M5.254 20.546c2.902 0 5.254 2.352 5.254 5.254s-2.352 5.254-5.254 5.254-5.254-2.352-5.254-5.254c0-2.902 2.352-5.254 5.254-5.254zM5.254 28.412c1.443 0 2.612-1.169 2.612-2.612s-1.169-2.612-2.612-2.612c-1.443 0-2.612 1.169-2.612 2.612s1.169 2.612 2.612 2.612zM32.756 14.335c4.806 0 8.702 3.896 8.702 8.702s-3.896 8.702-8.702 8.702-8.702-3.896-8.702-8.702c0-4.806 3.896-8.702 8.702-8.702zM32.756 26.703c2.025 0 3.666-1.641 3.666-3.666s-1.641-3.666-3.666-3.666c-2.025 0-3.666 1.641-3.666 3.666s1.641 3.666 3.666 3.666zM18.965 9.367l3.183 3.183-1.261 0.961-1.434-1.489-1.088 1.909 1.441 6.065h-17.354l-2.451-9.428h17.343l0.48 1.561 1.080-0.739-1.003-1.15 1.065-0.873zM29.893 4.444c-1.227 0-2.222-0.995-2.222-2.222s0.995-2.222 2.222-2.222c1.227 0 2.222 0.995 2.222 2.222s-0.995 2.222-2.222 2.222zM31.755 13.747l-6.966 1.205c0 0-1.141 5.765-1.381 6.245s-0.901 1.561-1.621 1.261c-0.721-0.3-0.781-1.201-0.781-1.561s1.543-6.445 1.801-7.206c0.258-0.76 1.246-1.081 1.246-1.081l4.518-0.938-0.6-2.305c0 0-3.74 1.894-4.443 2.222s-1.141 0.060-1.561-0.3c-0.421-0.36-0.544-1.551 0-1.922s7.583-4.194 7.583-4.194c0 0 0.632-0.292 1.904-0.19 0.965 0.078 1.302 1.441 1.302 1.441s0.2 4.444 0 5.885c-0.2 1.441-1.001 1.437-1.001 1.437zM8.914 20.545h10.971l0.724 2.286h-9.536l-2.159-2.286z"></path>
</svg>
