<!-- Generated by IcoMoon.io -->
<svg version="1.1" xmlns="http://www.w3.org/2000/svg" width="32" height="32" viewBox="0 0 32 32">
<title>agriculture_circle</title>
<path d="M16 32c-8.837 0-16-7.163-16-16s7.163-16 16-16c8.837 0 16 7.163 16 16s-7.163 16-16 16zM9.717 17.638c-1.23 0-2.228 0.997-2.228 2.228s0.997 2.228 2.228 2.228 2.228-0.997 2.228-2.228c0-1.23-0.997-2.228-2.228-2.228zM15.53 12.857l-0.451 0.37 0.425 0.488-0.458 0.313-0.204-0.662h-7.353l1.039 3.997h7.358l-0.611-2.571 0.461-0.809 0.608 0.631 0.535-0.407-1.349-1.349zM11.237 17.638l0.915 0.969h4.043l-0.307-0.969h-4.652zM20.173 10.735c0.52 0 0.942-0.422 0.942-0.942s-0.422-0.942-0.942-0.942c-0.52 0-0.942 0.422-0.942 0.942s0.422 0.942 0.942 0.942zM20.962 14.679c0 0 0.34 0.002 0.425-0.609s0-2.495 0-2.495-0.143-0.578-0.552-0.611c-0.539-0.044-0.807 0.080-0.807 0.080s-2.985 1.621-3.215 1.778c-0.23 0.157-0.178 0.662 0 0.815s0.364 0.266 0.662 0.127c0.298-0.139 1.884-0.942 1.884-0.942l0.255 0.977-1.916 0.398c0 0-0.419 0.136-0.528 0.458s-0.764 2.902-0.764 3.055c0 0.153 0.025 0.535 0.331 0.662s0.585-0.331 0.687-0.535c0.102-0.204 0.586-2.648 0.586-2.648l2.953-0.511zM21.387 14.924c-2.038 0-3.689 1.652-3.689 3.689s1.652 3.69 3.689 3.69 3.689-1.652 3.689-3.69c0-2.038-1.652-3.689-3.689-3.689z"></path>
</svg>
