<!-- Generated by IcoMoon.io -->
<svg version="1.1" xmlns="http://www.w3.org/2000/svg" width="55" height="32" viewBox="0 0 55 32">
<title>boundarie</title>
<path d="M46.064 7.010v-2.503l3.672-4.506 3.173 4.339v2.67h2.168v4.339h-2.168v11.683h2.168v4.339h-2.168v4.339h-6.845v-4.339h-4.17v4.339h-6.845v-4.339h-4.17v4.339h-6.845v-4.339h-4.17v4.339h-6.845v-4.339h-4.17v4.339h-6.845v-4.339h-2.003v-4.339h2.003v-11.683h-2.003v-4.339h2.003v-2.503l3.672-4.506 3.173 4.339v2.67h4.17v-2.503l3.672-4.506 3.173 4.339v2.67h4.17v-2.503l3.672-4.506 3.173 4.339v2.67h4.17v-2.503l3.672-4.506 3.173 4.339v2.67h4.17zM46.064 11.349h-4.17v11.683h4.17v-11.683zM8.848 11.349v11.683h4.17v-11.683h-4.17zM35.049 11.349h-4.17v11.683h4.17v-11.683zM24.033 23.032v-11.683h-4.17v11.683h4.17z"></path>
</svg>
