<!-- Generated by IcoMoon.io -->
<svg version="1.1" xmlns="http://www.w3.org/2000/svg" width="32" height="32" viewBox="0 0 32 32">
<title>boundaries_circle</title>
<path d="M23.669 12.305h-1.65v-1.056l-1.255-1.717-1.452 1.783v0.99h-1.65v-1.056l-1.255-1.717-1.452 1.783v0.99h-1.65v-1.056l-1.255-1.717-1.452 1.783v0.99h-1.65v-1.056l-1.255-1.717-1.452 1.783v0.99h-0.792v1.717h0.792v4.622h-0.792v1.717h0.792v1.717h2.708v-1.717h1.65v1.717h2.708v-1.717h1.65v1.717h2.708v-1.717h1.65v1.717h2.708v-1.717h1.65v1.717h2.708v-1.717h0.857v-1.717h-0.857v-4.622h0.857v-1.717h-0.857v-1.056l-1.255-1.717-1.452 1.783v0.99zM23.669 14.021v4.622h-1.65v-4.622h1.65zM8.947 14.021h1.65v4.622h-1.65v-4.622zM19.311 14.021v4.622h-1.65v-4.622h1.65zM14.954 18.643h-1.65v-4.622h1.65v4.622zM16 32c-8.837 0-16-7.163-16-16s7.163-16 16-16c8.837 0 16 7.163 16 16s-7.163 16-16 16z"></path>
</svg>
