<!-- Generated by IcoMoon.io -->
<svg version="1.1" xmlns="http://www.w3.org/2000/svg" width="42" height="32" viewBox="0 0 42 32">
<title>climate</title>
<path d="M17.501 31.591c-0.020 0-0.039 0-0.059 0-3.341 0-6.050-2.709-6.050-6.050 0-2.862 1.987-5.259 4.656-5.889-0.001-0.054-0.001-0.107-0.001-0.161 0-4.82 3.907-8.727 8.727-8.727 3.751 0 6.949 2.366 8.183 5.687 0.507-0.105 1.032-0.16 1.571-0.16 4.262 0 7.717 3.455 7.717 7.717 0 3.92-2.922 7.157-6.707 7.652v0.049h-0.502c-0.168 0.011-0.337 0.016-0.508 0.016s-0.34-0.006-0.508-0.016h-16.518v-0.118zM11.403 20.429c-2.086-1.133-3.502-3.343-3.502-5.884 0-3.695 2.996-6.691 6.691-6.691 2.102 0 3.978 0.969 5.204 2.486-3.065 1.354-5.204 4.421-5.204 7.987 0 0.054 0.001 0.108 0.001 0.161-1.262 0.298-2.371 0.99-3.19 1.94zM14.414 0c0.597 0 1.081 0.484 1.081 1.081v5.045c0 0.597-0.484 1.081-1.081 1.081v0c-0.597 0-1.081-0.484-1.081-1.081v-5.045c0-0.597 0.484-1.081 1.081-1.081zM24.607 4.222c0.422 0.422 0.422 1.107 0 1.529l-3.567 3.567c-0.422 0.422-1.107 0.422-1.529 0v0 0c-0.422-0.422-0.422-1.107 0-1.529l3.567-3.567c0.422-0.422 1.107-0.422 1.529 0zM4.222 24.607c-0.422-0.422-0.422-1.107 0-1.529l3.567-3.567c0.422-0.422 1.107-0.422 1.529 0s0.422 1.107 0 1.529l-3.567 3.567c-0.422 0.422-1.107 0.422-1.529 0zM0 14.414c0-0.597 0.484-1.081 1.081-1.081h5.045c0.597 0 1.081 0.484 1.081 1.081s-0.484 1.081-1.081 1.081h-5.045c-0.597 0-1.081-0.484-1.081-1.081zM4.222 4.222v0c0.422-0.422 1.107-0.422 1.529 0l3.567 3.567c0.422 0.422 0.422 1.107 0 1.529v0 0c-0.422 0.422-1.107 0.422-1.529 0l-3.567-3.567c-0.422-0.422-0.422-1.107 0-1.529v0z"></path>
</svg>
