<!-- Generated by IcoMoon.io -->
<svg version="1.1" xmlns="http://www.w3.org/2000/svg" width="32" height="32" viewBox="0 0 32 32">
<title>climate_circle</title>
<path d="M12.726 23.192v0.064h8.894c0.090 0.006 0.182 0.009 0.274 0.009s0.183-0.003 0.274-0.009h0.27v-0.026c2.038-0.266 3.612-2.010 3.612-4.12 0-2.295-1.86-4.155-4.155-4.155-0.29 0-0.573 0.030-0.846 0.086-0.665-1.788-2.387-3.062-4.406-3.062-0.675 0-1.317 0.142-1.897 0.399-0.661-0.816-1.671-1.338-2.802-1.338-1.99 0-3.603 1.613-3.603 3.603 0 1.368 0.763 2.558 1.886 3.168-0.492 0.571-0.789 1.314-0.789 2.126 0 1.799 1.459 3.258 3.258 3.258 0.011 0 0.021-0 0.032-0zM16 32c-8.837 0-16-7.163-16-16s7.163-16 16-16c8.837 0 16 7.163 16 16s-7.163 16-16 16zM11.847 6.809c-0.322 0-0.582 0.261-0.582 0.582v2.716c0 0.322 0.261 0.582 0.582 0.582s0.582-0.261 0.582-0.582v-2.716c0-0.322-0.261-0.582-0.582-0.582zM17.335 9.082c-0.227-0.227-0.596-0.227-0.823 0l-1.921 1.921c-0.227 0.227-0.227 0.596 0 0.823s0.596 0.227 0.823 0l1.921-1.921c0.227-0.227 0.227-0.596 0-0.823zM6.358 20.058c0.227 0.227 0.596 0.227 0.823 0l1.921-1.921c0.227-0.227 0.227-0.596 0-0.823s-0.596-0.227-0.823 0l-1.921 1.921c-0.227 0.227-0.227 0.596 0 0.823zM4.085 14.57c0 0.322 0.261 0.582 0.582 0.582h2.716c0.322 0 0.582-0.261 0.582-0.582s-0.261-0.582-0.582-0.582h-2.716c-0.322 0-0.582 0.261-0.582 0.582zM6.358 9.082c-0.227 0.227-0.227 0.596 0 0.823l1.921 1.921c0.227 0.227 0.596 0.227 0.823 0s0.227-0.596 0-0.823l-1.921-1.921c-0.227-0.227-0.596-0.227-0.823 0z"></path>
</svg>
