<!-- Generated by IcoMoon.io -->
<svg version="1.1" xmlns="http://www.w3.org/2000/svg" width="32" height="32" viewBox="0 0 32 32">
<title>conservancies_circle</title>
<path d="M16 32c-8.837 0-16-7.163-16-16s7.163-16 16-16c8.837 0 16 7.163 16 16s-7.163 16-16 16zM4.766 15.028v4.169h6.21c0 0 5.046 3.784 5.32 4.004s0.823 0.439 1.536 0.384c0.713-0.055 6.527 0 7.020 0s1.71 0.069 1.7-1.097c-0.008-0.934-0.063-1.425-1.667-1.426-1.511-0.001-4.064-0.003-4.064-0.003s-0.412 1.319-1.399 1.429c-0.987 0.11-1.459-0.321-1.897-0.76-0.131-0.131-1.423-1.414-1.688-1.669-0.454-0.437 0.195-0.876 0.513-0.546 0.803 0.832 1.949 1.978 1.949 1.978s0.655 0.494 1.376-0.021c0.721-0.515 0.464-1.236 0.155-1.545s-4.101-4.146-4.481-4.429c-0.628-0.468-1.13-0.473-1.957-0.468-0.436 0.002-8.626 0-8.626 0zM23.673 11.681c-0.418 0.409-0.652 0.94-0.704 1.592-0.017 0.207-0.003 0.586 0.044 1.135 0.122-0.128 0.238-0.244 0.348-0.347 0.464-0.421 0.989-0.757 1.574-1.007 0.36-0.141 0.681-0.266 0.965-0.375 0.122-0.049 0.241-0.094 0.357-0.137-0.006 0.006-0.012 0.009-0.017 0.009-0.070 0.067-0.151 0.14-0.244 0.219-0.238 0.189-0.563 0.4-0.974 0.631-0.597 0.348-1.052 0.674-1.365 0.98-0.232 0.226-0.421 0.436-0.565 0.631-0.023 0.018-0.041 0.043-0.052 0.073l-0.009 0.009c-0.023 0.019-0.041 0.040-0.052 0.064-0.017 0.018-0.038 0.040-0.061 0.064-0.139 0.219-0.267 0.46-0.383 0.723-0.023 0.061-0.026 0.119-0.009 0.174 0.029 0.055 0.069 0.098 0.122 0.128 0.052 0.024 0.104 0.028 0.157 0.009 0.052-0.025 0.096-0.064 0.13-0.119 0.104-0.256 0.226-0.479 0.365-0.668 0.017-0.018 0.026-0.030 0.026-0.036l0.009-0.009c0.939 0.488 1.774 0.662 2.505 0.522 0.696-0.14 1.348-0.509 1.957-1.107 0.701-0.677 1.154-1.547 1.357-2.608 0.22-1.092 0.148-2.184-0.217-3.276-0.058 0.098-0.142 0.226-0.252 0.384-0.203 0.281-0.365 0.482-0.487 0.604-0.481 0.47-1.273 0.793-2.374 0.97-0.568 0.098-0.957 0.177-1.165 0.238-0.412 0.122-0.739 0.299-0.983 0.531zM21.508 14.042c0.052-0.683 0.061-1.156 0.026-1.419-0.087-0.793-0.4-1.44-0.939-1.94-0.301-0.281-0.707-0.491-1.218-0.631-0.261-0.067-0.751-0.147-1.47-0.238-1.369-0.189-2.36-0.564-2.974-1.126-0.162-0.146-0.371-0.387-0.626-0.723-0.145-0.201-0.253-0.36-0.322-0.476-0.423 1.373-0.481 2.73-0.174 4.073 0.296 1.312 0.884 2.376 1.765 3.194 0.783 0.72 1.612 1.153 2.487 1.3 0.899 0.165 1.931-0.082 3.096-0.741l0.009 0.009c0 0.006 0.011 0.021 0.035 0.046 0.174 0.238 0.336 0.506 0.487 0.805 0.029 0.073 0.078 0.125 0.148 0.156 0.064 0.018 0.128 0.012 0.191-0.018 0.070-0.036 0.119-0.092 0.148-0.165 0.023-0.073 0.020-0.14-0.009-0.201-0.157-0.329-0.33-0.625-0.522-0.888-0.012-0.036-0.029-0.064-0.052-0.082-0.023-0.031-0.046-0.058-0.069-0.083-0.006-0.006-0.012-0.009-0.018-0.009-0.023-0.037-0.044-0.067-0.061-0.092-0.197-0.232-0.441-0.485-0.73-0.76-0.4-0.36-0.974-0.748-1.722-1.162-0.516-0.281-0.928-0.534-1.235-0.76-0.122-0.092-0.226-0.177-0.313-0.256-0.006 0-0.012-0.003-0.017-0.009 0.139 0.043 0.284 0.095 0.435 0.156 0.371 0.122 0.78 0.262 1.226 0.421 0.736 0.299 1.394 0.696 1.974 1.19 0.15 0.135 0.299 0.278 0.443 0.43z"></path>
</svg>
