<!-- Generated by IcoMoon.io -->
<svg version="1.1" xmlns="http://www.w3.org/2000/svg" width="48" height="32" viewBox="0 0 48 32">
<title>conservancies</title>
<path d="M0 14.762v8.163h12.162c0 0 9.882 7.411 10.419 7.841s1.611 0.859 3.008 0.752c1.396-0.108 12.782 0 13.748 0s3.35 0.135 3.33-2.149c-0.016-1.829-0.123-2.79-3.265-2.792-2.958-0.003-7.958-0.006-7.958-0.006s-0.807 2.584-2.741 2.798c-1.934 0.215-2.857-0.628-3.716-1.487-0.256-0.256-2.787-2.769-3.305-3.268-0.888-0.856 0.381-1.715 1.005-1.069 1.572 1.63 3.816 3.874 3.816 3.874s1.283 0.967 2.694-0.041c1.412-1.009 0.908-2.421 0.303-3.026s-8.031-8.12-8.775-8.674c-1.23-0.917-2.214-0.925-3.832-0.917-0.854 0.004-16.893 0-16.893 0z"></path>
<path d="M37.027 8.209c0.477-0.455 1.118-0.801 1.925-1.040 0.408-0.12 1.169-0.275 2.282-0.466 2.158-0.347 3.707-0.979 4.65-1.899 0.238-0.239 0.556-0.634 0.953-1.183 0.216-0.311 0.38-0.561 0.494-0.753 0.715 2.139 0.857 4.278 0.426 6.416-0.398 2.079-1.283 3.781-2.657 5.108-1.192 1.171-2.47 1.894-3.832 2.168-1.43 0.275-3.066-0.066-4.905-1.022l-0.017 0.018c0 0.012-0.017 0.036-0.051 0.071-0.273 0.37-0.511 0.807-0.715 1.308-0.068 0.107-0.154 0.185-0.255 0.233-0.103 0.036-0.204 0.029-0.307-0.018-0.103-0.059-0.182-0.143-0.238-0.251-0.035-0.108-0.029-0.221 0.017-0.341 0.227-0.514 0.477-0.986 0.75-1.416 0.045-0.048 0.085-0.090 0.119-0.125 0.022-0.048 0.057-0.090 0.102-0.126l0.017-0.018c0.022-0.059 0.057-0.108 0.103-0.143 0.283-0.382 0.653-0.795 1.107-1.236 0.613-0.598 1.504-1.237 2.674-1.918 0.806-0.454 1.442-0.866 1.908-1.236 0.182-0.156 0.341-0.299 0.477-0.43 0.011 0 0.022-0.006 0.034-0.018-0.227 0.084-0.46 0.174-0.699 0.269-0.556 0.215-1.186 0.46-1.89 0.735-1.147 0.489-2.175 1.147-3.083 1.972-0.216 0.203-0.442 0.43-0.681 0.68-0.091-1.075-0.119-1.816-0.085-2.222 0.102-1.278 0.562-2.317 1.38-3.118zM32.786 12.832c-0.283-0.298-0.574-0.579-0.868-0.842-1.136-0.967-2.424-1.744-3.866-2.33-0.875-0.31-1.675-0.585-2.402-0.824-0.295-0.12-0.579-0.221-0.852-0.305 0.011 0.013 0.022 0.018 0.034 0.018 0.17 0.156 0.375 0.323 0.613 0.502 0.602 0.442 1.408 0.938 2.418 1.488 1.465 0.812 2.589 1.571 3.372 2.276 0.567 0.538 1.044 1.033 1.43 1.488 0.034 0.048 0.074 0.107 0.119 0.179 0.011 0 0.022 0.006 0.035 0.018 0.045 0.048 0.091 0.101 0.136 0.162 0.046 0.036 0.080 0.090 0.103 0.161 0.375 0.514 0.715 1.094 1.022 1.739 0.057 0.12 0.063 0.251 0.017 0.394-0.057 0.143-0.154 0.251-0.29 0.323-0.124 0.060-0.249 0.072-0.375 0.036-0.136-0.059-0.233-0.161-0.29-0.305-0.295-0.585-0.613-1.111-0.954-1.577-0.045-0.048-0.068-0.077-0.068-0.090l-0.017-0.018c-2.282 1.29-4.303 1.774-6.063 1.451-1.714-0.286-3.339-1.135-4.871-2.545-1.725-1.601-2.878-3.686-3.457-6.254-0.602-2.629-0.488-5.287 0.341-7.976 0.136 0.227 0.347 0.538 0.631 0.932 0.499 0.657 0.908 1.129 1.226 1.416 1.203 1.1 3.145 1.834 5.825 2.205 1.408 0.179 2.367 0.335 2.878 0.466 0.999 0.275 1.794 0.687 2.384 1.236 1.057 0.98 1.669 2.247 1.839 3.8 0.068 0.514 0.051 1.44-0.051 2.778z"></path>
</svg>
