<!-- Generated by IcoMoon.io -->
<svg version="1.1" xmlns="http://www.w3.org/2000/svg" width="32" height="32" viewBox="0 0 32 32">
<title>drag</title>
<path d="M16.796 17.616v10.398l4.138-4.178 1.397 1.421-6.526 6.589-6.526-6.589 1.397-1.411 4.138 4.168v-10.398h1.982zM16.79 14.262h-1.982v-10.398l-4.138 4.168-1.397-1.411 6.526-6.589 6.526 6.589-1.397 1.421-4.138-4.178v10.398zM14.125 16.933h-10.398l4.178 4.138-1.421 1.397-6.589-6.526 6.589-6.526 1.411 1.397-4.168 4.138h10.398v1.982zM17.48 16.927v-1.982h10.398l-4.168-4.138 1.411-1.397 6.589 6.526-6.589 6.526-1.421-1.397 4.178-4.138h-10.398z"></path>
</svg>
