<!-- Generated by IcoMoon.io -->
<svg version="1.1" xmlns="http://www.w3.org/2000/svg" width="32" height="32" viewBox="0 0 32 32">
<title>forest_circle</title>
<path d="M16 32c-8.837 0-16-7.163-16-16s7.163-16 16-16c8.837 0 16 7.163 16 16s-7.163 16-16 16zM24.268 11.868c-0.648-0.159-0.558-0.726-2.166-1.315-1.63-0.59-2.679-0.159-3.238-0.159s-1.295-0.839-2.858-0.862c-2.389 0-3.974 0.816-4.421 1.633 0 0.023-0.022 0.023-0.022 0.045-0.447-0.091-1.161-0.113-1.965 0.181-1.005 0.386-1.273 1.111-1.273 1.111s-1.742 0.454-1.876 1.451c-0.067 0.635 0.447 1.089 1.161 0.907 0.223-0.068 0.447-0.136 0.648-0.249 0.134 0.091 0.313 0.181 0.558 0.249 0.625 0.159 1.809-0.295 1.809-0.295v0c0.357 0.068 0.692 0.068 0.871 0 0.447-0.181 1.764 0.635 1.987 0.771 0.089 0.386 0.29 0.884 0.804 1.179 0.96 0.544 0.781 1.996 1.608 2.767 1.451 1.383 0.447 3.175 0.447 3.175h1.451c0 0 0.201-2.291 0.223-3.334 0-0.703 0.938-1.746 1.25-2.676 0.29-0.884 0.201-1.746 0.826-2.109 0.246 0.091 0.759 0.249 1.139 0.249 0.692 0 0.871-0.227 1.675-0.295 0.514-0.045 0.938-0.386 1.183-0.612 0.893 0.204 1.987 0.363 2.344 0.023 0.648-0.59-1.518-1.678-2.166-1.837zM15.917 13.455c0.201 0.023 0.447 0.045 0.67 0.045 0.067 0.113 0.134 0.227 0.201 0.318-0.089 0.091-0.246 0.227-0.469 0.476-0.335 0.363-0.826 0.34-1.072 0.318 0.067-0.363 0.223-0.794 0.67-1.157zM9.263 14.68c-0.201 0.023-0.536-0.068-0.804-0.159 0.313-0.159 0.603-0.34 0.826-0.544 0.223 0.204 0.558 0.363 0.915 0.476-0.179 0.068-0.603 0.181-0.938 0.227zM10.514 14.295c-0.357-0.023-0.848-0.227-1.139-0.363 0.089-0.068 0.156-0.136 0.223-0.204 0 0 0.893 0.454 1.876 0 0.759 0.249 1.451 0.227 1.987 0.113-0.067 0.272-0.089 0.612-0.022 0.93 0 0 0 0.023 0 0.091-0.179-0.068-0.603-0.272-1.027-0.544-0.558-0.363-1.362 0-1.898-0.023zM13.975 13.66c0.558-0.204 0.893-0.476 0.893-0.476 0.134 0.091 0.335 0.159 0.581 0.204-0.134 0.113-0.268 0.249-0.357 0.386-0.201 0.386-0.424 1.633-0.67 2.132-0.045-0.023-0.089-0.068-0.134-0.091-0.581-0.454-0.424-1.656-0.313-2.155zM17.659 17.606c-0.514 0.499-0.558 1.406-0.558 1.406s-0.558-0.068-1.273-1.134c-0.514-0.748-0.692-1.179-1.027-1.588v0c0 0 0.246-0.794 0.357-1.315h0.246c0.648 0 1.049-0.522 1.161-0.68 0.089-0.091 0.223-0.272 0.335-0.386 0 0 0.022 0 0.022 0 0.402 0.159 1.094 0.748 1.094 1.429 0 0.272 0.246 0.885 0.402 1.225-0.223 0.408-0.514 0.794-0.759 1.043zM19.423 14.295c-0.112 0.136-0.357 0.794-0.469 1.225-0.022 0.136-0.112 0.318-0.223 0.544 0 0-0.134-0.839-0.424-1.429-0.268-0.544-1.027-0.907-1.295-1.111 1.206 0 2.434-0.159 2.434-0.159 0.313 0.068 0.759 0.091 1.206 0.113-0.402 0.204-1.161 0.703-1.228 0.816zM23.107 13.909c-0.38 0.023-2.121 0.476-2.545 0.136 0.29-0.227 0.469-0.454 0.536-0.59 0.893-0.023 1.742-0.091 1.742-0.091s0.38 0.136 0.893 0.249c-0.156 0.136-0.402 0.295-0.625 0.295z"></path>
</svg>
