<!-- Generated by IcoMoon.io -->
<svg version="1.1" xmlns="http://www.w3.org/2000/svg" width="50" height="32" viewBox="0 0 50 32">
<title>forest</title>
<path d="M44.028 5.959c-1.6-0.386-1.379-1.766-5.352-3.2-4.028-1.434-6.621-0.386-8-0.386s-3.2-2.041-7.062-2.097c-5.903 0-9.821 1.986-10.924 3.972 0 0.055-0.055 0.055-0.055 0.11-1.103-0.221-2.869-0.276-4.855 0.441-2.483 0.938-3.145 2.703-3.145 2.703s-4.303 1.103-4.634 3.531c-0.166 1.545 1.103 2.648 2.869 2.207 0.552-0.166 1.103-0.331 1.6-0.607 0.331 0.221 0.772 0.441 1.379 0.607 1.545 0.386 4.469-0.717 4.469-0.717v0c0.883 0.166 1.71 0.166 2.152 0 1.103-0.441 4.359 1.545 4.91 1.876 0.221 0.938 0.717 2.152 1.986 2.869 2.372 1.324 1.931 4.855 3.972 6.731 3.586 3.366 1.103 7.724 1.103 7.724h3.586c0 0 0.497-5.572 0.552-8.11 0-1.71 2.317-4.248 3.090-6.51 0.717-2.152 0.497-4.248 2.041-5.131 0.607 0.221 1.876 0.607 2.814 0.607 1.71 0 2.152-0.552 4.138-0.717 1.269-0.11 2.317-0.938 2.924-1.49 2.207 0.497 4.91 0.883 5.793 0.055 1.6-1.434-3.752-4.083-5.352-4.469zM23.393 9.821c0.497 0.055 1.103 0.11 1.655 0.11 0.166 0.276 0.331 0.552 0.497 0.772-0.221 0.221-0.607 0.552-1.159 1.159-0.828 0.883-2.041 0.828-2.648 0.772 0.166-0.883 0.552-1.931 1.655-2.814zM6.952 12.8c-0.497 0.055-1.324-0.166-1.986-0.386 0.772-0.386 1.49-0.828 2.041-1.324 0.552 0.497 1.379 0.883 2.262 1.159-0.441 0.166-1.49 0.441-2.317 0.552zM10.041 11.862c-0.883-0.055-2.097-0.552-2.814-0.883 0.221-0.166 0.386-0.331 0.552-0.497 0 0 2.207 1.103 4.634 0 1.876 0.607 3.586 0.552 4.91 0.276-0.166 0.662-0.221 1.49-0.055 2.262 0 0 0 0.055 0 0.221-0.441-0.166-1.49-0.662-2.538-1.324-1.379-0.883-3.366 0-4.69-0.055zM18.593 10.317c1.379-0.497 2.207-1.159 2.207-1.159 0.331 0.221 0.828 0.386 1.434 0.497-0.331 0.276-0.662 0.607-0.883 0.938-0.497 0.938-1.048 3.972-1.655 5.186-0.11-0.055-0.221-0.166-0.331-0.221-1.434-1.103-1.048-4.028-0.772-5.241zM27.697 19.917c-1.269 1.214-1.379 3.421-1.379 3.421s-1.379-0.166-3.145-2.759c-1.269-1.821-1.71-2.869-2.538-3.862v0c0 0 0.607-1.931 0.883-3.2h0.607c1.6 0 2.593-1.269 2.869-1.655 0.221-0.221 0.552-0.662 0.828-0.938 0 0 0.055 0 0.055 0 0.993 0.386 2.703 1.821 2.703 3.476 0 0.662 0.607 2.152 0.993 2.979-0.552 0.993-1.269 1.931-1.876 2.538zM32.055 11.862c-0.276 0.331-0.883 1.931-1.159 2.979-0.055 0.331-0.276 0.772-0.552 1.324 0 0-0.331-2.041-1.048-3.476-0.662-1.324-2.538-2.207-3.2-2.703 2.979 0 6.014-0.386 6.014-0.386 0.772 0.166 1.876 0.221 2.979 0.276-0.993 0.497-2.869 1.71-3.034 1.986zM41.159 10.924c-0.938 0.055-5.241 1.159-6.29 0.331 0.717-0.552 1.159-1.103 1.324-1.434 2.207-0.055 4.303-0.221 4.303-0.221s0.938 0.331 2.207 0.607c-0.386 0.331-0.993 0.717-1.545 0.717z"></path>
</svg>
