<!-- Generated by IcoMoon.io -->
<svg version="1.1" xmlns="http://www.w3.org/2000/svg" width="32" height="32" viewBox="0 0 32 32">
<title>hide-eye</title>
<path d="M32 16c-3.065-4.967-9.078-10-16-10-6.905 0-12.935 5.033-16 10 3.065 4.967 9.095 10 16 10 6.922 0 12.935-5.033 16-10v0zM19.583 10.217l-1.843 2.178c-0.514-0.328-1.107-0.515-1.74-0.515-1.985 0-3.58 1.84-3.58 4.12 0 0.767 0.18 1.484 0.495 2.098l-2.013 2.38c-1.035-1.198-1.662-2.764-1.662-4.477 0-3.767 3.031-6.82 6.76-6.82 1.315 0 2.544 0.38 3.583 1.037zM21.098 11.523c1.035 1.198 1.662 2.764 1.662 4.477 0 3.767-3.031 6.82-6.76 6.82-1.315 0-2.544-0.38-3.583-1.037l1.843-2.178c0.514 0.328 1.107 0.515 1.74 0.515 1.985 0 3.58-1.84 3.58-4.12 0-0.767-0.18-1.484-0.495-2.098l2.013-2.38z"></path>
<path d="M26.883 1.591l-23.292 27.527 1.527 1.292 23.292-27.527z"></path>
</svg>
