<!-- Generated by IcoMoon.io -->
<svg version="1.1" xmlns="http://www.w3.org/2000/svg" width="32" height="32" viewBox="0 0 32 32">
<title>info</title>
<path d="M14.655 19.655h2.251v-1.649c0-0.691 0.134-1.114 1.025-1.76l0.936-0.691c1.047-0.758 1.649-1.426 1.649-2.808l-0.022-0.98c-0.022-1.604-0.936-3.766-4.747-3.766-3.499 0-4.747 1.783-4.747 4.145v1.27l2.251 0.089v-1.404c0-1.382 0.557-2.318 2.407-2.318 1.872 0 2.496 0.98 2.496 2.184v0.535c0 0.49-0.134 1.025-1.114 1.716l-0.958 0.691c-1.092 0.78-1.426 1.426-1.426 2.696v2.050zM14.61 24h2.318v-2.585h-2.318v2.585z"></path>
<path d="M16 32c-8.837 0-16-7.163-16-16s7.163-16 16-16c8.837 0 16 7.163 16 16s-7.163 16-16 16zM16 29.091c7.23 0 13.091-5.861 13.091-13.091s-5.861-13.091-13.091-13.091c-7.23 0-13.091 5.861-13.091 13.091s5.861 13.091 13.091 13.091z"></path>
</svg>
