<!-- Generated by IcoMoon.io -->
<svg version="1.1" xmlns="http://www.w3.org/2000/svg" width="32" height="32" viewBox="0 0 32 32">
<title>infrastructure_circle</title>
<path d="M18.031 11.327c2.233-0.759 3.474-1.069 6.452-1.546 3.235-0.518 3.432-0.42 3.432-0.42l-0.444-0.494c0 0-10.691-0.222-14.123 0.987s-5.975 3.457-6.79 6.271c-0.815 2.815-0.222 6.296-0.222 6.296h6.148c0 0-1.827-2.988-1.876-4.568s-0.173-4.79 2.494-6.222c1.042-0.559 2.064-0.945 2.963-1.217v0.226c-1.321 0.542-2.756 1.348-3.556 2.472-1.855 2.609-0.691 5.432-0.518 5.901s1.654 3.407 1.654 3.407h7.358c0 0-4.839-4.741-5.555-6.197-0.372-0.758-0.533-1.749-0.231-2.655h0.716v0.699h-0.741v0.938h3.827v-0.938h-0.741v-0.699h0.363v-0.744h0.012v-0.787h-0.375v-0.67c-0.081 0.025-0.163 0.050-0.246 0.075v-0.117zM18.031 9.934c0.231-0.045 0.433-0.081 0.598-0.111-0.161 0.037-0.364 0.088-0.598 0.152v-0.041zM16 32c-8.837 0-16-7.163-16-16s7.163-16 16-16c8.837 0 16 7.163 16 16s-7.163 16-16 16z"></path>
</svg>
