<!-- Generated by IcoMoon.io -->
<svg version="1.1" xmlns="http://www.w3.org/2000/svg" width="52" height="32" viewBox="0 0 52 32">
<title>infrastructure</title>
<path d="M28.019 5.828v0.275c0.195-0.060 0.387-0.12 0.579-0.177v1.578h0.884v1.852h-0.028v1.751h-0.855v1.646h1.743v2.209h-9.008v-2.209h1.743v-1.646h-1.685c-0.711 2.132-0.333 4.465 0.543 6.249 1.685 3.429 13.076 14.587 13.076 14.587h-17.319c0 0-3.487-6.916-3.894-8.020s-3.145-7.749 1.22-13.89c1.882-2.646 5.26-4.544 8.37-5.819v-0.532c-2.116 0.639-4.523 1.548-6.975 2.865-6.277 3.371-5.986 10.926-5.87 14.645s4.417 10.751 4.417 10.751h-14.471c0 0-1.394-8.194 0.523-14.82s7.904-11.914 15.982-14.762c8.078-2.847 33.243-2.324 33.243-2.324l1.046 1.162c0 0-0.465-0.232-8.078 0.988-7.009 1.124-9.93 1.854-15.186 3.64zM28.019 2.548v0.097c0.551-0.151 1.029-0.27 1.407-0.358-0.389 0.070-0.863 0.155-1.407 0.261z"></path>
</svg>
