<!-- Generated by IcoMoon.io -->
<svg version="1.1" xmlns="http://www.w3.org/2000/svg" width="53" height="32" viewBox="0 0 53 32">
<title>integration</title>
<path d="M52.366 11.838l-6.814-10.793c-0.382-0.605-1.184-0.784-1.787-0.397l-2.997 1.92c-0.597 0.383-0.773 1.175-0.395 1.775l6.814 10.793c0.382 0.605 1.184 0.784 1.787 0.397l2.997-1.92c0.597-0.383 0.773-1.175 0.395-1.775z"></path>
<path d="M18.115 23.36l0.508-0.745c0.223-0.327 0.303-0.721 0.225-1.109s-0.303-0.721-0.635-0.937c-0.243-0.158-0.518-0.233-0.791-0.233-0.468 0-0.931 0.223-1.211 0.634l-1.475 2.159c-0.014 0.022-0.023 0.047-0.038 0.069-0.546 0.804-1.191 1.752-1.736 2.549-0.024 0.035-0.054 0.062-0.079 0.095l-0.378 0.553c-0.447 0.656-0.284 1.56 0.365 2.017 0.327 0.23 0.718 0.318 1.105 0.245 0.388-0.070 0.723-0.288 0.945-0.614l0.256-0.376c0.042-0.076 0.074-0.157 0.124-0.229l2.777-4.035c0.011-0.016 0.025-0.027 0.037-0.043z"></path>
<path d="M40.102 6.218c-0.223-0.354-0.668-0.497-1.055-0.341l-1.162 0.469c-0.407 0.164-0.853 0.203-1.282 0.113l-3.962-0.832c-2.078-0.436-4.222-0.461-6.309-0.073l-3.727 0.692c-0.944 0.175-1.789 0.693-2.374 1.454l-3.177 4.133c-0.161 0.209-0.23 0.468-0.195 0.729s0.17 0.493 0.381 0.652c0.301 0.228 0.712 0.262 1.047 0.087l6.752-3.529c0.707-0.37 1.558-0.33 2.228 0.104l14.526 9.414c0.161 0.104 0.307 0.223 0.442 0.352l3.456-3.266c0.301-0.284 0.358-0.741 0.137-1.091l-5.725-9.068z"></path>
<path d="M23.339 27.51c-0.216-0.178-0.478-0.271-0.751-0.271-0.055 0-0.111 0.004-0.166 0.011-0.298 0.041-0.558 0.193-0.747 0.422l-1.528 2.222c-0.111 0.253-0.133 0.537-0.054 0.808 0.102 0.347 0.352 0.625 0.686 0.763 0.519 0.214 1.106 0.042 1.427-0.419l1.352-1.94c0.352-0.505 0.255-1.206-0.22-1.596z"></path>
<path d="M20.663 26.972l0.836-1.216c0.429-0.624 0.304-1.486-0.285-1.962-0.264-0.213-0.582-0.326-0.913-0.326-0.071 0-0.143 0.005-0.215 0.016-0.388 0.056-0.723 0.261-0.956 0.573l-2.942 4.314c-0.132 0.292-0.166 0.615-0.088 0.936 0.099 0.409 0.357 0.743 0.727 0.943 0.659 0.353 1.474 0.157 1.896-0.457l0.414-0.602c0.038-0.068 0.066-0.14 0.111-0.204l1.352-1.941c0.019-0.027 0.044-0.047 0.063-0.073z"></path>
<path d="M41.122 20.324l-14.526-9.414c-0.296-0.193-0.675-0.21-0.989-0.046l-6.655 3.479c-0.736 0.385-1.642 0.397-2.336-0.061-0.664-0.438-1.039-1.178-0.996-1.993 0.025-0.459 0.217-0.895 0.498-1.26l2.691-3.5-2.903-0.461c-0.234-0.037-0.461-0.112-0.672-0.221l-0.628-0.326c-0.758-0.394-1.691-0.141-2.147 0.581l-4.791 7.589c-0.366 0.579-0.334 1.325 0.080 1.871l2.511 3.311c0.073 0.096 0.21 0.096 0.292 0.009 0.85-0.904 2.235-1.116 3.321-0.446 0.39 0.24 0.699 0.558 0.917 0.929 0.074 0.125 0.246 0.142 0.329 0.021l0.013-0.019c0.776-1.136 2.288-1.601 3.51-0.969 0.744 0.385 1.251 1.061 1.413 1.867 0.052 0.259 0.062 0.519 0.037 0.775-0.011 0.116 0.075 0.211 0.192 0.21 0.616-0.004 1.221 0.197 1.704 0.588 0.888 0.719 1.203 1.915 0.853 2.956-0.039 0.116 0.030 0.23 0.15 0.251 0.845 0.145 1.604 0.738 1.902 1.662 0.236 0.732 0.070 1.536-0.369 2.167l-0.317 0.455c-0.081 0.116-0.012 0.277 0.128 0.298l3.758 0.575c0.827 0.127 1.647 0.013 2.384-0.307 0.47-0.205 0.468-0.88 0.010-1.112l-3.415-1.734c-0.303-0.154-0.424-0.524-0.27-0.827s0.525-0.424 0.827-0.27l4.755 2.414c0.838 0.426 1.85 0.149 2.356-0.642 0.221-0.299 0.294-0.621 0.231-0.943s-0.251-0.593-0.531-0.764l-1.098-0.67-4.44-2.42c-0.298-0.163-0.409-0.536-0.246-0.835s0.536-0.41 0.835-0.246l6.141 3.347c0.897 0.489 2.040 0.203 2.602-0.651 0.183-0.279 0.243-0.611 0.169-0.937s-0.273-0.599-0.559-0.77l-7.042-4.214c-0.291-0.174-0.386-0.552-0.212-0.844s0.552-0.387 0.844-0.212l6.285 3.761c0 0 0 0 0 0l1.481 0.886c0.817 0.489 1.972 0.276 2.464-0.539 0.227-0.376 0.303-0.817 0.212-1.249-0.096-0.456-0.363-0.846-0.754-1.099z"></path>
<path d="M13.895 21.411c-0.082-0.384-0.312-0.709-0.647-0.916-0.243-0.15-0.51-0.221-0.773-0.221-0.453 0-0.892 0.214-1.166 0.605l-1.758 2.514c-0.447 0.639-0.293 1.527 0.342 1.979l0.057 0.041c0.308 0.219 0.69 0.304 1.071 0.238 0.337-0.060 0.629-0.239 0.844-0.501l1.851-2.711c0.187-0.31 0.254-0.671 0.177-1.028z"></path>
<path d="M12.091 2.965l-2.94-1.856c-0.602-0.38-1.399-0.2-1.779 0.402l-6.814 10.793c-0.38 0.602-0.2 1.399 0.402 1.779l2.94 1.856c0.602 0.38 1.399 0.2 1.779-0.402l6.814-10.793c0.38-0.602 0.2-1.399-0.402-1.779z"></path>
</svg>
