<!-- Generated by IcoMoon.io -->
<svg version="1.1" xmlns="http://www.w3.org/2000/svg" width="32" height="32" viewBox="0 0 32 32">
<title>integration_circle</title>
<path d="M16 32c-8.837 0-16-7.163-16-16s7.163-16 16-16c8.837 0 16 7.163 16 16s-7.163 16-16 16zM26.338 14.746l-2.63-4.133c-0.147-0.232-0.457-0.3-0.69-0.152l-1.157 0.735c-0.23 0.146-0.298 0.45-0.152 0.68l2.63 4.133c0.148 0.232 0.457 0.3 0.69 0.152l1.157-0.735c0.23-0.146 0.298-0.45 0.152-0.68zM13.119 19.159l0.196-0.285c0.086-0.125 0.117-0.276 0.087-0.425s-0.117-0.276-0.245-0.359c-0.094-0.061-0.2-0.089-0.305-0.089-0.181 0-0.359 0.085-0.467 0.243l-0.569 0.827c-0.005 0.009-0.009 0.018-0.014 0.027-0.211 0.308-0.459 0.671-0.67 0.976-0.009 0.013-0.021 0.024-0.031 0.036l-0.146 0.212c-0.173 0.251-0.109 0.598 0.141 0.773 0.126 0.088 0.277 0.122 0.426 0.094s0.279-0.11 0.365-0.235l0.099-0.144c0.016-0.029 0.029-0.060 0.048-0.088l1.072-1.546c0.004-0.006 0.010-0.011 0.014-0.016zM21.605 12.594c-0.086-0.135-0.258-0.19-0.407-0.13l-0.448 0.179c-0.157 0.063-0.329 0.078-0.495 0.043l-1.529-0.319c-0.802-0.167-1.629-0.177-2.435-0.028l-1.438 0.265c-0.364 0.067-0.691 0.265-0.916 0.557l-1.226 1.583c-0.062 0.080-0.089 0.179-0.075 0.279s0.066 0.189 0.147 0.25c0.116 0.087 0.275 0.1 0.404 0.033l2.606-1.352c0.273-0.142 0.601-0.126 0.86 0.040l5.606 3.605c0.062 0.040 0.119 0.085 0.171 0.135l1.334-1.251c0.116-0.109 0.138-0.284 0.053-0.418l-2.21-3.473zM15.135 20.749c-0.084-0.068-0.184-0.104-0.29-0.104-0.021 0-0.043 0.001-0.064 0.004-0.115 0.016-0.215 0.074-0.288 0.162l-0.59 0.851c-0.043 0.097-0.051 0.206-0.021 0.309 0.039 0.133 0.136 0.239 0.265 0.292 0.2 0.082 0.427 0.016 0.551-0.16l0.522-0.743c0.136-0.193 0.098-0.462-0.085-0.611zM14.102 20.542l0.323-0.466c0.166-0.239 0.117-0.569-0.11-0.751-0.102-0.082-0.225-0.125-0.353-0.125-0.027 0-0.055 0.002-0.083 0.006-0.15 0.021-0.279 0.1-0.369 0.22l-1.136 1.652c-0.051 0.112-0.064 0.236-0.034 0.358 0.038 0.157 0.138 0.285 0.281 0.361 0.254 0.135 0.569 0.060 0.732-0.175l0.16-0.23c0.015-0.026 0.025-0.054 0.043-0.078l0.522-0.743c0.007-0.010 0.017-0.018 0.024-0.028zM21.999 17.996l-5.606-3.605c-0.114-0.074-0.261-0.081-0.382-0.018l-2.568 1.332c-0.284 0.147-0.634 0.152-0.901-0.023-0.256-0.168-0.401-0.451-0.384-0.763 0.010-0.176 0.084-0.343 0.192-0.482l1.038-1.34-1.12-0.177c-0.091-0.014-0.178-0.043-0.259-0.085l-0.242-0.125c-0.293-0.151-0.653-0.054-0.829 0.223l-1.849 2.906c-0.141 0.222-0.129 0.507 0.031 0.716l0.969 1.268c0.028 0.037 0.081 0.037 0.113 0.003 0.328-0.346 0.863-0.427 1.282-0.171 0.15 0.092 0.27 0.214 0.354 0.356 0.028 0.048 0.095 0.054 0.127 0.008l0.005-0.007c0.3-0.435 0.883-0.613 1.355-0.371 0.287 0.147 0.483 0.406 0.545 0.715 0.020 0.099 0.024 0.199 0.014 0.297-0.004 0.045 0.029 0.081 0.074 0.080 0.238-0.002 0.471 0.075 0.658 0.225 0.343 0.275 0.464 0.733 0.329 1.132-0.015 0.044 0.011 0.088 0.058 0.096 0.326 0.056 0.619 0.283 0.734 0.637 0.091 0.28 0.027 0.588-0.143 0.83l-0.122 0.174c-0.031 0.044-0.005 0.106 0.049 0.114l1.451 0.22c0.319 0.049 0.636 0.005 0.92-0.118 0.182-0.078 0.18-0.337 0.004-0.426l-1.318-0.664c-0.117-0.059-0.164-0.201-0.104-0.317s0.203-0.162 0.319-0.103l1.835 0.925c0.323 0.163 0.714 0.057 0.909-0.246 0.085-0.115 0.113-0.238 0.089-0.361s-0.097-0.227-0.205-0.293l-0.424-0.257-1.714-0.927c-0.115-0.062-0.158-0.205-0.095-0.32s0.207-0.157 0.322-0.094l2.37 1.282c0.346 0.187 0.787 0.078 1.004-0.249 0.071-0.107 0.094-0.234 0.065-0.359s-0.105-0.229-0.216-0.295l-2.718-1.614c-0.113-0.067-0.149-0.212-0.082-0.323s0.213-0.148 0.326-0.081l2.426 1.44c0 0 0 0 0 0l0.571 0.339c0.315 0.187 0.761 0.106 0.951-0.206 0.088-0.144 0.117-0.313 0.082-0.479-0.037-0.175-0.14-0.324-0.291-0.421zM11.49 18.413c-0.032-0.147-0.12-0.272-0.25-0.351-0.094-0.057-0.197-0.085-0.298-0.085-0.175 0-0.344 0.082-0.45 0.232l-0.678 0.963c-0.172 0.245-0.113 0.585 0.132 0.758l0.022 0.016c0.119 0.084 0.266 0.117 0.413 0.091 0.13-0.023 0.243-0.092 0.326-0.192l0.715-1.038c0.072-0.119 0.098-0.257 0.068-0.394zM10.794 11.348l-1.135-0.711c-0.232-0.146-0.54-0.077-0.687 0.154l-2.63 4.134c-0.147 0.231-0.077 0.536 0.155 0.681l1.135 0.711c0.232 0.146 0.54 0.077 0.687-0.154l2.63-4.134c0.147-0.231 0.077-0.536-0.155-0.681z"></path>
</svg>
