<!-- Generated by IcoMoon.io -->
<svg version="1.1" xmlns="http://www.w3.org/2000/svg" width="30" height="32" viewBox="0 0 30 32">
<title>location</title>
<path d="M16.705 4.501c4.392 0.763 7.857 4.228 8.62 8.62h4.428v3.657h-4.428c-0.763 4.392-4.228 7.857-8.62 8.62v4.501h-3.657v-4.501c-4.392-0.763-7.857-4.228-8.62-8.62h-4.428v-3.657h4.428c0.763-4.392 4.228-7.857 8.62-8.62v-4.501h3.657v4.501zM14.877 22.629c4.242 0 7.68-3.438 7.68-7.68s-3.438-7.68-7.68-7.68c-4.242 0-7.68 3.438-7.68 7.68s3.438 7.68 7.68 7.68z"></path>
</svg>
