<!-- Generated by IcoMoon.io -->
<svg version="1.1" xmlns="http://www.w3.org/2000/svg" width="39" height="32" viewBox="0 0 39 32">
<title>population</title>
<path d="M10.579 5.819c1.771 0 3.207 1.436 3.207 3.207s-1.436 3.207-3.207 3.207c-1.771 0-3.207-1.436-3.207-3.207s1.436-3.207 3.207-3.207zM5.022 18.926c0-3.069 2.488-5.557 5.557-5.557 0.558 0 1.096 0.084 1.605 0.238-1.088 1.348-1.742 3.062-1.742 4.929v9.668h-5.42v-9.278zM3.832 10.494c1.221 0 2.211 0.99 2.211 2.211s-0.99 2.212-2.211 2.212-2.211-0.99-2.211-2.212c0-1.221 0.99-2.211 2.211-2.211zM0 19.531c0-2.116 1.716-3.832 3.832-3.832 0.385 0 0.756 0.058 1.107 0.164-0.75 0.93-1.202 2.112-1.202 3.399v6.667h-3.737v-6.398zM28.007 5.819c1.771 0 3.207 1.436 3.207 3.207s-1.436 3.207-3.207 3.207c-1.771 0-3.207-1.436-3.207-3.207s1.436-3.207 3.207-3.207zM33.564 18.926v9.278h-5.42v-9.668c0-1.868-0.654-3.581-1.742-4.929 0.508-0.153 1.047-0.238 1.605-0.238 3.069 0 5.557 2.488 5.557 5.557zM34.754 10.494c1.221 0 2.211 0.99 2.211 2.211s-0.99 2.212-2.211 2.212-2.211-0.99-2.211-2.212c0-1.221 0.99-2.211 2.211-2.211zM38.586 19.531v6.398h-3.737v-6.667c0-1.288-0.451-2.469-1.202-3.399 0.351-0.106 0.722-0.164 1.107-0.164 2.116 0 3.832 1.716 3.832 3.832zM24.036 4.535c0 2.505-2.030 4.535-4.535 4.535s-4.535-2.030-4.535-4.535c0-2.505 2.030-4.535 4.535-4.535s4.535 2.030 4.535 4.535zM19.5 10.676c4.34 0 7.859 3.519 7.859 7.859v13.122h-15.718v-13.122c0-4.34 3.519-7.859 7.859-7.859z"></path>
</svg>
