<!-- Generated by IcoMoon.io -->
<svg version="1.1" xmlns="http://www.w3.org/2000/svg" width="32" height="32" viewBox="0 0 32 32">
<title>population_circle</title>
<path d="M16 32c-8.837 0-16-7.163-16-16s7.163-16 16-16c8.837 0 16 7.163 16 16s-7.163 16-16 16zM11.016 10.585c-0.932 0-1.688 0.764-1.688 1.706s0.756 1.706 1.688 1.706c0.932 0 1.688-0.764 1.688-1.706s-0.756-1.706-1.688-1.706zM8.090 17.556v4.935h2.853v-5.143c0-0.993 0.344-1.905 0.917-2.622-0.268-0.082-0.551-0.126-0.845-0.126-1.616 0-2.925 1.323-2.925 2.956zM7.464 13.071c-0.643 0-1.164 0.527-1.164 1.176s0.521 1.176 1.164 1.176 1.164-0.527 1.164-1.176c0-0.65-0.521-1.176-1.164-1.176zM5.447 17.878v3.403h1.967v-3.546c0-0.685 0.238-1.313 0.633-1.808-0.185-0.056-0.38-0.087-0.583-0.087-1.114 0-2.017 0.913-2.017 2.038zM20.19 10.585c-0.932 0-1.688 0.764-1.688 1.706s0.756 1.706 1.688 1.706c0.932 0 1.688-0.764 1.688-1.706s-0.756-1.706-1.688-1.706zM23.116 17.556c0-1.633-1.31-2.956-2.925-2.956-0.294 0-0.577 0.045-0.845 0.126 0.573 0.717 0.917 1.628 0.917 2.622v5.143h2.853v-4.935zM23.742 13.071c-0.643 0-1.164 0.527-1.164 1.176s0.521 1.176 1.164 1.176 1.164-0.527 1.164-1.176c0-0.65-0.521-1.176-1.164-1.176zM25.76 17.878c0-1.126-0.903-2.038-2.017-2.038-0.203 0-0.398 0.031-0.583 0.087 0.395 0.495 0.633 1.123 0.633 1.808v3.546h1.967v-3.403zM18.1 9.902c0-1.332-1.069-2.412-2.387-2.412s-2.387 1.080-2.387 2.412c0 1.332 1.069 2.412 2.387 2.412s2.387-1.080 2.387-2.412zM15.712 13.168c-2.285 0-4.137 1.872-4.137 4.18v6.98h8.275v-6.98c0-2.309-1.852-4.18-4.137-4.18z"></path>
</svg>
