<!-- Generated by IcoMoon.io -->
<svg version="1.1" xmlns="http://www.w3.org/2000/svg" width="47" height="32" viewBox="0 0 47 32">
<title>portectedarea</title>
<path d="M0 14.013v8.518h12.691c0 0 10.311 7.733 10.872 8.182s1.681 0.896 3.138 0.785c1.457-0.112 13.337 0 14.346 0s3.495 0.141 3.475-2.242c-0.017-1.908-0.128-2.911-3.407-2.914-3.087-0.003-8.304-0.006-8.304-0.006s-0.843 2.696-2.86 2.92c-2.018 0.224-2.981-0.656-3.877-1.552-0.267-0.267-2.909-2.889-3.449-3.41-0.927-0.893 0.398-1.789 1.048-1.115 1.64 1.701 3.982 4.042 3.982 4.042s1.338 1.009 2.811-0.043c1.473-1.053 0.947-2.526 0.316-3.158s-8.38-8.473-9.156-9.051c-1.284-0.956-2.31-0.966-3.999-0.956-0.891 0.005-17.627 0-17.627 0z"></path>
<path d="M35.478 22.962c-6.047 0-10.949-4.902-10.949-10.949s4.902-10.949 10.949-10.949c6.047 0 10.949 4.902 10.949 10.949s-4.902 10.949-10.949 10.949zM34.833 8.295l-4.664 3.611 1.166 3.611h3.498l1.944 7.222 5.053-7.222v-1.806l-3.498-3.611h-2.332l-1.166-1.806zM33.278 8.746l3.11-1.806-0.389 0.903h2.269v-1.354h1.229v3.16l2.721 3.16v-2.257c1.296 1.204 1.944 1.806 1.944 1.806s0-1.053 0-3.16l-5.442-5.868h-3.887v0.903h2.332l-1.166 1.806-0.777-0.903-3.11 3.611h1.166z"></path>
</svg>
