<!-- Generated by IcoMoon.io -->
<svg version="1.1" xmlns="http://www.w3.org/2000/svg" width="48" height="32" viewBox="0 0 48 32">
<title>poverty</title>
<path d="M34.497 18.71c4.068 0.418 6.443-0.141 6.443-0.141s0.258 0.018 0.625 0.494c0.959-0.087 1.473-0.209 1.473-0.209s0.697 0.050 1.428 2.094c0.954 2.67 0.146 5.221 0.146 5.221s1.884 0.809 2.142 2.018c0.181 0.852-0.284 2.28-0.284 2.28s-0.925 0.037-2.448 0.037c-0.474 0-0.942-0.121-1.361-0.288-0.227 0.002-0.473 0.003-0.737 0.003-0.722 0-1.43-0.281-1.974-0.578-1.86 0.601-6.081 1.72-12.52 2.063-2 0.106-4.143-0.077-6.266-0.425-6.071-0.647-12.423-2.98-15.255-4.021-1.115 0.33-3.454 0.803-3.773 0.087-1.146 0.173-2.269 0.147-2.122-0.591 0.285-1.427 2.57-3.522 2.57-3.522s0.19-4.188 0.38-6.948c0.19-2.76 7.329-12.088 7.329-12.088 0.69 0.067 1.317 0.269 1.893 0.557 0.132-0.175 0.206-0.272 0.206-0.272 2.951 0.285 4.759 3.046 6.282 4.473s4.644 7.618 15.038 9.613c0.267 0.051 0.529 0.098 0.786 0.142zM18.232 0.1c0 0 2.766-0.014 5.771 3.24 3.026 3.277 7.234 6.472 13.23 6.472s7.424-0.666 8.947 0.095c1.523 0.762 0.33 2.78-3.141 3.902-2.077 0.672-9.423-0.095-9.423-0.095s2.008 1.068 3.522 1.523c3.206 0.963 8.566-1.047 8.566-1.047s1.523 0.952 1.555 1.808c0.031 0.857-1.65 1.143-4.41 1.523s-4.188 0.19-11.136-1.523c-6.948-1.713-11.897-7.329-12.944-8.851s-2.588-3.116-6.281-4.093c-1.302-0.344-2.567-0.865-1.618-1.618 1.133-0.899 2.705-1.729 7.364-1.337z"></path>
</svg>
