<!-- Generated by IcoMoon.io -->
<svg version="1.1" xmlns="http://www.w3.org/2000/svg" width="32" height="32" viewBox="0 0 32 32">
<title>poverty_circle</title>
<path d="M16 32c8.837 0 16-7.163 16-16s-7.163-16-16-16c-8.837 0-16 7.163-16 16s7.163 16 16 16zM22.427 17.799c0.749-0.024 1.162-0.121 1.162-0.121s0.056 0.004 0.145 0.080c0.35-0.036 0.536-0.080 0.536-0.080s0.297 0.021 0.609 0.889c0.407 1.134 0.062 2.217 0.062 2.217s0.804 0.344 0.914 0.857c0.077 0.362-0.121 0.968-0.121 0.968s-0.395 0.016-1.044 0.016c-0.035 0-0.069-0.002-0.104-0.004-0.158 0.002-0.352 0.004-0.577 0.004-0.411 0-0.81-0.213-1.049-0.369-0.79 0.255-2.592 0.733-5.347 0.879-0.275 0.015-0.557 0.016-0.842 0.007-3.203 0.111-7.19-1.438-8.403-1.877-0.391 0.109-1.045 0.238-1.367 0.145-0.475 0.067-0.928 0.049-0.867-0.256 0.122-0.606 1.096-1.496 1.096-1.496s0.081-1.779 0.162-2.951c0.081-1.172 3.126-5.134 3.126-5.134 0.205 0.020 0.397 0.067 0.578 0.136 0.066-0.088 0.103-0.136 0.103-0.136 1.259 0.121 2.030 1.294 2.679 1.9s1.981 3.235 6.414 4.083c0.827 0.158 1.546 0.224 2.135 0.242zM14.175 9.574c0 0 1.18-0.006 2.461 1.372 1.29 1.388 3.085 2.741 5.642 2.741s3.166-0.282 3.815 0.040c0.649 0.323 0.141 1.177-1.34 1.652-0.886 0.285-4.018-0.040-4.018-0.040s0.856 0.452 1.502 0.645c1.367 0.408 3.653-0.443 3.653-0.443s0.649 0.403 0.663 0.766c0.013 0.363-0.704 0.484-1.881 0.645s-1.786 0.081-4.749-0.645c-2.963-0.725-5.073-3.103-5.52-3.748s-1.104-1.319-2.679-1.733c-0.555-0.146-1.095-0.366-0.69-0.685 0.483-0.381 1.154-0.732 3.14-0.566z"></path>
</svg>
