<!-- Generated by IcoMoon.io -->
<svg version="1.1" xmlns="http://www.w3.org/2000/svg" width="34" height="32" viewBox="0 0 34 32">
<title>print</title>
<path d="M29.143 8.889h-24c-2.846 0-5.143 2.382-5.143 5.333v10.667h6.857v7.111h20.571v-7.111h6.857v-10.667c0-2.951-2.297-5.333-5.143-5.333zM25.714 30.222h-17.143v-10.667h17.143v10.667zM25.714 5.333h-17.143v-3.556h17.143v3.556zM29.143 16c-0.943 0-1.714-0.8-1.714-1.778s0.771-1.778 1.714-1.778c0.943 0 1.714 0.8 1.714 1.778s-0.771 1.778-1.714 1.778zM27.429 0h-20.571v7.111h20.571v-7.111z"></path>
</svg>
