<!-- Generated by IcoMoon.io -->
<svg version="1.1" xmlns="http://www.w3.org/2000/svg" width="32" height="32" viewBox="0 0 32 32">
<title>protected_areas</title>
<path d="M16 32c-8.837 0-16-7.163-16-16s7.163-16 16-16c8.837 0 16 7.163 16 16s-7.163 16-16 16zM5.447 12.304v4.169h6.21c0 0 5.046 3.784 5.32 4.004s0.823 0.439 1.536 0.384c0.713-0.055 6.527 0 7.020 0s1.71 0.069 1.7-1.097c-0.008-0.934-0.063-1.425-1.667-1.426-1.511-0.001-4.064-0.003-4.064-0.003s-0.412 1.319-1.399 1.429c-0.987 0.11-1.459-0.321-1.897-0.76-0.131-0.131-1.423-1.414-1.688-1.669-0.453-0.437 0.195-0.876 0.513-0.546 0.803 0.832 1.949 1.978 1.949 1.978s0.655 0.494 1.376-0.021c0.721-0.515 0.464-1.236 0.155-1.545s-4.101-4.146-4.481-4.429c-0.628-0.468-1.13-0.473-1.957-0.468-0.436 0.002-8.626 0-8.626 0zM23.229 18.045c1.975 0 3.576-1.601 3.576-3.576s-1.601-3.576-3.576-3.576c-1.975 0-3.576 1.601-3.576 3.576s1.601 3.576 3.576 3.576zM23.106 12.99l-1.48 0.986 0.37 0.986h1.11l0.616 1.973 1.603-1.973v-0.493l-1.11-0.986h-0.74l-0.37-0.493zM22.613 13.113h-0.37l0.986-0.986 0.247 0.247 0.37-0.493h-0.74v-0.247h1.233l1.726 1.603c0 0.575 0 0.863 0 0.863s-0.206-0.164-0.616-0.493v0.617l-0.863-0.863v-0.863h-0.39v0.37h-0.72l0.123-0.247-0.986 0.493z"></path>
</svg>
