<!-- Generated by IcoMoon.io -->
<svg version="1.1" xmlns="http://www.w3.org/2000/svg" width="32" height="32" viewBox="0 0 32 32">
<title>protected_areas_circle</title>
<path d="M16 32c-8.837 0-16-7.163-16-16s7.163-16 16-16c8.837 0 16 7.163 16 16s-7.163 16-16 16zM4.766 15.028v4.169h6.21c0 0 5.046 3.784 5.32 4.004s0.823 0.439 1.536 0.384c0.713-0.055 6.527 0 7.020 0s1.71 0.069 1.7-1.097c-0.008-0.934-0.063-1.425-1.667-1.426-1.511-0.001-4.064-0.003-4.064-0.003s-0.412 1.319-1.399 1.429c-0.987 0.11-1.459-0.321-1.897-0.76-0.131-0.131-1.423-1.414-1.688-1.669-0.454-0.437 0.195-0.876 0.513-0.546 0.803 0.832 1.949 1.978 1.949 1.978s0.655 0.494 1.376-0.021c0.721-0.515 0.464-1.236 0.155-1.545s-4.101-4.146-4.481-4.429c-0.628-0.468-1.13-0.473-1.957-0.468-0.436 0.002-8.626 0-8.626 0zM22.128 19.407c2.959 0 5.358-2.399 5.358-5.358s-2.399-5.358-5.358-5.358c-2.959 0-5.358 2.399-5.358 5.358s2.399 5.358 5.358 5.358zM21.943 11.832l-2.217 1.478 0.554 1.478h1.663l0.924 2.956 2.402-2.956v-0.739l-1.663-1.478h-1.109l-0.554-0.739zM21.204 12.017h-0.554l1.478-1.478 0.369 0.37 0.554-0.739h-1.109v-0.37h1.848l2.587 2.402c0 0.862 0 1.293 0 1.293s-0.308-0.246-0.924-0.739v0.924l-1.293-1.293v-1.293h-0.584v0.554h-1.079l0.185-0.37-1.478 0.739z"></path>
</svg>
