<!-- Generated by IcoMoon.io -->
<svg version="1.1" xmlns="http://www.w3.org/2000/svg" width="71" height="32" viewBox="0 0 71 32">
<title>protectedareas</title>
<path d="M0 4.002c0 0 26.569 0.007 27.984 0 2.682-0.014 4.31 0 6.349 1.518 1.232 0.918 13.534 13.366 14.536 14.369s1.838 3.342-0.502 5.013c-2.338 1.67-4.463 0.068-4.463 0.068s-3.718-3.718-6.322-6.418c-1.033-1.070-3.135 0.352-1.664 1.77 0.858 0.827 5.051 4.99 5.475 5.414 1.423 1.423 2.952 2.82 6.155 2.464s4.54-4.635 4.54-4.635 8.282 0.005 13.182 0.010c5.206 0.004 5.382 1.596 5.409 4.626 0.033 3.782-3.914 3.559-5.516 3.559s-20.462-0.178-22.775 0c-2.314 0.178-4.093-0.534-4.982-1.246s-17.259-12.989-17.259-12.989h-20.147v-13.523zM58 23.2c-6.407 0-11.6-5.194-11.6-11.6s5.194-11.6 11.6-11.6c6.406 0 11.6 5.194 11.6 11.6s-5.194 11.6-11.6 11.6zM57.6 7.6l-4.8 3.2 1.2 3.2h3.6l2 6.4 5.2-6.4v-1.6l-3.6-3.2h-2.4l-1.2-1.6zM56 7.2l3.2-1.6-0.4 0.8h2.335v-1.2h1.265v2.8l2.8 2.8v-2c1.333 1.067 2 1.6 2 1.6s0-0.933 0-2.8l-5.6-5.2h-4v0.8h2.4l-1.2 1.6-0.8-0.8-3.2 3.2h1.2z"></path>
</svg>
