<!-- Generated by IcoMoon.io -->
<svg version="1.1" xmlns="http://www.w3.org/2000/svg" width="32" height="32" viewBox="0 0 32 32">
<title>remove</title>
<path d="M7.783 27.255l-0.031-18.231h-2.419v-1.49h6.814v-2.79c0-0.411 0.312-0.745 0.696-0.745h5.979c0.384 0 0.696 0.333 0.696 0.745v2.79h6.814v1.49h-2.419l-0.031 18.231c0 0.411-0.312 0.745-0.696 0.745h-14.708c-0.384 0-0.696-0.334-0.696-0.745zM13.54 5.49v2.045h4.587v-2.045h-4.587zM11.5 13v11.667h2.833v-11.667h-2.833zM17.333 13v11.667h2.833v-11.667h-2.833z"></path>
</svg>
