<!-- Generated by IcoMoon.io -->
<svg version="1.1" xmlns="http://www.w3.org/2000/svg" width="32" height="32" viewBox="0 0 32 32">
<title>tourism_circle2</title>
<path d="M16 32c-8.837 0-16-7.163-16-16s7.163-16 16-16c8.837 0 16 7.163 16 16s-7.163 16-16 16zM25.095 19.058c0.608 0.028 1.295-0.028 1.454-0.39 0.026-0.167-0.079-0.418-0.132-0.557-0.264-0.473-0.846-1.949-3.304-2.59-2.458-0.613-11.63-2.423-12.053-2.534s-0.634-0.111-1.189-1.225l-1.507-2.84c0 0-0.159-0.418-0.529-0.501l-1.004-0.251c-0.079 0-0.132 0.028-0.132 0.111l0.159 3.62c0 0.084-0.053 0.139-0.132 0.139l-1.031-0.028c-0.053 0-0.106 0.028-0.132 0.111l-0.106 0.473c-0.026 0.084 0 0.167 0.079 0.195l3.648 2.033c0.37 0.195 0.74 0.39 1.137 0.529 0.661 0.251 1.85 0.696 2.062 0.752s1.11 0.306 1.163 0.306c0.053 0 0.053 0.139 0.106 0.139 0.053 0.028 1.295 0.362 1.348 0.362 0.026 0 0.053-0.028 0.079-0.056 0-0.028 0.026-0.028 0.053-0.028l3.013 0.78c0.053 0 0.079 0.028 0.079 0.056 0.026 0.139 0.159 0.473 0.37 0.529l1.48 0.39c0.211 0.056 0.396 0.028 0.555-0.111 0.053-0.056 0.106-0.111 0.132-0.195 0.026-0.028 0.053-0.056 0.106-0.056l2.855 0.64c0.449 0.111 0.925 0.167 1.374 0.195zM7.44 23.149h17.8c0.342 0 0.632-0.312 0.632-0.681s-0.29-0.681-0.632-0.681h-17.8c-0.342 0-0.632 0.312-0.632 0.681s0.29 0.681 0.632 0.681z"></path>
</svg>
