<!-- Generated by IcoMoon.io -->
<svg version="1.1" xmlns="http://www.w3.org/2000/svg" width="45" height="32" viewBox="0 0 45 32">
<title>tourism</title>
<path d="M42.105 22.232c-0.954-0.056-1.965-0.168-2.919-0.393l-6.063-1.291c-0.112 0-0.168 0.056-0.225 0.112-0.056 0.168-0.168 0.281-0.281 0.393-0.337 0.281-0.73 0.337-1.179 0.225l-3.144-0.786c-0.449-0.112-0.73-0.786-0.786-1.067 0-0.056-0.056-0.112-0.168-0.112l-6.4-1.572c-0.056 0-0.112 0-0.112 0.056-0.056 0.056-0.112 0.112-0.168 0.112-0.112 0-2.751-0.674-2.863-0.73-0.112 0-0.112-0.281-0.225-0.281s-2.021-0.505-2.47-0.618c-0.449-0.112-2.975-1.011-4.379-1.516-0.842-0.281-1.628-0.674-2.414-1.067l-7.747-4.098c-0.168-0.056-0.225-0.225-0.168-0.393l0.225-0.954c0.056-0.168 0.168-0.225 0.281-0.225l2.189 0.056c0.168 0 0.281-0.112 0.281-0.281l-0.337-7.298c0-0.168 0.112-0.225 0.281-0.225l2.133 0.505c0.786 0.168 1.123 1.011 1.123 1.011l3.2 5.726c1.179 2.246 1.628 2.246 2.526 2.47s20.379 3.874 25.6 5.109c5.221 1.291 6.456 4.267 7.018 5.221 0.112 0.281 0.337 0.786 0.281 1.123-0.337 0.73-1.797 0.842-3.088 0.786z"></path>
<path d="M3.705 31.607h37.951c0.73 0 1.347-0.618 1.347-1.347v0c0-0.73-0.618-1.347-1.347-1.347h-37.951c-0.73 0-1.347 0.618-1.347 1.347v0c0 0.73 0.618 1.347 1.347 1.347z"></path>
</svg>
