<!-- Generated by IcoMoon.io -->
<svg version="1.1" xmlns="http://www.w3.org/2000/svg" width="32" height="32" viewBox="0 0 32 32">
<title>urban_circle</title>
<path d="M13.211 21.343v-7.878h-4.397v7.878h-3.060v1.588h21.173v-1.588h-2.586v-6.865h-3.129v6.865h-1.757v-12.492h-5.023v12.492h-1.221zM16 32c-8.837 0-16-7.163-16-16s7.163-16 16-16c8.837 0 16 7.163 16 16s-7.163 16-16 16zM9.547 14.477h0.977v1.519h-0.977v-1.519zM11.501 14.477h0.977v1.519h-0.977v-1.519zM14.894 11.168v-0.977h1.519v0.977h-1.519zM17.337 11.168v-0.977h1.519v0.977h-1.519zM14.894 12.687v-0.977h1.519v0.977h-1.519zM17.337 12.687v-0.977h1.519v0.977h-1.519z"></path>
</svg>
