<!-- Generated by IcoMoon.io -->
<svg version="1.1" xmlns="http://www.w3.org/2000/svg" width="30" height="32" viewBox="0 0 30 32">
<title>water-(1)</title>
<path d="M5.606 22.467c0.873 0.8 3.491 3.433 3.491 5.7 0 2.667-1.947 3.7-3.759 3.7s-3.759-1.033-3.759-3.7c0-2.233 2.652-4.9 3.491-5.7 0.168-0.133 0.403-0.133 0.537 0zM5.438 30.7c0.235 0 0.47-0.2 0.47-0.467s-0.201-0.467-0.47-0.467c-0.839 0-1.712-0.567-1.712-1.833 0-0.267-0.201-0.467-0.47-0.467s-0.47 0.2-0.47 0.467c0 1.8 1.343 2.767 2.652 2.767z"></path>
<path d="M28.464 7.933h-4.666c-0.738-1.1-1.88-1.933-3.189-2.3v-2.267h1.947c0.873 0 1.611-0.733 1.611-1.6s-0.738-1.6-1.611-1.6h-7.116c-0.873 0-1.611 0.733-1.611 1.6s0.738 1.6 1.611 1.6h1.947v2.267c-1.309 0.367-2.45 1.2-3.189 2.3h-0.94c-5.606 0-10.238 4.133-11.010 9.467h-1.175c-0.503 0-0.906 0.4-0.906 0.9v1.433c0 0.5 0.403 0.9 0.906 0.9h8.559c0.504 0 0.906-0.4 0.906-0.9v-1.433c0-0.5-0.403-0.9-0.906-0.9h-0.772c0.638-1.767 2.316-3 4.296-3.033h1.007c1.041 1.533 2.82 2.533 4.8 2.533s3.759-1 4.8-2.533h4.666c0.503 0 0.906-0.4 0.906-0.9v-4.633c0.034-0.5-0.369-0.9-0.873-0.9z"></path>
</svg>
