<!-- Generated by IcoMoon.io -->
<svg version="1.1" xmlns="http://www.w3.org/2000/svg" width="32" height="32" viewBox="0 0 32 32">
<title>water_circle</title>
<path d="M16 32c-8.837 0-16-7.163-16-16s7.163-16 16-16c8.837 0 16 7.163 16 16s-7.163 16-16 16zM11.271 19.918c-0.074-0.074-0.204-0.074-0.297 0-0.464 0.443-1.931 1.918-1.931 3.153 0 1.475 1.077 2.047 2.080 2.047s2.080-0.572 2.080-2.047c0-1.254-1.448-2.711-1.931-3.153zM11.178 24.472c-0.724 0-1.467-0.535-1.467-1.53 0-0.148 0.111-0.258 0.26-0.258s0.26 0.111 0.26 0.258c0 0.701 0.483 1.014 0.947 1.014 0.149 0 0.26 0.111 0.26 0.258s-0.13 0.258-0.26 0.258zM23.916 11.878h-2.581c-0.409-0.608-1.040-1.069-1.764-1.272v-1.254h1.077c0.483 0 0.891-0.406 0.891-0.885s-0.409-0.885-0.891-0.885h-3.937c-0.483 0-0.891 0.406-0.891 0.885s0.408 0.885 0.891 0.885h1.077v1.254c-0.724 0.203-1.355 0.664-1.764 1.272h-0.52c-3.101 0-5.663 2.287-6.091 5.237h-0.65c-0.279 0-0.501 0.221-0.501 0.498v0.793c0 0.277 0.223 0.498 0.501 0.498h4.735c0.279 0 0.501-0.221 0.501-0.498v-0.793c0-0.277-0.223-0.498-0.501-0.498h-0.427c0.353-0.977 1.281-1.66 2.377-1.678h0.557c0.576 0.848 1.56 1.401 2.655 1.401s2.080-0.553 2.655-1.401h2.581c0.279 0 0.501-0.221 0.501-0.498v-2.563c0.019-0.277-0.204-0.498-0.483-0.498z"></path>
</svg>
