<!-- Generated by IcoMoon.io -->
<svg version="1.1" xmlns="http://www.w3.org/2000/svg" width="32" height="32" viewBox="0 0 32 32">
<title>water_circle</title>
<path d="M16 32c-8.837 0-16-7.163-16-16s7.163-16 16-16c8.837 0 16 7.163 16 16s-7.163 16-16 16zM17.925 8.802c0 0-2.397 4.899-3.896 7.258-1.664 2.618-2.51 4.693-2.183 6.821s2.128 4.857 5.73 4.911 5.13-1.419 6.166-3.929c1.037-2.51 0.438-4.519-1.801-7.967-1.121-1.727-3.394-4.911-4.016-7.094zM8.875 5.253c0 0-1.337 2.731-2.172 4.047-0.928 1.46-1.4 2.617-1.217 3.804s1.187 2.708 3.195 2.738 2.86-0.791 3.438-2.191c0.578-1.4 0.244-2.52-1.004-4.442-0.625-0.963-1.893-2.738-2.239-3.956zM23.57 4.766c0 0-0.875 1.787-1.422 2.648-0.607 0.956-0.916 1.712-0.796 2.489s0.776 1.772 2.090 1.792c1.314 0.020 1.872-0.518 2.25-1.434s0.16-1.649-0.657-2.907c-0.409-0.63-1.238-1.792-1.466-2.588z"></path>
</svg>
