<!-- Generated by IcoMoon.io -->
<svg version="1.1" xmlns="http://www.w3.org/2000/svg" width="28" height="32" viewBox="0 0 28 32">
<title>water</title>
<path d="M17.153 5.548c0.855 3.001 3.98 7.377 5.521 9.751 3.077 4.74 3.901 7.501 2.475 10.952s-3.525 5.476-8.476 5.401-7.426-3.826-7.876-6.751c-0.45-2.925 0.713-5.777 3.001-9.376 2.061-3.243 5.356-9.977 5.356-9.977zM4.713 0.67c0.477 1.673 2.219 4.113 3.078 5.438 1.716 2.643 2.175 4.183 1.38 6.107s-1.966 3.053-4.726 3.012c-2.761-0.042-4.141-2.133-4.392-3.764s0.398-3.221 1.673-5.228c1.149-1.808 2.986-5.563 2.986-5.563zM24.912 0c0.312 1.095 1.452 2.692 2.015 3.558 1.122 1.73 1.423 2.737 0.903 3.996s-1.286 1.998-3.093 1.971c-1.806-0.027-2.71-1.396-2.874-2.463s0.26-2.108 1.095-3.421c0.752-1.183 1.954-3.64 1.954-3.64z"></path>
</svg>
