<!-- Generated by IcoMoon.io -->
<svg version="1.1" xmlns="http://www.w3.org/2000/svg" width="53" height="32" viewBox="0 0 53 32">
<title>wildlife</title>
<path d="M2.118 3.385c0 0-1.331 0.614-1.485 1.434s-0.512 1.639-0.614 2.151c-0.102 0.512 0.204 1.69 1.049 2.048 0 0 0.486 0.256 2.534-0.87s2.202-0.052 1.127 0.409-1.921 1.741-2.036 2.304c-0.114 0.563 1.37 2.202 2.036 1.741s1.024-1.639 1.331-1.178c0.307 0.461 0.204 0.768 0.973 0.921s2.355-0.87 2.406-1.536c0.051-0.666 8.192-0.052 10.804 0.563s3.225 0.205 6.144 2.867c2.918 2.662 2.611 4.455 5.581 6.042s4.096 1.331 8.090 5.888c3.994 4.557 2.457 4.404 4.148 5.325s2.764-0.87 2.099-2.099c-0.666-1.229-1.69-1.178-2.356-2.304s-1.536-4.71-3.174-5.939c-1.639-1.229-3.277-3.277-3.789-5.837s-1.024-3.328-1.434-3.635c-0.41-0.307 5.222 0.512 8.192 1.229s5.376 1.28 7.117-0.256c1.741-1.536 2.202-2.406 2.202-2.918s-1.024-0.102-1.997 0.563c-0.973 0.666-1.433 1.792-3.43 1.844s-8.551-1.844-12.288-2.662c-3.738-0.819-4.301-0.615-6.964-2.253s-9.728-7.424-15.002-7.22c-5.274 0.205-8.244 2.048-8.244 2.048s-0.614-0.461-0.973-0.666c-0.358-0.204-0.717 0.052-0.973 0.256s-0.717-0.102-1.024 0.204c-0.307 0.307-0.051 1.536-0.051 1.536z"></path>
</svg>
