<!-- Generated by IcoMoon.io -->
<svg version="1.1" xmlns="http://www.w3.org/2000/svg" width="32" height="32" viewBox="0 0 32 32">
<title>wildlife_circle</title>
<path d="M16 32c-8.837 0-16-7.163-16-16s7.163-16 16-16c8.837 0 16 7.163 16 16s-7.163 16-16 16zM6.33 10.684c0 0-0.587 0.271-0.654 0.632s-0.226 0.722-0.271 0.948c-0.045 0.226 0.090 0.745 0.462 0.903 0 0 0.214 0.113 1.117-0.384s0.971-0.023 0.497 0.18-0.847 0.767-0.897 1.016c-0.050 0.248 0.604 0.97 0.897 0.767s0.451-0.722 0.587-0.519c0.135 0.203 0.090 0.338 0.429 0.406s1.038-0.384 1.061-0.677c0.022-0.293 3.611-0.023 4.762 0.248s1.422 0.090 2.708 1.264c1.286 1.174 1.151 1.963 2.46 2.663s1.805 0.587 3.566 2.595c1.76 2.009 1.083 1.941 1.828 2.347s1.218-0.384 0.925-0.925c-0.294-0.542-0.745-0.519-1.038-1.016s-0.677-2.076-1.399-2.618c-0.722-0.542-1.444-1.445-1.67-2.573s-0.451-1.467-0.632-1.602c-0.181-0.136 2.302 0.226 3.611 0.542s2.369 0.564 3.137-0.113c0.767-0.677 0.97-1.061 0.97-1.286s-0.451-0.045-0.88 0.248c-0.429 0.293-0.632 0.79-1.512 0.813s-3.769-0.813-5.416-1.174c-1.647-0.361-1.896-0.271-3.069-0.993s-4.288-3.272-6.612-3.182c-2.325 0.090-3.634 0.903-3.634 0.903s-0.271-0.203-0.429-0.293c-0.158-0.090-0.316 0.023-0.429 0.113s-0.316-0.045-0.451 0.090c-0.135 0.136-0.022 0.677-0.022 0.677z"></path>
</svg>
